<ttFont>
          <CharString index="0">
            rmoveto
            -19 callsubr
            hvcurveto
            -8 39 rlineto
            -14 -50 -52 -9 -40 hhcurveto
            -88 -51 46 120 hvcurveto
            27 291 vlineto
            2 18 1 29 14 vvcurveto
            131 -60 59 -136 -78 callgsubr
            vhcurveto
            -106 308 rmoveto
            93 4 21 48 76 hhcurveto
            57 14 -43 -66 hvcurveto
            -22 vlineto
            return
          </CharString>
          <CharString index="1">
            rmoveto
            7 29 rlineto
            1 10 9 1 7 hhcurveto
            24 13 -9 -15 -17 -16 -14 -47 hvcurveto
            4 -42 rlineto
            48 hlineto
            6 24 rlineto
            51 7 21 19 26 vvcurveto
            34 -36 19 -60 -34 callsubr
            vhcurveto
            6 -53 rlineto
            return
          </CharString>
          <CharString index="2">
            rmoveto
            30 91 rlineto
            205 hlineto
            31 -93 -63 -19 rlineto
            -41 257 41 vlineto
            -72 22 7 callsubr
            59 406 rmoveto
            87 -243 rlineto
            -169 hlineto
            return
          </CharString>
          <CharString index="3">
            -88 callgsubr
            -316 vlineto
            -17 -30 -46 -15 -30 hhcurveto
            -54 -15 24 44 hvcurveto
            368 -37 vlineto
            -162 -71 callgsubr
            94 62 68 30 30 43 vhcurveto
            -35 7 42 -20 -84 callgsubr
            return
          </CharString>
          <CharString index="4">
            rmoveto
            -45 callgsubr
            -238 -41 vlineto
            -83 callgsubr
            return
          </CharString>
          <CharString index="5">
            rmoveto
            -95 callsubr
            43 callgsubr
            -50 vlineto
            -26 -92 rlineto
            -193 210 117 hlineto
            21 -69 rlineto
            47 188 hlineto
            return
          </CharString>
          <CharString index="6">
            308 vlineto
            94 -61 25 -97 -72 -69 -14 -23 -60 vhcurveto
            17 -128 rlineto
            49 hlineto
            23 84 rlineto
            8 24 29 5 28 hhcurveto
            return
          </CharString>
          <CharString index="7">
            rmoveto
            41 -35 33 callsubr
            -41 37 -31 40 40 35 31 41 vhcurveto
            return
          </CharString>
          <CharString index="8">
            -19 -66 rlineto
            -119 223 176 hlineto
            21 -79 rlineto
            50 141 -453 -41 hlineto
            89 -30 callsubr
            -88 -22 rlineto
            return
          </CharString>
          <CharString index="9">
            -97 callgsubr
            -40 hlineto
            -160 -88 callsubr
            -83 24 rlineto
            379 vlineto
            78 7 75 40 65 vvcurveto
            return
          </CharString>
          <CharString index="10">
            rmoveto
            25 -98 rlineto
            50 hlineto
            12 144 rlineto
            18 -43 -79 11 -60 hhcurveto
            -234 -86 -144 -173 -174 80 -147 230 74 70 15 27 47 hvcurveto
            195 vlineto
            64 19 rlineto
            43 -266 -42 53 callsubr
            -160 vlineto
            -10 -26 -28 -2 -24 hhcurveto
            -144 -38 132 125 110 34 144 163 38 34 -4 -8 22 hvcurveto
            endchar
          </CharString>
          <CharString index="11">
            -97 callgsubr
            -9 hlineto
            18 -34 -43 10 -53 hhcurveto
            -173 -67 67 callgsubr
            69 -115 171 175 69 115 139 75 -18 67 -44 47 hvcurveto
            60 16 49 36 52 vvcurveto
            -287 -486 rmoveto
            -95 -23 85 110 112 22 83 90 96 23 -83 -112 -42 callgsubr
            hvcurveto
            return
          </CharString>
          <CharString index="12">
            -99 callsubr
            -41 return
          </CharString>
          <CharString index="13">
            rmoveto
            -49 33 -54 114 107 56 52 74 62 -47 24 -52 26 vhcurveto
            74 34 14 47 33 vvcurveto
            51 -46 44 -95 -104 -45 -51 -59 -52 29 -35 38 callsubr
            -50 vvcurveto
            100 241 rmoveto
            38 28 17 30 callsubr
            -30 80 callsubr
            20 -23 31 29 vvcurveto
            30 -148 -32 callgsubr
            16 51 36 19 27 23 19 vhcurveto
            endchar
          </CharString>
          <CharString index="14">
            rmoveto
            22 -80 callgsubr
            121 79 rlineto
            return
          </CharString>
          <CharString index="15">
            rmoveto
            100 22 61 67 hvcurveto
            -48 2 rlineto
            -29 -13 -33 -59 -56 -13 33 29 vhcurveto
            -51 -2 rlineto
            -67 20 -61 98 vhcurveto
            return
          </CharString>
          <CharString index="16">
            -8 132 rlineto
            -47 hlineto
            -25 -86 rlineto
            -9 -32 -31 -4 -27 hhcurveto
            -144 -40 133 123 129 33 125 155 26 33 -4 -8 27 hvcurveto
            25 -98 rlineto
            45 hlineto
            10 144 rlineto
            14 -47 -52 15 -85 hhcurveto
            -213 -81 -144 -173 return
          </CharString>
          <CharString index="17">
            171 41 hlineto
            -68 22 -86 184 2 27 -62 20 rlinecurve
            94 26 49 60 82 vvcurveto
            85 -63 66 -157 vhcurveto
            -269 -41 hlineto
            88 -30 callsubr
            -88 -22 rlineto
            -41 285 41 vlineto
            -80 22 rlineto
            209 29 vlineto
            45 4 -10 -262 106 hvcurveto
            -137 322 rmoveto
            -47 229 hlineto
            4 14 20 4 19 hhcurveto
            69 42 -38 -72 -75 -40 -52 -77 hvcurveto
            return
          </CharString>
          <CharString index="18">
            39 callgsubr
            87 -22 rlineto
            -357 vlineto
            -39 -21 -39 -28 callsubr
            -290 -57 callsubr
            -219 vlineto
            -164 35 -115 197 68 52 21 35 36 vhcurveto
            -43 vlineto
            -119 -51 -49 -117 -26 -51 7 14 -31 vhcurveto
            return
          </CharString>
          <CharString index="19">
            -104 callsubr
            38 vlineto
            return
          </CharString>
          <CharString index="20">
            rmoveto
            21 -88 rlineto
            59 hlineto
            18 167 rlineto
            1 -7 -12 0 -9 hhcurveto
            -47 -59 -20 -29 -45 hvcurveto
            46 -42 vlineto
            -156 53 callgsubr
            -12 rlineto
            -348 vlineto
            -82 -22 rlineto
            -42 314 43 vlineto
            -115 21 rlineto
            343 vlineto
            11 23 29 6 28 hhcurveto
            return
          </CharString>
          <CharString index="21">
            rmoveto
            -79 callsubr
            -432 vlineto
            -35 -19 -45 -53 vhcurveto
            -45 hlineto
            -6 -42 rlineto
            -19 39 41 -8 20 hhcurveto
            73 67 54 170 hvcurveto
            445 -38 vlineto
            endchar
          </CharString>
          <CharString index="22">
            41 -291 -57 callsubr
            return
          </CharString>
          <CharString index="23">
            rlineto
            -79 callsubr
            return
          </CharString>
          <CharString index="24">
            rmoveto
            -264 -384 20 -42 rlineto
            377 hlineto
            11 152 rlineto
            -45 hlineto
            -35 -88 rlineto
            -182 hlineto
            265 386 -21 42 rlineto
            -380 hlineto
            17 -151 rlineto
            43 hlineto
            22 85 rlineto
            return
          </CharString>
          <CharString index="25">
            rmoveto
            -50 hlineto
            -38 -93 rlineto
            -217 hlineto
            309 516 -5 33 rlineto
            -424 hlineto
            9 -141 rlineto
            51 hlineto
            24 78 rlineto
            210 hlineto
            -313 -517 18 -33 rlineto
            417 hlineto
            return
          </CharString>
          <CharString index="26">
            -63 callsubr
            -107 -134 return
          </CharString>
          <CharString index="27">
            -92 callsubr
            -156 -67 callsubr
            return
          </CharString>
          <CharString index="28">
            -39 vlineto
            82 -11 rlineto
            return
          </CharString>
          <CharString index="29">
            rmoveto
            30 callgsubr
            -319 -13 callgsubr
            84 27 callgsubr
            94 10 rlineto
            551 -19 callgsubr
            vlineto
            return
          </CharString>
          <CharString index="30">
            rmoveto
            38 -32 30 -36 -38 callsubr
            -46 callsubr
            return
          </CharString>
          <CharString index="31">
            rmoveto
            98 58 47 166 hvcurveto
            487 vlineto
            86 22 rlineto
            41 -288 46 callsubr
            -513 vlineto
            -71 -12 -52 -61 vhcurveto
            -70 hlineto
            -4 -33 rlineto
            -16 23 33 -15 51 hhcurveto
            endchar
          </CharString>
          <CharString index="32">
            rmoveto
            -270 -21 callsubr
            -41 287 vlineto
            209 83 144 175 174 -88 120 -222 hvcurveto
            -4 -57 rmoveto
            119 71 -97 -140 -127 -26 -141 -135 -31 -37 7 7 -23 hvcurveto
            485 vlineto
            3 14 19 3 29 hhcurveto
            return
          </CharString>
          <CharString index="33">
            21 rlineto
            42 -263 -41 vlineto
            70 -22 157 -305 rlineto
            -182 vlineto
            -92 -22 rlineto
            -41 301 41 vlineto
            -43 callsubr
            return
          </CharString>
          <CharString index="34">
            -84 callgsubr
            38 vlineto
            return
          </CharString>
          <CharString index="35">
            557 -82 callgsubr
            return
          </CharString>
          <CharString index="36">
            40 -16 callgsubr
            -37 rlineto
            -40 vlineto
            82 -10 rlineto
            -350 vlineto
            -82 -25 rlineto
            return
          </CharString>
          <CharString index="37">
            715 rmoveto
            -99 -25 -61 -67 hvcurveto
            49 -2 rlineto
            29 12 33 63 55 12 -33 -29 vhcurveto
            49 2 rlineto
            67 -17 61 -99 vhcurveto
            return
          </CharString>
          <CharString index="38">
            rmoveto
            79 55 35 41 52 hvcurveto
            -44 32 47 -32 94 hhcurveto
            80 56 21 30 44 hvcurveto
            -8 39 rlineto
            -13 -47 -50 -10 -43 hhcurveto
            -96 -35 49 125 hvcurveto
            286 51 rlineto
            2 9 0 13 8 vvcurveto
            134 -79 55 -103 -58 -42 -18 -33 -34 vhcurveto
            34 -24 -41 17 -62 hhcurveto
            -71 -65 -14 -23 -59 hvcurveto
            17 -128 rlineto
            50 hlineto
            22 84 rlineto
            8 23 24 5 29 hhcurveto
            54 16 -23 -52 hvcurveto
            -95 vlineto
            -120 -22 rlineto
            -101 -18 -40 -57 -61 vvcurveto
            -60 37 -55 79 vhcurveto
            262 292 rmoveto
            96 4 22 61 72 hhcurveto
            58 11 -51 -72 hvcurveto
            -370 -253 rmoveto
            -38 -21 23 41 37 20 23 57 11 hvcurveto
            68 12 rlineto
            -114 vlineto
            -18 -23 -32 -15 -31 hhcurveto
            endchar
          </CharString>
          <CharString index="39">
            -11 callgsubr
            19 33 23 vhcurveto
            return
          </CharString>
          <CharString index="40">
            -594 -105 callsubr
            return
          </CharString>
          <CharString index="41">
            638 rmoveto
            28 21 -86 150 rlineto
            -86 -20 hlineto
            305 -151 rmoveto
            28 21 -86 150 rlineto
            -86 -20 hlineto
            return
          </CharString>
          <CharString index="42">
            hlineto
            106 133 -22 23 -122 -79 -123 79 -23 -23 rlineto
            return
          </CharString>
          <CharString index="43">
            rmoveto
            185 90 84 79 86 -67 24 -97 hvcurveto
            -146 hlineto
            -23 -6 18 15 10 5 14 10 16 hvcurveto
            -3 8 32 -5 31 hhcurveto
            144 53 79 93 36 -15 66 callgsubr
            -29 -36 11 -53 hhcurveto
            -127 -65 -76 -94 -58 17 -57 51 -31 hvcurveto
            -33 -34 -33 -36 -36 vvcurveto
            -23 11 -27 27 -10 vhcurveto
            -54 -35 -17 -35 -30 vvcurveto
            -48 29 -50 169 vhcurveto
            27 397 rmoveto
            -58 -20 45 68 69 18 44 57 59 22 -44 -69 -68 -19 -45 -59 hvcurveto
            -22 -336 rmoveto
            -73 -22 21 38 26 13 21 19 25 hvcurveto
            162 hlineto
            41 23 -4 -37 -53 -53 -37 -110 hvcurveto
            endchar
          </CharString>
          <CharString index="44">
            22 -107 134 rlineto
            -76 hlineto
            return
          </CharString>
          <CharString index="45">
            656 -92 callsubr
            return
          </CharString>
          <CharString index="46">
            -77 callgsubr
            endchar
          </CharString>
          <CharString index="47">
            0 callsubr
            -86 22 rlineto
            214 252 -214 -42 callsubr
            -41 290 41 vlineto
            -87 22 rlineto
            488 vlineto
            86 21 13 callsubr
            -21 rlineto
            -218 -252 218 vlineto
            86 21 13 callsubr
            34 callsubr
            -87 -22 rlineto
            return
          </CharString>
          <CharString index="48">
            -71 callsubr
            -39 return
          </CharString>
          <CharString index="49">
            rmoveto
            -228 -37 hlineto
            53 -24 170 -407 rlineto
            -73 -31 26 callgsubr
            39 37 -9 28 hhcurveto
            88 50 76 126 45 -8 callsubr
            68 -17 -91 -273 -104 275 50 24 rlineto
            return
          </CharString>
          <CharString index="50">
            -41 vlineto
            2 callsubr
            return
          </CharString>
          <CharString index="51">
            42 vlineto
            -117 22 rlineto
            352 vlineto
            131 -8 rlineto
            72 -131 111 -53 vlineto
            -53 -100 -82 -33 rlineto
            -43 72 -357 vlineto
            return
          </CharString>
          <CharString index="52">
            rmoveto
            74 hlineto
            34 94 rlineto
            -5 26 27 -3 30 hhcurveto
            213 82 144 175 129 -45 113 -111 49 hvcurveto
            39 107 rlineto
            -76 hlineto
            -32 -86 rlineto
            3 -21 -24 2 -25 hhcurveto
            -213 -85 -144 -173 -126 45 -110 104 -51 hvcurveto
            32 83 rmoveto
            -44 52 -11 83 69 vvcurveto
            108 23 152 143 20 18 -3 -5 16 vhcurveto
            -44 -513 rmoveto
            -25 -21 3 8 -18 hvcurveto
            168 459 rlineto
            50 -52 12 -88 -69 vvcurveto
            -109 -22 -152 -144 vhcurveto
            endchar
          </CharString>
          <CharString index="53">
            -33 -30 -38 -38 33 -28 return
          </CharString>
          <CharString index="54">
            -67 241 -12 rmoveto
            143 72 74 105 91 -59 39 -74 39 hvcurveto
            101 46 23 63 49 vvcurveto
            71 -41 63 -145 -136 -61 -70 -85 -77 41 -46 63 -39 vhcurveto
            -84 -47 -38 -63 -64 vvcurveto
            -85 42 -64 153 vhcurveto
            23 377 rmoveto
            -60 32 -37 39 47 vvcurveto
            61 39 27 55 57 30 -33 -60 -48 -29 -33 -55 -32 vhcurveto
            -23 -319 rmoveto
            -54 -40 28 72 50 34 55 39 30 hvcurveto
            33 -18 rlineto
            59 -30 38 -32 -57 vvcurveto
            -66 -46 -32 -63 vhcurveto
            endchar
          </CharString>
          <CharString index="55">
            173 -80 144 -215 return
          </CharString>
          <CharString index="56">
            -24 callsubr
            33 26 44 56 23 hvcurveto
            return
          </CharString>
          <CharString index="57">
            640 rmoveto
            223 -2 callgsubr
            -155 -131 rlineto
            return
          </CharString>
          <CharString index="58">
            6 callsubr
            86 -22 rlineto
            -357 vlineto
            -39 -21 -38 -28 callsubr
            -291 -41 vlineto
            87 -22 rlineto
            -219 vlineto
            -164 36 21 callgsubr
          </CharString>
          <CharString index="59">
            203 29 164 81 return
          </CharString>
          <CharString index="60">
            -4 callgsubr
            -84 -32 49 139 111 18 83 90 25 21 -4 -9 23 hvcurveto
            23 -91 rlineto
            49 hlineto
            19 134 rlineto
            21 -55 -48 10 -67 62 callgsubr
            return
          </CharString>
          <CharString index="61">
            36 -44 callsubr
            return
          </CharString>
          <CharString index="62">
            215 41 hlineto
            -69 22 100 194 rlineto
            129 hlineto
            14 -194 -87 -22 rlineto
            -41 420 157 -50 vlineto
            -26 -92 rlineto
            -144 hlineto
            -14 196 rlineto
            77 65 callgsubr
            -82 hlineto
            -17 237 rlineto
            142 hlineto
            22 -79 rlineto
            50 141 -416 -41 hlineto
            66 -16 -260 -493 -72 -23 rlineto
            273 270 rmoveto
            87 168 11 -168 rlineto
            endchar
          </CharString>
          <CharString index="63">
            32 28 -10 callgsubr
            38 -32 30 return
          </CharString>
          <CharString index="64">
            -93 22 rlineto
            182 vlineto
            151 305 75 callgsubr
            return
          </CharString>
          <CharString index="65">
            vlineto
            -3 callsubr
            return
          </CharString>
          <CharString index="66">
            14 552 11 rmoveto
            36 vlineto
            -77 24 rlineto
            401 -38 vlineto
            -145 -34 rlineto
            -36 vlineto
            68 -9 rlineto
            -300 vlineto
            -18 -30 -32 -13 -38 hhcurveto
            -48 -10 23 43 hvcurveto
            344 -35 vlineto
            -156 -34 rlineto
            -36 vlineto
            77 -9 rlineto
            -600 105 vlineto
            -24 218 rlineto
            -15 19 26 -6 25 hhcurveto
            48 44 26 31 32 hvcurveto
            -33 8 38 -18 37 hhcurveto
            31 32 4 11 43 hvcurveto
            endchar
          </CharString>
          <CharString index="67">
            42 callsubr
            -35 -35 -41 -40 35 -32 41 52 callsubr
            return
          </CharString>
          <CharString index="68">
            285 41 hlineto
            -80 22 rlineto
            209 29 vlineto
            45 4 -10 -262 106 hvcurveto
            171 41 hlineto
            -68 22 -86 184 2 27 -62 20 rlinecurve
            94 26 49 60 82 vvcurveto
            85 -63 66 -157 vhcurveto
            -269 -41 hlineto
            88 -30 callsubr
            -88 -22 rlineto
            205 281 rmoveto
            229 vlineto
            4 14 20 4 19 hhcurveto
            69 42 -38 -72 -75 -40 -52 -77 hvcurveto
            return
          </CharString>
          <CharString index="69">
            -38 -54 callsubr
            38 return
          </CharString>
          <CharString index="70">
            -97 40 rlineto
            -56 23 -34 28 52 vvcurveto
            63 51 25 66 22 41 -5 -6 17 vhcurveto
            22 -93 rlineto
            48 hlineto
            10 140 rlineto
            17 -54 -58 10 -58 hhcurveto
            -133 -75 -66 -113 return
          </CharString>
          <CharString index="71">
            vlineto
            -161 return
          </CharString>
          <CharString index="72">
            rmoveto
            -70 -30 75 108 119 37 76 75 32 35 -11 -17 23 hvcurveto
            -314 vlineto
            -16 -19 -41 -20 -42 hhcurveto
            return
          </CharString>
          <CharString index="73">
            -24 -30 -4 -6 -30 return
          </CharString>
          <CharString index="74">
            -105 callsubr
            188 -323 -100 callsubr
            endchar
          </CharString>
          <CharString index="75">
            rmoveto
            20 29 -154 131 -90 -32 return
          </CharString>
          <CharString index="76">
            638 rmoveto
            124 151 rlineto
            20 -86 vlineto
            -66 -150 rlineto
            return
          </CharString>
          <CharString index="77">
            -22 rlineto
            -487 vlineto
            return
          </CharString>
          <CharString index="78">
            rmoveto
            88 49 76 126 46 -8 callsubr
            68 -17 -92 -273 -103 275 50 24 rlineto
            37 -228 -37 vlineto
            53 -24 169 -407 rlineto
            -73 -30 26 callgsubr
            38 37 -9 29 hhcurveto
            endchar
          </CharString>
          <CharString index="79">
            -40 -78 hhcurveto
            -117 -17 98 119 hvcurveto
            219 0 callgsubr
            return
          </CharString>
          <CharString index="80">
            hhcurveto
            -128 -60 -59 -93 -71 33 -40 66 -23 hvcurveto
            return
          </CharString>
          <CharString index="81">
            638 rmoveto
            144 151 rlineto
            20 -86 vlineto
            -86 -150 rlineto
            189 -21 rmoveto
            144 151 rlineto
            20 -86 vlineto
            -86 -150 rlineto
            return
          </CharString>
          <CharString index="82">
            -2 360 571 rmoveto
            71 -20 -111 20 callgsubr
            65 -77 callgsubr
            return
          </CharString>
          <CharString index="83">
            36 84 -38 44 hhcurveto
            return
          </CharString>
          <CharString index="84">
            rmoveto
            -173 -67 67 callgsubr
            69 -115 171 175 69 115 139 143 -67 114 -177 hvcurveto
            4 -450 25 callsubr
          </CharString>
          <CharString index="85">
            rmoveto
            -46 callgsubr
            -41 43 callgsubr
            vlineto
            endchar
          </CharString>
          <CharString index="86">
            -41 hlineto
            87 -4 callsubr
            return
          </CharString>
          <CharString index="87">
            21 -74 rlineto
            47 hlineto
            14 119 rlineto
            20 -47 return
          </CharString>
          <CharString index="88">
            79 56 20 31 46 return
          </CharString>
          <CharString index="89">
            rmoveto
            -149 -27 146 110 105 23 150 143 149 27 -150 -105 -53 callgsubr
            hvcurveto
            endchar
          </CharString>
          <CharString index="90">
            rmoveto
            -40 -37 -35 -41 -41 37 -31 40 40 35 31 41 41 -35 35 -40 hvcurveto
            endchar
          </CharString>
          <CharString index="91">
            rmoveto
            -247 hlineto
            -16 -192 20 -20 rlineto
            108 57 -20 -69 -53 -38 -33 -51 -22 -31 4 20 29 callsubr
            -11 48 hhcurveto
            110 59 55 83 56 -23 76 -185 6 hvcurveto
            10 110 rlineto
            176 hlineto
            return
          </CharString>
          <CharString index="92">
            19 -24 -40 -47 -30 -46 -38 -38 hvcurveto
            -146 -149 14 -42 rlineto
            304 hlineto
            8 106 -51 65 callsubr
            54 63 54 vvcurveto
            87 -62 31 -87 -54 -58 -18 -21 -35 vhcurveto
            21 -47 rlineto
            21 return
          </CharString>
          <CharString index="93">
            98 -41 rlineto
            61 -26 26 -27 -50 vvcurveto
            -54 -47 -32 -74 -41 -37 9 6 -22 vhcurveto
            -17 87 rlineto
            -50 hlineto
            -14 -135 return
          </CharString>
          <CharString index="94">
            rmoveto
            95 34 callgsubr
            83 21 rlineto
            41 -236 3 callgsubr
            return
          </CharString>
          <CharString index="95">
            681 rlineto
            -74 hlineto
            -230 -681 rlineto
            return
          </CharString>
          <CharString index="96">
            32 -155 -131 return
          </CharString>
          <CharString index="97">
            62 callgsubr
            -139 63 -115 162 hvcurveto
            endchar
          </CharString>
          <CharString index="98">
            rmoveto
            170 -75 56 -93 -93 -78 -58 -168 -167 78 -58 93 93 75 56 169 vhcurveto
            -167 return
          </CharString>
          <CharString index="99">
            -23 callgsubr
            -209 -46 vlineto
            return
          </CharString>
          <CharString index="100">
            -81 25 -193 275 183 211 70 21 rlineto
            40 -205 -41 vlineto
            59 -17 -194 -216 rlineto
            211 vlineto
            74 21 rlineto
            42 -277 -41 vlineto
            86 -4 callsubr
            return
          </CharString>
          <CharString index="101">
            -45 -55 -23 -68 callsubr
            -51 callsubr
            return
          </CharString>
          <CharString index="102">
            19 callgsubr
            -17 rlineto
            0 18 33 return
          </CharString>
          <CharString index="103">
            -22 rlineto
            -55 callgsubr
            return
          </CharString>
          <CharString index="104">
            -86 -22 rlineto
            return
          </CharString>
          <CharString index="105">
            87 22 rlineto
            41 return
          </CharString>
          <CharString index="106">
            764 rmoveto
            -37 callgsubr
            -82 75 callsubr
            -29 -44 -56 -21 -68 callsubr
            36 85 -38 43 hhcurveto
            34 25 44 56 23 hvcurveto
            return
          </CharString>
          <CharString index="107">
            290 41 hlineto
            return
          </CharString>
          <CharString index="108">
            hmoveto
            -41 hlineto
            -64 -52 -28 -56 -40 vvcurveto
            -43 25 -43 74 72 33 58 0 vhcurveto
            19 callsubr
            -33 -14 20 30 43 27 56 27 29 hvcurveto
            endchar
          </CharString>
          <CharString index="109">
            87 -22 rlineto
            return
          </CharString>
          <CharString index="110">
            rmoveto
            -59 callsubr
            return
          </CharString>
          <CharString index="111">
            rmoveto
            40 -29 28 -40 -39 -31 -28 -40 -39 31 -30 39 40 29 30 39 vhcurveto
            endchar
          </CharString>
          <CharString index="112">
            28 callsubr
            -123 79 -23 -23 rlineto
            return
          </CharString>
          <CharString index="113">
            rmoveto
            -38 callgsubr
            39 callgsubr
            return
          </CharString>
          <CharString index="114">
            -202 563 -71 -13 -188 -550 -72 -23 rlineto
            -40 215 41 vlineto
            return
          </CharString>
          <CharString index="115">
            21 30 46 hvcurveto
            -4 callgsubr
            return
          </CharString>
          <CharString index="116">
            -21 32 hmoveto
            508 38 hlineto
            -217 573 rlineto
            -71 hlineto
            -129 -555 rmoveto
            145 420 142 -400 rlineto
            -20 vlineto
            endchar
          </CharString>
          <CharString index="117">
            rmoveto
            119 71 -97 -140 -127 -26 -141 -135 -31 -37 7 7 -23 hvcurveto
            485 vlineto
            3 14 19 3 29 hhcurveto
            endchar
          </CharString>
          <CharString index="118">
            30 -35 -38 -32 -30 -37 -38 32 -29 38 return
          </CharString>
          <CharString index="119">
            -3 callgsubr
            18 hhcurveto
            return
          </CharString>
          <CharString index="120">
            rlineto
            41 -290 -41 vlineto
            87 return
          </CharString>
          <CharString index="121">
            -22 -63 6 -15 rlineto
            46 -1 17 -20 -22 vvcurveto
            -26 -24 -27 -42 -10 -10 60 callsubr
            return
          </CharString>
          <CharString index="122">
            640 rmoveto
            223 -2 callgsubr
            -156 -131 rlineto
            return
          </CharString>
          <CharString index="123">
            -35 callsubr
            endchar
          </CharString>
          <CharString index="124">
            62 hhcurveto
            50 43 35 70 39 hvcurveto
            -45 25 rlineto
            -41 -26 -19 -15 -37 -59 -61 55 -65 hhcurveto
            -45 -41 -30 -71 -35 hvcurveto
            return
          </CharString>
          <CharString index="125">
            669 rmoveto
            62 callsubr
            227 -106 rlineto
            return
          </CharString>
          <CharString index="126">
            -21 20 rlineto
            -15 -18 -19 -7 -20 hhcurveto
            return
          </CharString>
          <CharString index="127">
            216 654 rmoveto
            -134 -51 -86 -107 -103 52 -88 133 132 51 88 103 107 -49 86 -134 hvcurveto
            return
          </CharString>
          <CharString index="128">
            287 hlineto
            209 83 144 175 174 -88 120 -222 hvcurveto
            -270 -41 hlineto
            2 callsubr
            return
          </CharString>
          <CharString index="129">
            746 rmoveto
            22 vlineto
            -92 -11 callsubr
            23 -29 rlineto
            return
          </CharString>
          <CharString index="130">
            64 callgsubr
            -41 return
          </CharString>
          <CharString index="131">
            -27 callsubr
            93 -32 rlineto
            49 -17 16 -13 -31 vvcurveto
            -48 -37 -23 return
          </CharString>
          <CharString index="132">
            rmoveto
            -95 -23 85 110 112 22 83 90 96 23 -83 -112 -42 callgsubr
            hvcurveto
            endchar
          </CharString>
          <CharString index="133">
            -47 24 -52 26 vhcurveto
            74 34 14 47 33 vvcurveto
            50 -46 44 -95 -104 -45 -51 -58 -52 29 -36 44 return
          </CharString>
          <CharString index="134">
            -41 rmoveto
            170 -73 56 -93 -95 -75 -58 -168 -167 75 -58 95 93 73 56 169 vhcurveto
            return
          </CharString>
          <CharString index="135">
            17 callgsubr
            -21 23 -123 -79 return
          </CharString>
          <CharString index="136">
            -56 hvcurveto
            -11 -50 rlineto
            -15 42 50 return
          </CharString>
          <CharString index="137">
            30 32 18 -25 -34 -28 -17 return
          </CharString>
          <CharString index="138">
            rmoveto
            28 23 -6 -8 18 hvcurveto
            return
          </CharString>
          <CharString index="139">
            -40 54 callgsubr
            return
          </CharString>
          <CharString index="140">
            35 -40 -40 -37 -35 -41 return
          </CharString>
          <CharString index="141">
            -21 rlineto
            -488 vlineto
            return
          </CharString>
          <CharString index="142">
            65 51 24 33 45 hvcurveto
            -34 9 40 -18 38 hhcurveto
            31 34 5 12 44 hvcurveto
            38 vlineto
            return
          </CharString>
          <CharString index="143">
            47 callsubr
            44 56 23 hvcurveto
            return
          </CharString>
          <CharString index="144">
            3 29 hhcurveto
            119 71 -97 -140 -127 -26 -141 -135 hvcurveto
            endchar
          </CharString>
          <CharString index="145">
            44 -26 vhcurveto
            -61 -33 -21 -38 return
          </CharString>
          <CharString index="146">
            43 callsubr
            -41 return
          </CharString>
          <CharString index="147">
            -33 vlineto
            -124 -29 rlineto
            -30 vlineto
            57 -8 rlineto
            -426 vlineto
            -57 -19 rlineto
            -35 return
          </CharString>
          <CharString index="148">
            12 -38 rlineto
            203 hlineto
            -126 return
          </CharString>
          <CharString index="149">
            rmoveto
            23 callsubr
            return
          </CharString>
          <CharString index="150">
            7 -152 rlineto
            49 hlineto
            19 90 rlineto
            124 -488 hlineto
            -92 -22 rlineto
            return
          </CharString>
          <CharString index="151">
            23 4 9 35 hvcurveto
            31 vlineto
            -58 21 rlineto
            return
          </CharString>
          <CharString index="152">
            -12 -13 -20 -10 -23 hhcurveto
            -30 -18 16 34 return
          </CharString>
          <CharString index="153">
            -41 vlineto
            86 -22 rlineto
            return
          </CharString>
          <CharString index="154">
            -11 callgsubr
            18 33 23 vhcurveto
            37 84 -38 44 hhcurveto
            33 25 return
          </CharString>
          <CharString index="155">
            -38 1 callgsubr
            return
          </CharString>
          <CharString index="156">
            29 callsubr
            -12 48 hhcurveto
            110 59 56 return
          </CharString>
          <CharString index="157">
            -29 -20 -35 -33 -25 15 52 35 19 28 23 19 vhcurveto
            endchar
          </CharString>
          <CharString index="158">
            404 70 -404 hlineto
            return
          </CharString>
          <CharString index="159">
            79 callsubr
            vhcurveto
            return
          </CharString>
          <CharString index="160">
            vlineto
            85 -21 rlineto
            return
          </CharString>
          <CharString index="161">
            -39 16 47 callgsubr
            -25 vhcurveto
            -37 -83 75 callsubr
            return
          </CharString>
          <CharString index="162">
            73 callgsubr
            -75 hlineto
            -229 -681 rlineto
            return
          </CharString>
          <CharString index="163">
            665 rmoveto
            21 vlineto
            -92 36 -155 -135 23 -29 rlineto
            return
          </CharString>
          <CharString index="164">
            -42 callsubr
            294 10 rmoveto
            -31 -37 7 7 -23 hvcurveto
            return
          </CharString>
          <CharString index="165">
            -27 rlineto
            -32 vlineto
            57 -8 rlineto
            -254 vlineto
            -57 -19 rlineto
            return
          </CharString>
          <CharString index="166">
            243 vlineto
            58 -43 20 -48 -42 -68 -17 -12 -26 vhcurveto
            return
          </CharString>
          <CharString index="167">
            2 5 -10 12 callsubr
            return
          </CharString>
          <CharString index="168">
            -134 23 -22 121 79 rlineto
            return
          </CharString>
          <CharString index="169">
            -154 131 -90 -32 -3 -22 return
          </CharString>
          <CharString index="170">
            rlineto
            22 vlineto
            -91 return
          </CharString>
          <CharString index="171">
            20 rlineto
            -12 -14 -20 -10 -23 hhcurveto
            -29 -18 16 34 return
          </CharString>
          <CharString index="172">
            6 -25 -54 74 callgsubr
            98 rlineto
            50 50 return
          </CharString>
          <CharString index="173">
            63 48 26 37 40 49 15 -50 -94 hvcurveto
            endchar
          </CharString>
          <CharString index="174">
            rlineto
            332 vlineto
            return
          </CharString>
          <CharString index="175">
            -61 -63 -65 -13 61 80 81 13 62 61 64 return
          </CharString>
          <CharString index="176">
            -74 21 rlineto
            210 vlineto
            191 -273 rlineto
            return
          </CharString>
          <CharString index="177">
            -4 26 hhcurveto
            147 77 99 145 159 return
          </CharString>
          <CharString index="178">
            665 rmoveto
            -40 16 47 callgsubr
            -24 vhcurveto
            return
          </CharString>
          <CharString index="179">
            vlineto
            -162 -28 rlineto
            -43 414 vlineto
            endchar
          </CharString>
          <CharString index="180">
            34 71 9 12 42 return
          </CharString>
          <CharString index="181">
            31 hvcurveto
            -97 40 rlineto
            return
          </CharString>
          <CharString index="182">
            38 -44 hhcurveto
            -33 return
          </CharString>
          <CharString index="183">
            rlineto
            -13 37 40 -10 44 hhcurveto
            88 106 49 return
          </CharString>
          <CharString index="184">
            -46 -30 79 -149 -79 -147 46 -31 return
          </CharString>
          <CharString index="185">
            -222 24 -23 93 21 14 216 rlineto
            return
          </CharString>
          <CharString index="186">
            40 34 32 40 return
          </CharString>
          <CharString index="187">
            -32 -18 vhcurveto
            -36 return
          </CharString>
        <CharString name=".notdef">
          -370 endchar
        </CharString>
        <CharString name="A">
          20 138 62 -101 callgsubr
        </CharString>
        <CharString name="AE">
          138 -39 hmoveto
          -45 callsubr
        </CharString>
        <CharString name="AEacute">
          138 315 640 -69 callgsubr
          -331 -669 rmoveto
          -45 callsubr
        </CharString>
        <CharString name="Aacute">
          20 211 640 rmoveto
          224 -2 callgsubr
          -156 -131 rlineto
          -50 -607 -101 callgsubr
        </CharString>
        <CharString name="Abreve">
          20 289 656 rmoveto
          99 20 61 67 hvcurveto
          -49 2 rlineto
          -29 -12 -33 -62 -56 -11 33 29 vhcurveto
          -50 -2 rlineto
          -67 22 -61 99 vhcurveto
          -151 -67 callsubr
          endchar
        </CharString>
        <CharString name="Acircumflex">
          20 411 36 callgsubr
          -149 -661 -101 callgsubr
        </CharString>
        <CharString name="Adieresis">
          20 251 720 rmoveto
          38 -32 30 -37 -37 -54 callsubr
          37 37 -44 callsubr
          -36 -38 -32 -30 -38 -38 32 -28 38 32 callgsubr
          -331 -658 -101 callgsubr
        </CharString>
        <CharString name="Agrave">
          20 369 639 -32 callsubr
          -2 -21 rlineto
          -5 -684 -101 callgsubr
        </CharString>
        <CharString name="Amacron">
          20 172 755 -7 callgsubr
          -267 -693 -101 callgsubr
        </CharString>
        <CharString name="Aogonek">
          20 -7 hmoveto
          216 41 hlineto
          -69 22 29 90 rlineto
          204 hlineto
          24 -72 rlineto
          2 -7 3 -14 -7 -48 -116 -55 -98 vvcurveto
          -43 26 -43 72 72 33 58 0 vhcurveto
          -21 20 rlineto
          -15 -18 -18 -8 -21 hhcurveto
          -31 -16 21 39 60 51 59 66 hvcurveto
          120 41 hlineto
          -72 22 -204 563 -72 -13 -188 -550 -72 -23 rlineto
          275 406 rmoveto
          86 -242 rlineto
          -167 hlineto
          endchar
        </CharString>
        <CharString name="Aring">
          20 287 629 rmoveto
          73 36 41 53 54 -36 43 -73 -72 -37 -43 -54 -53 37 -41 72 hvcurveto
          43 vmoveto
          -38 -5 24 27 28 5 26 38 38 6 -26 -28 -27 -6 -24 -38 hvcurveto
          -294 -672 rmoveto
          215 41 hlineto
          7 callgsubr
          -72 22 -202 563 -71 -13 -188 -550 -72 -23 rlineto
          192 164 rmoveto
          82 243 87 -243 rlineto
          endchar
        </CharString>
        <CharString name="Aringacute">
          20 258 820 -69 callgsubr
          61 -220 -54 callgsubr
          -158 -610 -101 callgsubr
        </CharString>
        <CharString name="Atilde">
          20 457 -1 callsubr
          -319 -702 -101 callgsubr
        </CharString>
        <CharString name="B">
          7 372 324 rmoveto
          84 14 55 49 78 vvcurveto
          86 -58 62 -155 vhcurveto
          -262 -21 callsubr
          -41 257 vlineto
          155 80 68 101 79 -48 58 -109 18 hvcurveto
          -97 18 rmoveto
          -35 209 hlineto
          1 7 21 6 25 hhcurveto
          58 42 -30 -69 -90 -56 -27 -62 hvcurveto
          -35 -280 rmoveto
          230 32 vlineto
          79 56 -37 -80 -85 -50 -35 -64 -18 -20 2 5 -15 hvcurveto
          endchar
        </CharString>
        <CharString name="C">
          -25 512 22 rmoveto
          -91 callsubr
          -176 84 -145 210 77 52 12 20 55 hvcurveto
          endchar
        </CharString>
        <CharString name="Cacute">
          -34 234 15 callsubr
          302 -647 rmoveto
          -91 callsubr
          -176 84 -145 210 77 52 12 20 55 hvcurveto
          endchar
        </CharString>
        <CharString name="Cacute.loclPLK">
          -25 316 -31 callsubr
          224 -637 rmoveto
          -91 callsubr
          -176 84 -145 210 77 52 12 20 55 hvcurveto
          endchar
        </CharString>
        <CharString name="Ccaron">
          -34 277 644 rmoveto
          77 -65 callsubr
          158 -787 rmoveto
          77 52 12 20 55 hvcurveto
          -91 callsubr
          -176 84 -145 210 hvcurveto
          endchar
        </CharString>
        <CharString name="Ccedilla">
          -34 512 22 rmoveto
          -91 callsubr
          -165 74 -138 182 -16 hvcurveto
          14 callsubr
          72 64 31 callgsubr
          11 36 rlineto
          75 52 13 19 54 hvcurveto
          endchar
        </CharString>
        <CharString name="Ccircumflex">
          -25 441 644 -93 callsubr
          195 -701 rmoveto
          -91 callsubr
          -176 84 -145 210 77 52 12 20 55 hvcurveto
          endchar
        </CharString>
        <CharString name="Cdotaccent">
          -25 394 -34 callgsubr
          118 -696 rmoveto
          -91 callsubr
          -176 84 -145 210 77 52 12 20 55 hvcurveto
          endchar
        </CharString>
        <CharString name="D">
          75 306 613 -75 callsubr
          endchar
        </CharString>
        <CharString name="Dcaron">
          72 272 644 rmoveto
          77 hlineto
          105 133 -21 23 -123 -79 -122 79 -23 -23 rlineto
          -128 -777 rmoveto
          21 callsubr
          -487 57 callsubr
          485 vlineto
          3 14 19 37 callsubr
        </CharString>
        <CharString name="Dcroat">
          -39 callgsubr
        </CharString>
        <CharString name="E">
          -29 380 394 -102 callsubr
          endchar
        </CharString>
        <CharString name="Eacute">
          -29 204 -50 callsubr
          -144 -669 rmoveto
          474 -68 callgsubr
          endchar
        </CharString>
        <CharString name="Ebreve">
          -29 270 -62 callsubr
          110 -262 -102 callsubr
          endchar
        </CharString>
        <CharString name="Ecaron">
          -29 258 5 callsubr
          -113 -777 rmoveto
          474 -68 callgsubr
          endchar
        </CharString>
        <CharString name="Ecircumflex">
          -29 407 644 rmoveto
          21 -63 callsubr
          -106 -134 22 -22 121 79 rlineto
          98 -329 -102 callsubr
          endchar
        </CharString>
        <CharString name="Edieresis">
          -29 239 720 -77 callsubr
          -35 -38 callsubr
          35 32 28 38 vhcurveto
          -77 -326 -102 callsubr
          endchar
        </CharString>
        <CharString name="Edotaccent">
          -29 369 718 42 callsubr
          -36 -35 -41 -40 36 -32 41 52 callsubr
          11 -324 -102 callsubr
          endchar
        </CharString>
        <CharString name="Egrave">
          -29 378 640 -32 callsubr
          -3 -22 rlineto
          -114 -746 rmoveto
          474 -68 callgsubr
          endchar
        </CharString>
        <CharString name="Emacron">
          -29 173 755 52 callgsubr
          -25 -361 -102 callsubr
          endchar
        </CharString>
        <CharString name="Eng">
          136 467 -168 rmoveto
          73 67 54 170 hvcurveto
          495 -19 callgsubr
          -236 30 callgsubr
          -319 -13 callgsubr
          84 34 callsubr
          -83 -22 rlineto
          -41 233 41 vlineto
          -85 22 rlineto
          404 vlineto
          306 -444 rlineto
          -42 vlineto
          -35 -19 -45 -53 vhcurveto
          -45 hlineto
          -6 -42 rlineto
          -19 39 41 -8 20 hhcurveto
          endchar
        </CharString>
        <CharString name="Eogonek">
          -29 430 -234 rmoveto
          71 33 58 0 hvcurveto
          19 callsubr
          -32 -15 20 30 60 40 54 14 14 hvcurveto
          48 -68 callgsubr
          -41 385 vlineto
          -64 -52 -28 -56 -40 vvcurveto
          -43 25 -43 75 vhcurveto
          endchar
        </CharString>
        <CharString name="Eth">
          -39 callgsubr
        </CharString>
        <CharString name="Euro">
          -48 220 310 rmoveto
          20 180 vlineto
          9 53 rlineto
          -186 hlineto
          146 14 56 30 65 hhcurveto
          26 17 -3 -6 19 hvcurveto
          23 -86 rlineto
          42 hlineto
          13 129 rlineto
          16 -45 -57 12 -55 hhcurveto
          -107 -104 -47 -191 -22 hvcurveto
          -77 hlineto
          -9 -53 rlineto
          82 -19 hlineto
          -15 0 -17 1 -12 vhcurveto
          -74 hlineto
          -9 -53 rlineto
          88 hlineto
          -192 25 111 -27 112 hhcurveto
          56 40 8 15 40 hvcurveto
          -9 50 rlineto
          -7 -34 -35 -5 -29 hhcurveto
          -110 -39 67 91 -13 hvcurveto
          175 hlineto
          9 53 rlineto
          -188 hlineto
          -1 12 0 17 14 vvcurveto
          endchar
        </CharString>
        <CharString name="F">
          -66 489 613 rmoveto
          -453 -41 hlineto
          89 -30 callsubr
          -88 -22 rlineto
          -41 313 44 vlineto
          -108 24 rlineto
          197 117 vlineto
          21 -69 rlineto
          47 188 -47 hlineto
          -19 -66 rlineto
          -119 233 176 hlineto
          21 -79 rlineto
          50 hlineto
          endchar
        </CharString>
        <CharString name="G">
          38 449 553 -97 callsubr
        </CharString>
        <CharString name="G_tilde.loclGUA">
          32 495 774 rmoveto
          -40 17 -27 callgsubr
          -30 -45 -51 callgsubr
          -24 callsubr
          33 26 45 55 23 hvcurveto
          -46 -221 -97 callsubr
        </CharString>
        <CharString name="Gbreve">
          32 323 656 rmoveto
          99 23 61 67 hvcurveto
          -48 2 rlineto
          -29 -13 -33 -59 -56 -14 33 29 vhcurveto
          -50 -2 rlineto
          -67 19 -61 99 vhcurveto
          126 -103 -97 callsubr
        </CharString>
        <CharString name="Gcaron">
          38 270 644 rmoveto
          76 -65 callsubr
          287 -224 -97 callsubr
        </CharString>
        <CharString name="Gcircumflex">
          38 430 644 -93 callsubr
          143 -170 -97 callsubr
        </CharString>
        <CharString name="Gcommaaccent">
          32 344 -10 rmoveto
          74 70 15 27 47 hvcurveto
          195 vlineto
          64 19 rlineto
          43 -266 -42 53 callsubr
          -160 vlineto
          -10 -26 -28 -2 -24 hhcurveto
          -144 -38 132 125 110 34 144 163 38 34 -4 -8 22 hvcurveto
          25 -98 rlineto
          50 hlineto
          12 144 rlineto
          18 -43 -79 11 -60 hhcurveto
          -234 -86 -144 -173 -174 80 -147 230 hvcurveto
          -73 -216 rmoveto
          40 -5 75 2 callgsubr
        </CharString>
        <CharString name="Gdotaccent">
          38 383 -34 callgsubr
          66 -165 -97 callsubr
        </CharString>
        <CharString name="H">
          158 36 hmoveto
          -60 callsubr
          endchar
        </CharString>
        <CharString name="Hbar">
          158 609 63 rmoveto
          328 83 52 -83 108 vlineto
          86 21 13 callsubr
          -21 rlineto
          -108 -252 108 vlineto
          86 21 13 callsubr
          -21 rlineto
          -108 -83 -52 83 -328 vlineto
          -87 -22 rlineto
          -41 290 41 vlineto
          -86 22 rlineto
          184 252 -184 -42 callsubr
          -41 290 41 vlineto
          -456 262 rmoveto
          88 252 -88 vlineto
          endchar
        </CharString>
        <CharString name="Hcircumflex">
          158 489 644 -93 callsubr
          -329 -723 rmoveto
          -60 callsubr
          endchar
        </CharString>
        <CharString name="I">
          -211 37 hmoveto
          -92 callgsubr
          endchar
        </CharString>
        <CharString name="IJ">
          117 37 hmoveto
          -92 callgsubr
          395 -191 -76 callsubr
        </CharString>
        <CharString name="Iacute">
          -211 82 -50 callsubr
          -22 -669 rmoveto
          -92 callgsubr
          endchar
        </CharString>
        <CharString name="Iacute_J.loclNLD">
          117 141 640 -69 callgsubr
          367 -29 -69 callgsubr
          -425 -669 rmoveto
          -92 callgsubr
          395 -191 -76 callsubr
        </CharString>
        <CharString name="Ibreve">
          -211 179 -62 callsubr
          -142 -656 rmoveto
          -92 callgsubr
          endchar
        </CharString>
        <CharString name="Icircumflex">
          -211 59 644 rmoveto
          121 79 124 -79 6 callgsubr
          rlineto
          1 -666 rmoveto
          -92 callgsubr
          endchar
        </CharString>
        <CharString name="Idieresis">
          -211 74 37 callgsubr
          219 hmoveto
          35 32 28 38 38 -32 30 -35 -38 callsubr
          hvcurveto
          -256 -654 rmoveto
          -92 callgsubr
          endchar
        </CharString>
        <CharString name="Idotaccent">
          -211 182 646 rmoveto
          79 callsubr
          41 -34 33 callsubr
          -40 37 -32 40 hvcurveto
          -145 -646 rmoveto
          -92 callgsubr
          endchar
        </CharString>
        <CharString name="Igrave">
          -211 284 640 -32 callsubr
          -2 -22 rlineto
          -21 -746 rmoveto
          -92 callgsubr
          endchar
        </CharString>
        <CharString name="Imacron">
          -211 64 685 rmoveto
          232 70 -232 hlineto
          -27 -755 rmoveto
          -92 callgsubr
          endchar
        </CharString>
        <CharString name="Iogonek">
          -211 231 -234 rmoveto
          61 33 42 16 9 hvcurveto
          -21 20 rlineto
          45 callsubr
          45 31 62 87 21 hvcurveto
          41 vlineto
          -87 22 rlineto
          487 vlineto
          -94 callgsubr
          -487 vlineto
          -86 -22 rlineto
          -41 198 vlineto
          -60 -36 -45 -56 -58 vvcurveto
          -43 26 -41 75 vhcurveto
          endchar
        </CharString>
        <CharString name="Itilde">
          -211 256 674 rmoveto
          33 25 45 55 23 hvcurveto
          -39 17 47 callgsubr
          -25 vhcurveto
          -37 -5 callsubr
          24 vhcurveto
          -24 callsubr
          -219 -674 rmoveto
          -92 callgsubr
          endchar
        </CharString>
        <CharString name="J">
          -243 72 -150 -76 callsubr
        </CharString>
        <CharString name="Jcircumflex">
          -243 289 644 -93 callsubr
          -93 -873 -76 callsubr
        </CharString>
        <CharString name="K">
          16 600 hmoveto
          41 vlineto
          -7 callsubr
          -41 277 42 vlineto
          69 callsubr
          endchar
        </CharString>
        <CharString name="Kcommaaccent">
          16 36 hmoveto
          277 42 hlineto
          69 callsubr
          170 41 hlineto
          -7 callsubr
          236 -267 rmoveto
          41 -5 74 2 callgsubr
        </CharString>
        <CharString name="L">
          -87 479 hmoveto
          157 -50 vlineto
          -64 callgsubr
          -41 vlineto
          endchar
        </CharString>
        <CharString name="Lacute">
          -87 107 -50 callsubr
          395 -669 rmoveto
          157 -50 vlineto
          -64 callgsubr
          -41 vlineto
          endchar
        </CharString>
        <CharString name="Lcaron">
          -87 144 644 rmoveto
          77 -65 callsubr
          -1 -777 rmoveto
          443 80 callgsubr
          -64 callgsubr
          endchar
        </CharString>
        <CharString name="Lcommaaccent">
          -87 36 hmoveto
          443 80 callgsubr
          -64 callgsubr
          185 -267 rmoveto
          41 23 callgsubr
        </CharString>
        <CharString name="Ldot">
          -87 479 hmoveto
          157 -50 vlineto
          -64 callgsubr
          -41 vlineto
          446 424 4 callsubr
        </CharString>
        <CharString name="Lslash">
          -87 36 hmoveto
          443 80 callgsubr
          -25 -92 rlineto
          -165 243 hlineto
          119 70 -30 50 -89 -53 rlineto
          175 0 callgsubr
          -290 46 callsubr
          -244 vlineto
          -91 -54 28 -49 63 36 rlineto
          -176 -42 callsubr
          endchar
        </CharString>
        <CharString name="M">
          233 253 hmoveto
          41 vlineto
          -86 22 14 396 168 -469 66 10 158 460 15 -397 -3 callsubr
          -41 284 41 vlineto
          -87 22 -20 487 86 22 rlineto
          41 -207 vlineto
          -158 -475 -162 475 rlineto
          -200 -41 hlineto
          83 -21 -18 -488 -83 -22 rlineto
          -41 vlineto
          endchar
        </CharString>
        <CharString name="N">
          136 455 613 -78 callsubr
          endchar
        </CharString>
        <CharString name="Nacute">
          136 287 -50 callsubr
          190 -56 -18 callgsubr
        </CharString>
        <CharString name="Nacute.loclPLK">
          136 353 -31 callsubr
          130 -46 -78 callsubr
          endchar
        </CharString>
        <CharString name="Ncaron">
          136 326 5 callgsubr
          293 -787 -13 callsubr
          endchar
        </CharString>
        <CharString name="Ncommaaccent">
          136 512 -10 -13 callsubr
          129 -693 rmoveto
          40 -5 75 185 -22 21 -83 -19 rlineto
          endchar
        </CharString>
        <CharString name="Ntilde">
          136 531 764 rmoveto
          -39 54 callgsubr
          -33 -25 vhcurveto
          -37 -83 75 callsubr
          -29 -44 -56 -20 36 callsubr
          -77 -151 -18 callgsubr
        </CharString>
        <CharString name="O">
          87 332 627 rmoveto
          -105 callgsubr
          endchar
        </CharString>
        <CharString name="OE">
          241 768 613 rmoveto
          -443 hlineto
          -207 -84 -130 -173 -175 86 -135 205 hvcurveto
          465 80 callgsubr
          -26 -92 rlineto
          -188 210 112 65 callgsubr
          -114 223 171 hlineto
          22 -79 rlineto
          49 hlineto
          -357 78 rmoveto
          -487 vlineto
          -7 -23 -26 -5 -33 hhcurveto
          -143 -28 146 113 108 24 144 137 35 27 -4 -8 30 hvcurveto
          endchar
        </CharString>
        <CharString name="Oacute">
          87 290 640 -69 callgsubr
          65 -42 rmoveto
          -105 callgsubr
          endchar
        </CharString>
        <CharString name="Oacute.loclPLK">
          87 329 -31 callsubr
          31 -32 rmoveto
          -105 callgsubr
          endchar
        </CharString>
        <CharString name="Obreve">
          87 328 -62 callsubr
          4 -29 rmoveto
          -105 callgsubr
          endchar
        </CharString>
        <CharString name="Ocircumflex">
          87 454 36 callgsubr
          2 -96 rmoveto
          -105 callgsubr
          endchar
        </CharString>
        <CharString name="Odieresis">
          87 291 720 rmoveto
          38 -32 30 -36 -37 -34 -30 -38 -37 34 -29 37 36 32 29 37 vhcurveto
          219 hmoveto
          38 -33 30 -35 -38 -32 -30 -38 -37 32 -29 38 35 33 29 37 vhcurveto
          -178 -93 rmoveto
          -105 callgsubr
          endchar
        </CharString>
        <CharString name="Ograve">
          87 418 640 -32 callsubr
          -2 -22 rlineto
          140 -119 rmoveto
          -105 callgsubr
          endchar
        </CharString>
        <CharString name="Ohorn">
          87 677 648 -96 callgsubr
          endchar
        </CharString>
        <CharString name="Ohungarumlaut">
          87 225 638 rmoveto
          144 151 rlineto
          20 -86 vlineto
          -87 -150 rlineto
          190 -21 rmoveto
          144 151 rlineto
          20 -86 vlineto
          -87 -150 rlineto
          -25 -668 rmoveto
          213 82 144 175 -52 callsubr
          -213 -85 -144 -173 -175 87 -144 211 hvcurveto
          4 63 -18 callsubr
        </CharString>
        <CharString name="Omacron">
          87 214 755 -7 callgsubr
          -115 -128 rmoveto
          -105 callgsubr
          endchar
        </CharString>
        <CharString name="Oslash">
          87 141 -95 -55 callsubr
        </CharString>
        <CharString name="Oslashacute">
          87 227 640 -69 callgsubr
          -63 -764 -55 callsubr
        </CharString>
        <CharString name="Otilde">
          87 495 -1 callsubr
          -163 -137 rmoveto
          -105 callgsubr
          endchar
        </CharString>
        <CharString name="P">
          -35 303 613 rmoveto
          -267 -42 hlineto
          2 callsubr
          -486 -42 callsubr
          -41 309 42 vlineto
          -106 21 rlineto
          188 vlineto
          -4 16 37 -2 11 hhcurveto
          109 111 58 135 117 -102 58 -119 hvcurveto
          -63 -317 rmoveto
          255 vlineto
          4 18 22 2 19 hhcurveto
          62 42 -46 -80 -87 -47 -52 -75 -16 -13 1 3 -12 hvcurveto
          endchar
        </CharString>
        <CharString name="Q">
          87 681 -123 rmoveto
          -4 33 rlineto
          -73 hlineto
          -28 -96 44 42 -91 hvcurveto
          167 27 71 132 155 vvcurveto
          173 -81 144 -215 -213 -84 -144 -173 -151 73 -127 152 -32 vhcurveto
          164 -101 rlineto
          -46 75 35 -8 35 hhcurveto
          37 51 17 15 25 hvcurveto
          -522 433 rmoveto
          105 24 150 142 149 28 -150 -105 -106 -24 -149 -143 -147 -29 149 106 vhcurveto
          endchar
        </CharString>
        <CharString name="R">
          10 426 hmoveto
          -90 callsubr
          endchar
        </CharString>
        <CharString name="Racute">
          10 209 15 callsubr
          241 -669 rmoveto
          -90 callsubr
          endchar
        </CharString>
        <CharString name="Rcaron">
          10 256 5 callgsubr
          -112 -777 rmoveto
          -39 callsubr
          endchar
        </CharString>
        <CharString name="Rcommaaccent">
          10 37 hmoveto
          -39 callsubr
          -14 -548 rmoveto
          41 -5 74 2 callgsubr
        </CharString>
        <CharString name="S">
          -100 42 449 -86 callgsubr
          endchar
        </CharString>
        <CharString name="Sacute">
          -100 159 -50 callsubr
          -92 -220 rmoveto
          -95 54 -48 52 -22 vhcurveto
          -14 callsubr
          rlineto
          -21 54 72 -10 54 hhcurveto
          153 77 72 111 79 -33 51 -78 31 hvcurveto
          -37 callsubr
          hvcurveto
          endchar
        </CharString>
        <CharString name="Sacute.loclPLK">
          -100 236 -31 callsubr
          -166 -210 -86 callgsubr
          endchar
        </CharString>
        <CharString name="Scaron">
          -100 207 5 callsubr
          113 -787 rmoveto
          153 77 72 111 79 -33 51 -79 74 callsubr
          -55 23 -34 28 52 vvcurveto
          63 51 25 65 23 40 -5 -6 18 vhcurveto
          22 -93 rlineto
          47 hlineto
          11 140 rlineto
          17 -55 -58 10 -57 hhcurveto
          -133 -76 -66 -113 -95 54 -48 52 -22 hvcurveto
          99 -41 rlineto
          61 -26 26 -27 -50 vvcurveto
          -54 -47 -32 -74 -41 -38 9 6 -21 vhcurveto
          -18 87 rlineto
          -49 hlineto
          -15 51 callgsubr
          55 hhcurveto
          endchar
        </CharString>
        <CharString name="Scedilla">
          -100 192 -220 rmoveto
          71 65 31 callgsubr
          11 37 rlineto
          137 7 69 70 105 vvcurveto
          79 -33 51 -78 31 vhcurveto
          -37 callsubr
          -95 54 -48 52 -22 hvcurveto
          -14 callsubr
          48 -19 63 -9 52 -2 rlinecurve
          -22 -62 -17 callgsubr
          endchar
        </CharString>
        <CharString name="Scircumflex">
          -100 361 644 -93 callsubr
          -195 -274 -86 callgsubr
          endchar
        </CharString>
        <CharString name="Scommaaccent">
          -100 213 -10 rmoveto
          153 77 72 111 79 -33 51 -78 31 hvcurveto
          -37 callsubr
          -95 54 -48 52 -22 hvcurveto
          -14 callsubr
          rlineto
          -21 54 72 -10 54 hhcurveto
          -33 -216 rmoveto
          41 23 callgsubr
        </CharString>
        <CharString name="T">
          -6 callgsubr
          endchar
        </CharString>
        <CharString name="Tbar">
          -44 446 551 rmoveto
          20 -90 rlineto
          50 hlineto
          6 152 rlineto
          -514 hlineto
          7 -152 rlineto
          49 hlineto
          19 90 rlineto
          124 -212 -167 -52 167 -224 hlineto
          -92 -22 rlineto
          -41 301 41 vlineto
          -92 22 rlineto
          224 170 52 -170 212 vlineto
          endchar
        </CharString>
        <CharString name="Tcaron">
          -44 228 5 callsubr
          -5 -777 rmoveto
          301 -35 callgsubr
          endchar
        </CharString>
        <CharString name="Thorn">
          -47 37 hmoveto
          0 callsubr
          -87 22 rlineto
          73 vlineto
          -4 14 32 -1 10 hhcurveto
          104 104 55 128 111 -90 55 -127 hvcurveto
          -47 70 hlineto
          -94 callgsubr
          -487 vlineto
          -86 -22 rlineto
          237 136 rmoveto
          -13 -11 1 3 -10 hvcurveto
          241 vlineto
          2 12 12 1 11 hhcurveto
          74 41 -41 -77 -83 -45 -47 -71 hvcurveto
          endchar
        </CharString>
        <CharString name="U">
          84 566 236 -103 callsubr
          endchar
        </CharString>
        <CharString name="Uacute">
          84 255 -50 callsubr
          334 -433 -103 callsubr
          endchar
        </CharString>
        <CharString name="Ubreve">
          84 326 -62 callsubr
          240 -420 -103 callsubr
          endchar
        </CharString>
        <CharString name="Ucircumflex">
          84 471 36 callgsubr
          219 -487 -103 callsubr
          endchar
        </CharString>
        <CharString name="Udieresis">
          84 310 720 rmoveto
          38 -32 30 -36 -37 -34 -30 -38 -38 34 -28 37 -46 callsubr
          -35 -38 -32 -30 -38 -38 32 -28 38 35 32 28 38 vhcurveto
          38 -484 -103 callsubr
          endchar
        </CharString>
        <CharString name="Ugrave">
          84 414 640 -32 callsubr
          -2 -22 rlineto
          378 -510 -103 callsubr
          endchar
        </CharString>
        <CharString name="Uhorn">
          84 689 677 -95 callgsubr
          endchar
        </CharString>
        <CharString name="Uhungarumlaut">
          84 242 -26 callsubr
          191 -423 -103 callsubr
          endchar
        </CharString>
        <CharString name="Umacron">
          84 238 755 52 callgsubr
          96 -519 -103 callsubr
          endchar
        </CharString>
        <CharString name="Uogonek">
          84 371 -234 rmoveto
          72 33 58 0 hvcurveto
          19 callsubr
          -33 -14 20 30 64 36 48 62 32 hvcurveto
          99 47 18 110 63 vvcurveto
          -45 callgsubr
          -238 -102 callgsubr
          5 14 1 3 10 vhcurveto
          -58 -44 -33 -50 -49 vvcurveto
          -43 25 -43 74 vhcurveto
          endchar
        </CharString>
        <CharString name="Uring">
          84 356 629 rmoveto
          74 35 41 53 54 -35 43 -74 -72 -37 -43 -54 -53 37 -41 72 hvcurveto
          43 vmoveto
          -38 -5 24 27 28 5 26 38 39 5 -26 -28 -27 -5 -24 -39 hvcurveto
          -22 -681 rmoveto
          -48 callsubr
          hvcurveto
          -45 callgsubr
          -238 -102 callgsubr
          vhcurveto
          endchar
        </CharString>
        <CharString name="Utilde">
          84 516 774 rmoveto
          32 callsubr
          -32 -24 vhcurveto
          -38 -5 callsubr
          24 vhcurveto
          -24 callsubr
          33 26 45 55 23 hvcurveto
          50 -538 rmoveto
          -45 callgsubr
          -238 -41 vlineto
          86 -21 rlineto
          -309 vlineto
          -111 -42 -81 -108 -119 -18 94 121 vhcurveto
          285 vlineto
          -94 callgsubr
          -285 vlineto
          -147 35 -127 205 -48 callsubr
          vhcurveto
          endchar
        </CharString>
        <CharString name="V">
          16 269 -10 rmoveto
          72 13 186 547 75 callgsubr
          -214 -41 vlineto
          69 -22 -122 -380 -4 -17 -5 17 -129 382 63 20 rlineto
          41 -257 -41 vlineto
          71 -22 rlineto
          endchar
        </CharString>
        <CharString name="W">
          209 586 613 -79 callgsubr
        </CharString>
        <CharString name="Wacute">
          209 570 22 callsubr
          240 -27 -79 callgsubr
        </CharString>
        <CharString name="Wcircumflex">
          209 386 723 -12 callgsubr
          321 -31 -79 callgsubr
        </CharString>
        <CharString name="Wdieresis">
          209 279 37 callgsubr
          218 hmoveto
          49 callgsubr
          38 -32 30 -36 -37 -54 callsubr
          37 hvcurveto
          89 -41 -79 callgsubr
        </CharString>
        <CharString name="Wgrave">
          209 447 18 callsubr
          159 -27 -79 callgsubr
        </CharString>
        <CharString name="X">
          23 225 42 rmoveto
          -70 19 119 181 117 -181 -61 -18 rlineto
          -43 263 41 vlineto
          -74 20 -163 259 157 232 68 20 rlineto
          41 -221 -43 vlineto
          71 -18 -114 -172 -110 172 67 18 rlineto
          43 -262 -41 vlineto
          67 -20 157 -248 -163 -243 -68 -20 rlineto
          -41 220 vlineto
          endchar
        </CharString>
        <CharString name="Y">
          -25 callsubr
          endchar
        </CharString>
        <CharString name="Y.loclGUA">
          103 197 -82 -49 callsubr
        </CharString>
        <CharString name="Yacute">
          -2 226 15 callsubr
          155 -98 rmoveto
          71 -20 -110 20 callgsubr
          64 -61 callsubr
        </CharString>
        <CharString name="Yacute.loclGUA">
          103 267 -50 callsubr
          -44 -751 rmoveto
          -18 85 rlineto
          -48 hlineto
          -16 -133 rlineto
          -25 58 62 -13 75 hhcurveto
          -89 callsubr
          endchar
        </CharString>
        <CharString name="Ycircumflex">
          -2 425 644 rmoveto
          21 -80 callgsubr
          121 79 rlineto
          57 -152 rmoveto
          71 -20 -110 20 callgsubr
          64 -61 callsubr
        </CharString>
        <CharString name="Ycircumflex.loclGUA">
          103 220 644 rmoveto
          121 79 125 -79 21 -81 callsubr
          rlineto
          116 -834 rmoveto
          -89 callsubr
          -38 callgsubr
          endchar
        </CharString>
        <CharString name="Ydieresis">
          -2 197 654 rmoveto
          36 31 29 38 37 -31 30 -36 -38 -33 -30 -37 -38 33 -29 38 hvcurveto
          219 hmoveto
          34 33 29 38 37 -33 30 -34 -39 -32 -30 -37 -38 32 -29 39 hvcurveto
          -274 -654 -22 callgsubr
        </CharString>
        <CharString name="Ydieresis.loclGUA">
          103 305 723 rmoveto
          37 -32 30 -36 -37 -34 -30 -37 -38 34 -29 37 36 32 -30 callgsubr
          -324 -805 rmoveto
          -18 85 rlineto
          -48 hlineto
          -16 -133 rlineto
          -25 58 62 -13 75 hhcurveto
          -89 callsubr
          endchar
        </CharString>
        <CharString name="Ygrave">
          -2 395 640 rmoveto
          20 29 -153 131 -90 -32 -3 -22 rlineto
          -27 -746 -22 callgsubr
        </CharString>
        <CharString name="Ygrave.loclGUA">
          103 429 640 rmoveto
          21 29 62 callsubr
          rlineto
          -3 -828 rmoveto
          -18 85 rlineto
          -48 hlineto
          -16 -133 rlineto
          -25 58 62 -13 75 hhcurveto
          -89 callsubr
          endchar
        </CharString>
        <CharString name="Z">
          -68 473 157 -82 callsubr
          endchar
        </CharString>
        <CharString name="Zacute">
          -68 180 -50 callsubr
          316 -512 -82 callsubr
          endchar
        </CharString>
        <CharString name="Zacute.loclPLK">
          -68 251 -31 callsubr
          250 -502 -82 callsubr
          endchar
        </CharString>
        <CharString name="Zcaron">
          -68 233 5 callgsubr
          -78 -777 rmoveto
          417 hlineto
          9 157 rlineto
          -50 hlineto
          -38 -93 rlineto
          -217 hlineto
          309 516 -5 33 rlineto
          -424 hlineto
          10 -141 rlineto
          51 hlineto
          23 78 rlineto
          210 hlineto
          -313 -517 rlineto
          endchar
        </CharString>
        <CharString name="Zdotaccent">
          -68 341 718 rmoveto
          41 -34 33 callsubr
          -40 37 -32 40 52 callsubr
          132 -561 -82 callsubr
          endchar
        </CharString>
        <CharString name="a">
          -60 232 433 -107 callgsubr
          endchar
        </CharString>
        <CharString name="aacute">
          -60 176 -50 callgsubr
          79 -154 -107 callgsubr
          endchar
        </CharString>
        <CharString name="abreve">
          -60 240 575 rmoveto
          99 25 62 66 hvcurveto
          -49 2 rlineto
          -29 -12 -32 -63 -55 -12 32 29 vhcurveto
          -49 -2 rlineto
          -66 17 -62 99 vhcurveto
          -8 -142 -107 callgsubr
          endchar
        </CharString>
        <CharString name="acircumflex">
          -60 349 -72 callsubr
          -2 -210 -107 callgsubr
          endchar
        </CharString>
        <CharString name="acute">
          -319 27 -50 callgsubr
          endchar
        </CharString>
        <CharString name="acute.case">
          -319 27 640 -69 callgsubr
          endchar
        </CharString>
        <CharString name="acute.loclPLK">
          -319 90 -31 callgsubr
          endchar
        </CharString>
        <CharString name="acute.loclPLK.case">
          -319 96 -31 callsubr
          endchar
        </CharString>
        <CharString name="acutecomb">
          -574 -228 640 -69 callgsubr
          endchar
        </CharString>
        <CharString name="adieresis">
          -60 205 -57 callgsubr
          -191 -211 -107 callgsubr
          endchar
        </CharString>
        <CharString name="ae">
          143 145 -10 -69 callsubr
        </CharString>
        <CharString name="aeacute">
          143 279 -50 callgsubr
          -111 -597 -69 callsubr
        </CharString>
        <CharString name="agrave">
          -60 323 -20 callgsubr
          -2 -21 rlineto
          135 -232 -107 callgsubr
          endchar
        </CharString>
        <CharString name="amacron">
          -60 120 677 52 callgsubr
          -120 -244 -107 callgsubr
          endchar
        </CharString>
        <CharString name="ampersand">
          25 405 52 rmoveto
          52 -52 rlineto
          162 40 hlineto
          -76 19 -75 79 24 48 12 51 5 48 rlinecurve
          76 15 rlineto
          39 -181 -40 vlineto
          40 -13 -1 -38 -5 -32 -13 -32 rlinecurve
          -54 62 -45 53 -37 42 rrcurveto
          76 45 61 40 85 vvcurveto
          77 -67 39 -87 -64 -105 -27 -110 -45 25 -53 39 -53 vhcurveto
          -67 -36 -64 -52 -101 vvcurveto
          -79 54 -79 135 82 55 22 38 43 vhcurveto
          -199 451 rmoveto
          41 22 24 41 55 11 -41 -29 -53 -37 -30 -44 -25 vhcurveto
          -27 34 -21 40 39 vvcurveto
          46 -453 rmoveto
          -72 -38 43 81 50 17 32 41 31 hvcurveto
          55 -72 71 -71 46 -52 rrcurveto
          -26 -26 -42 -16 -52 hhcurveto
          endchar
        </CharString>
        <CharString name="ampersand.001">
          25 405 56 rmoveto
          52 -56 rlineto
          162 40 hlineto
          -76 20 -75 81 24 50 12 53 5 51 rlinecurve
          76 16 rlineto
          38 -181 -39 vlineto
          40 -14 -1 -41 -5 -34 -13 -33 rlinecurve
          -54 62 -45 55 -37 46 rrcurveto
          76 47 61 41 88 vvcurveto
          81 -67 40 -87 -64 -105 -28 -114 -46 25 -56 39 -54 vhcurveto
          -67 -38 -64 -54 -104 vvcurveto
          -82 54 -81 135 82 55 24 41 43 vhcurveto
          -199 463 rmoveto
          44 22 26 41 55 11 -44 -31 -56 -37 -31 -44 -27 vhcurveto
          -27 37 -21 41 41 vvcurveto
          46 -468 rmoveto
          -72 -38 44 84 54 17 32 41 33 hvcurveto
          55 -76 71 -73 46 -53 rrcurveto
          -28 -26 -42 -17 -52 hhcurveto
          endchar
        </CharString>
        <CharString name="aogonek">
          -53 490 -156 rmoveto
          45 callsubr
          51 33 68 84 21 hvcurveto
          38 vlineto
          -82 24 rlineto
          -101 callsubr
          55 17 -23 -52 hvcurveto
          -75 vlineto
          -140 -27 rlineto
          -105 -21 -23 -71 -51 vvcurveto
          -70 42 -53 72 60 47 23 36 50 vhcurveto
          -36 9 39 -18 41 hhcurveto
          3 hlineto
          -56 -41 -36 -55 -49 vvcurveto
          -43 26 -41 74 62 32 42 16 10 vhcurveto
          -207 271 rmoveto
          -14 -22 -39 -17 -31 hhcurveto
          -36 -23 18 45 43 18 31 58 13 hvcurveto
          75 16 rlineto
          endchar
        </CharString>
        <CharString name="approxequal">
          -64 80 316 rmoveto
          39 26 21 16 28 63 59 -57 17 callsubr
          42 -178 rmoveto
          39 26 21 15 28 63 59 -56 17 callsubr
          endchar
        </CharString>
        <CharString name="aring">
          -60 350 644 rmoveto
          58 -36 48 -74 -74 -36 -48 -58 -58 36 -45 74 74 36 45 58 vhcurveto
          -110 59 rmoveto
          37 6 -27 -32 -32 -6 -24 -37 -38 -5 24 32 32 5 27 38 hvcurveto
          -8 -270 -107 callgsubr
          endchar
        </CharString>
        <CharString name="aringacute">
          -60 216 699 -69 callgsubr
          61 -220 -54 callgsubr
          -22 -118 -107 callgsubr
          endchar
        </CharString>
        <CharString name="arrowdown">
          -17 63 323 rmoveto
          214 -295 rlineto
          15 hlineto
          201 295 -34 36 -137 -161 14 302 rlineto
          -101 hlineto
          11 -304 -147 163 rlineto
          endchar
        </CharString>
        <CharString name="arrowleft">
          -17 210 305 rmoveto
          163 136 -37 34 -294 -200 rlineto
          -16 vlineto
          294 -213 36 35 -163 148 305 -12 rlineto
          102 vlineto
          endchar
        </CharString>
        <CharString name="arrowright">
          -17 220 46 rmoveto
          295 213 rlineto
          16 vlineto
          -295 200 -36 -34 162 -136 -302 14 rlineto
          -102 vlineto
          303 12 -163 -148 rlineto
          endchar
        </CharString>
        <CharString name="arrowup">
          -17 494 200 rmoveto
          -214 292 rlineto
          -17 hlineto
          -199 -292 33 -37 138 162 -14 -303 rlineto
          102 hlineto
          -12 304 147 -162 rlineto
          endchar
        </CharString>
        <CharString name="asciicircum">
          -102 30 250 rmoveto
          82 hlineto
          124 254 123 -254 rlineto
          83 hlineto
          -180 363 rlineto
          -52 hlineto
          endchar
        </CharString>
        <CharString name="asciitilde">
          -60 163 261 rmoveto
          62 52 -54 61 hhcurveto
          48 42 33 67 37 hvcurveto
          -45 25 rlineto
          -40 -25 -17 -13 -36 -55 -58 52 -62 hhcurveto
          -43 -41 -29 -68 -33 hvcurveto
          42 -24 rlineto
          36 26 19 15 26 hhcurveto
          endchar
        </CharString>
        <CharString name="asterisk">
          -227 116 421 rmoveto
          53 104 rlineto
          9 hlineto
          53 -104 77 56 -82 84 3 8 115 19 -28 91 -106 -54 -7 5 16 118 rlineto
          -93 hlineto
          18 -118 -6 -4 -108 53 -27 -91 114 -19 3 -8 -82 -84 rlineto
          endchar
        </CharString>
        <CharString name="at">
          168 139 239 rmoveto
          144 65 115 179 155 70 -99 -114 -109 -27 -62 -54 -14 -5 16 12 vhcurveto
          190 vlineto
          64 -48 21 -75 -52 -52 -17 -22 -45 vhcurveto
          15 -41 rlineto
          11 30 46 14 37 hhcurveto
          33 18 -13 -35 hvcurveto
          -42 vlineto
          -104 -26 rlineto
          -77 -20 -10 -44 -32 vvcurveto
          -50 31 -46 63 34 38 17 25 30 vhcurveto
          -26 12 32 -15 35 hhcurveto
          110 93 76 140 136 -65 150 -265 -239 -92 -158 -155 -171 89 -153 218 83 87 20 42 85 hvcurveto
          -14 44 rlineto
          -30 -87 -72 -16 -65 hhcurveto
          -133 -93 73 186 hvcurveto
          219 -32 rmoveto
          57 14 rlineto
          -87 vlineto
          -9 -18 -22 -8 -19 hhcurveto
          -26 -15 10 31 24 9 15 34 10 hvcurveto
          endchar
        </CharString>
        <CharString name="atilde">
          -60 406 683 rmoveto
          -40 16 47 callgsubr
          -24 vhcurveto
          -38 -82 75 callsubr
          -27 -45 -55 -23 -68 callsubr
          36 85 -38 43 hhcurveto
          34 25 44 56 23 hvcurveto
          -174 -250 -107 callgsubr
          endchar
        </CharString>
        <CharString name="b">
          -22 193 475 rmoveto
          255 -16 callgsubr
          -39 1 callgsubr
          81 -11 rlineto
          -624 vlineto
          -15 49 93 -12 55 hhcurveto
          202 48 133 127 174 -85 77 -138 -38 -43 -12 -14 -25 hvcurveto
          -411 vmoveto
          356 vlineto
          13 24 23 8 34 hhcurveto
          97 24 -70 -123 -130 -26 -68 -97 -35 -30 6 8 -14 hvcurveto
          endchar
        </CharString>
        <CharString name="backslash">
          -210 89 697 rmoveto
          -84 hlineto
          272 -836 rlineto
          83 hlineto
          endchar
        </CharString>
        <CharString name="bar">
          -206 234 697 rmoveto
          -100 -836 100 hlineto
          endchar
        </CharString>
        <CharString name="braceleft">
          -259 104 677 rmoveto
          21 -374 -72 -36 rlineto
          -15 vlineto
          72 -34 -21 -376 176 -35 11 36 -91 37 25 349 -86 31 86 31 -25 348 91 37 -11 38 rlineto
          endchar
        </CharString>
        <CharString name="braceright">
          -259 35 -193 rmoveto
          176 35 -21 376 72 34 rlineto
          15 vlineto
          -72 36 21 374 -176 37 -11 -38 91 -37 -25 -348 86 -31 -86 -31 25 -349 -91 -37 rlineto
          endchar
        </CharString>
        <CharString name="bracketleft">
          -259 290 -167 rmoveto
          43 vlineto
          -118 9 rlineto
          763 vlineto
          118 7 rlineto
          42 -219 -864 vlineto
          endchar
        </CharString>
        <CharString name="bracketright">
          -259 24 697 rmoveto
          -42 vlineto
          119 -7 rlineto
          -763 vlineto
          -119 -9 rlineto
          -43 219 864 vlineto
          endchar
        </CharString>
        <CharString name="breve">
          -319 123 -61 callgsubr
          endchar
        </CharString>
        <CharString name="breve.case">
          -319 125 -62 callsubr
          endchar
        </CharString>
        <CharString name="brokenbar">
          -185 234 697 rmoveto
          -100 -323 100 hlineto
          -189 vmoveto
          -100 -324 100 hlineto
          endchar
        </CharString>
        <CharString name="bullet">
          -107 379 348 rmoveto
          81 -66 64 -79 -81 -66 -64 -81 -80 66 -65 81 79 66 65 80 vhcurveto
          endchar
        </CharString>
        <CharString name="c">
          -129 256 -10 -73 callgsubr
        </CharString>
        <CharString name="cacute">
          -129 173 -49 callgsubr
          105 -597 rmoveto
          67 59 21 30 46 hvcurveto
          -47 callsubr
          -139 63 -115 162 hvcurveto
          endchar
        </CharString>
        <CharString name="cacute.loclPLK">
          -129 247 -31 callgsubr
          36 -578 -73 callgsubr
        </CharString>
        <CharString name="caron">
          -319 14 -65 callgsubr
          endchar
        </CharString>
        <CharString name="caron.case">
          -319 90 644 rmoveto
          76 -65 callsubr
          endchar
        </CharString>
        <CharString name="ccaron">
          -129 138 726 rmoveto
          -32 -22 106 -141 rlineto
          76 callgsubr
          rlineto
          4 -653 rmoveto
          67 59 21 30 46 hvcurveto
          -47 callsubr
          -139 63 -115 162 hvcurveto
          endchar
        </CharString>
        <CharString name="ccedilla">
          -129 218 60 callgsubr
          36 63 2 56 21 45 28 rlinecurve
          -47 callsubr
          -129 55 -108 137 -15 hvcurveto
          -22 -63 5 -15 rlineto
          47 -8 callgsubr
          -11 -3 callgsubr
          19 hhcurveto
          endchar
        </CharString>
        <CharString name="ccircumflex">
          -129 378 -72 callsubr
          -7 -653 -73 callgsubr
        </CharString>
        <CharString name="cdotaccent">
          -129 339 -21 callgsubr
          -83 -653 -73 callgsubr
        </CharString>
        <CharString name="cedilla">
          -319 120 -46 rmoveto
          16 52 rlineto
          -40 hlineto
          -28 -77 -17 callgsubr
          71 65 31 callgsubr
          endchar
        </CharString>
        <CharString name="cent">
          -48 250 35 rmoveto
          -122 61 119 vlineto
          59 2 54 22 44 28 -8 37 rcurveline
          -17 -45 -53 -11 -53 hhcurveto
          -100 -30 78 139 123 29 87 95 23 30 -5 -8 18 hvcurveto
          22 -94 rlineto
          59 hlineto
          10 132 -36 15 -54 13 -49 4 rlinecurve
          121 -59 -121 vlineto
          -126 -14 -85 -94 -162 vvcurveto
          -146 58 -106 136 -20 vhcurveto
          endchar
        </CharString>
        <CharString name="circumflex">
          -319 242 -72 callsubr
          endchar
        </CharString>
        <CharString name="circumflex.case">
          -319 250 644 -93 callsubr
          endchar
        </CharString>
        <CharString name="colon">
          -361 182 395 rmoveto
          41 -34 33 -42 -39 -36 -33 -41 -41 36 -32 39 42 34 32 41 vhcurveto
          -331 vmoveto
          42 -34 34 -42 -39 -36 -34 -42 -41 36 -31 39 42 34 31 41 vhcurveto
          endchar
        </CharString>
        <CharString name="comma">
          -382 74 -117 rmoveto
          91 222 -25 25 -92 -21 -15 -218 rlineto
          endchar
        </CharString>
        <CharString name="commaaccentInverted">
          -393 106 762 rmoveto
          -74 -185 20 -21 84 18 10 183 rlineto
          endchar
        </CharString>
        <CharString name="copyright">
          -79 5 453 rmoveto
          -133 109 -110 134 24 callgsubr
          vhcurveto
          35 hmoveto
          40 callgsubr
          -114 -94 96 115 vhcurveto
          306 -139 rmoveto
          -4 62 rlineto
          -30 hlineto
          -13 -43 rlineto
          -5 -17 -11 -1 -14 hhcurveto
          -66 -16 64 62 68 16 59 68 13 11 -2 -4 16 hvcurveto
          9 -48 rlineto
          30 hlineto
          8 72 rlineto
          9 -30 -33 6 -32 hhcurveto
          -107 -42 -70 -90 -92 41 -67 108 38 28 6 14 29 hvcurveto
          endchar
        </CharString>
        <CharString name="currency">
          -33 52 79 rmoveto
          47 -50 55 54 rlineto
          -23 33 40 -13 44 hhcurveto
          43 41 12 24 33 hvcurveto
          54 -53 47 50 -53 51 rlineto
          25 33 13 42 43 vvcurveto
          43 -15 40 -23 34 vhcurveto
          53 53 -48 48 -53 -53 rlineto
          24 -33 -41 14 -43 hhcurveto
          -44 -40 -14 -24 -33 hvcurveto
          -52 54 -50 -49 53 -53 rlineto
          -23 -34 -14 -40 -43 vvcurveto
          -43 14 -42 23 -33 vhcurveto
          41 118 rmoveto
          70 56 57 69 70 57 -57 -70 -69 -57 -57 -70 -69 -56 57 69 vhcurveto
          endchar
        </CharString>
        <CharString name="d">
          -11 -72 callgsubr
          -105 16 16 callsubr
        </CharString>
        <CharString name="dagger">
          -126 282 hmoveto
          -23 438 15 callgsubr
          -438 rlineto
          endchar
        </CharString>
        <CharString name="daggerdbl">
          -126 169 hmoveto
          109 hlineto
          -19 136 132 -18 rlineto
          101 vlineto
          -133 -20 25 119 -24 120 15 callgsubr
          -120 24 -119 -132 20 rlineto
          -101 vlineto
          131 18 rlineto
          endchar
        </CharString>
        <CharString name="dcaron">
          37 560 42 callgsubr
          -63 22 rlineto
          -40 hlineto
          -320 -756 rmoveto
          35 callsubr
          -82 24 rlineto
          656 -16 callgsubr
          -39 -84 callsubr
          -165 vlineto
          3 -2 -52 22 -56 hhcurveto
          -138 -80 -98 -159 -133 55 -121 115 hvcurveto
          56 73 rmoveto
          -70 -29 75 108 119 37 76 75 32 34 -11 -17 23 hvcurveto
          -314 vlineto
          -16 -18 -42 -20 -42 hhcurveto
          endchar
        </CharString>
        <CharString name="dcroat">
          -3 478 74 rmoveto
          496 61 55 -61 105 -16 callgsubr
          -18 1 callgsubr
          82 -14 rlineto
          -34 -155 -55 155 -95 vlineto
          2 -2 -54 24 -54 hhcurveto
          -138 -80 -98 -159 -133 55 -121 115 35 callsubr
          -199 47 rmoveto
          -15 -18 -42 -19 -42 hhcurveto
          -71 -29 75 108 119 37 76 77 28 38 -11 -15 22 hvcurveto
          endchar
        </CharString>
        <CharString name="degree">
          -132 379 558 rmoveto
          87 -71 72 -87 -87 -71 -72 -87 -88 71 -69 87 87 71 69 88 vhcurveto
          -158 114 rmoveto
          61 36 -51 -63 -62 -36 -50 -61 -62 -35 50 62 63 35 51 62 hvcurveto
          endchar
        </CharString>
        <CharString name="dieresis">
          -319 88 -57 callgsubr
          endchar
        </CharString>
        <CharString name="dieresis.case">
          -319 88 720 -90 callgsubr
          endchar
        </CharString>
        <CharString name="divide">
          -64 255 387 rmoveto
          35 28 28 33 35 -28 27 -35 -34 -28 -27 -35 -33 28 -28 34 hvcurveto
          -202 -118 rmoveto
          51 callsubr
          202 -242 rmoveto
          35 28 28 33 36 -28 27 -35 -34 -28 -27 -36 -33 28 -28 34 hvcurveto
          endchar
        </CharString>
        <CharString name="dollar">
          -48 229 -117 rmoveto
          58 121 hlineto
          119 14 61 64 88 vvcurveto
          86 -37 47 -67 27 vhcurveto
          -105 43 rlineto
          -55 22 -35 25 52 vvcurveto
          65 57 22 62 23 41 -4 -5 16 vhcurveto
          23 -94 rlineto
          46 hlineto
          10 131 -46 14 -49 12 -48 2 rlinecurve
          101 -59 -102 vlineto
          -111 -10 -64 -62 -100 vvcurveto
          -92 43 -40 59 -23 vhcurveto
          105 -42 rlineto
          60 -24 28 -26 -47 vvcurveto
          -56 -48 -34 -76 -41 -38 8 6 -22 vhcurveto
          -17 83 rlineto
          -49 hlineto
          -13 -123 49 -18 64 -11 56 -1 rlinecurve
          endchar
        </CharString>
        <CharString name="dotaccent">
          -319 203 -21 callgsubr
          endchar
        </CharString>
        <CharString name="dotaccent.case">
          -319 203 -34 callgsubr
          endchar
        </CharString>
        <CharString name="dotbelowcomb">
          -574 -52 -119 -100 callsubr
          endchar
        </CharString>
        <CharString name="dotlessi">
          -250 307 44 rmoveto
          -89 callgsubr
          -44 280 vlineto
          endchar
        </CharString>
        <CharString name="e">
          -96 264 -10 -103 callgsubr
        </CharString>
        <CharString name="eacute">
          -96 172 -49 callgsubr
          115 -597 -103 callgsubr
        </CharString>
        <CharString name="ebreve">
          -96 234 -61 callgsubr
          30 -585 -103 callgsubr
        </CharString>
        <CharString name="ecaron">
          -96 212 563 rmoveto
          76 callgsubr
          -114 83 -31 -22 rlineto
          158 -714 -103 callgsubr
        </CharString>
        <CharString name="ecircumflex">
          -96 137 557 rmoveto
          113 86 115 -86 -75 callgsubr
          rlineto
          158 -592 -103 callgsubr
        </CharString>
        <CharString name="edieresis">
          -96 139 577 rmoveto
          37 31 29 38 37 -31 30 -37 -37 -34 -30 -37 -38 34 -29 37 hvcurveto
          219 hmoveto
          35 33 29 38 37 -33 11 callsubr
          hvcurveto
          -94 -587 -103 callgsubr
        </CharString>
        <CharString name="edotaccent">
          -96 251 571 rmoveto
          41 34 31 41 41 -34 35 -41 -40 -37 -35 -41 -41 37 -31 40 hvcurveto
          13 -581 -103 callgsubr
        </CharString>
        <CharString name="egrave">
          -96 332 -20 callgsubr
          -2 -21 rlineto
          158 -675 -103 callgsubr
        </CharString>
        <CharString name="eight">
          -53 callsubr
        </CharString>
        <CharString name="eight.dnom">
          43 96 -94 callsubr
        </CharString>
        <CharString name="eight.numr">
          43 270 rmoveto
          -50 33 -54 114 107 56 53 73 63 26 callsubr
          -26 vhcurveto
          -61 -33 -21 -38 -49 vvcurveto
          100 240 rmoveto
          38 28 17 30 callsubr
          -29 80 callsubr
          19 -23 31 29 vvcurveto
          30 -147 rmoveto
          29 -13 rlineto
          24 -12 27 -29 -34 vvcurveto
          -41 50 callsubr
        </CharString>
        <CharString name="eight.osf">
          -53 callsubr
        </CharString>
        <CharString name="ellipsis">
          -13 37 57 rmoveto
          -37 30 -28 36 37 31 28 37 39 -31 30 -37 -36 -30 -30 -39 vhcurveto
          187 hmoveto
          -37 30 -28 35 38 31 28 37 39 -31 30 -38 -35 -30 -30 -39 vhcurveto
          187 hmoveto
          -37 29 -28 36 38 31 28 37 39 -31 30 -38 -36 -29 -30 -39 vhcurveto
          endchar
        </CharString>
        <CharString name="emacron">
          -96 129 607 rmoveto
          232 70 -232 hlineto
          135 -687 -103 callgsubr
        </CharString>
        <CharString name="emdash">
          259 832 206 rmoveto
          65 -832 -65 vlineto
          endchar
        </CharString>
        <CharString name="endash">
          145 719 206 rmoveto
          65 -719 -65 vlineto
          endchar
        </CharString>
        <CharString name="eng">
          32 403 501 rmoveto
          -64 -83 -26 -14 -30 hvcurveto
          -59 callsubr
          267 39 vlineto
          -68 25 rlineto
          350 vlineto
          8 29 35 6 43 hhcurveto
          64 16 -10 -51 hvcurveto
          -386 vlineto
          -35 -19 -45 -53 vhcurveto
          -45 hlineto
          -6 -42 rlineto
          -19 39 41 -8 20 hhcurveto
          72 68 54 170 hvcurveto
          340 vlineto
          78 -60 27 -67 vhcurveto
          endchar
        </CharString>
        <CharString name="eogonek">
          -96 338 -234 rmoveto
          61 33 42 16 10 hvcurveto
          -21 64 callsubr
          82 69 50 59 37 hvcurveto
          -8 39 rlineto
          -14 -50 -52 -9 -40 hhcurveto
          -88 -51 46 120 hvcurveto
          27 291 vlineto
          2 18 1 29 14 vvcurveto
          131 -60 59 -136 -78 callgsubr
          23 21 2 3 19 vhcurveto
          -53 -42 -36 -54 -48 vvcurveto
          -43 26 -42 74 vhcurveto
          -180 532 rmoveto
          93 4 21 48 76 hhcurveto
          57 14 -43 -66 hvcurveto
          -22 vlineto
          endchar
        </CharString>
        <CharString name="equal">
          -64 48 355 rmoveto
          51 callsubr
          -243 vmoveto
          51 callsubr
          endchar
        </CharString>
        <CharString name="estimated">
          121 162 289 rmoveto
          497 14 hlineto
          176 -140 140 -176 -174 -141 -140 -176 -174 141 -141 174 103 108 53 78 49 vhcurveto
          -61 hlineto
          -56 -50 -66 -33 -82 hhcurveto
          -75 -55 29 49 -50 hvcurveto
          -3 4 -4 7 8 vvcurveto
          159 vlineto
          2 3 1 2 vhcurveto
          366 193 rmoveto
          -149 vlineto
          -2 -1 -2 -2 vhcurveto
          -363 hlineto
          -2 -3 2 2 hvcurveto
          146 vlineto
          8 4 7 4 6 vhcurveto
          45 38 59 34 82 hhcurveto
          89 47 -29 -48 41 hvcurveto
          4 -5 3 -7 -8 vvcurveto
          endchar
        </CharString>
        <CharString name="eth">
          -33 271 -10 rmoveto
          188 56 133 145 141 -46 131 -81 96 hvcurveto
          107 61 -29 48 -117 -68 -46 42 -49 29 -39 17 rlinecurve
          -31 -42 26 -22 34 -29 31 -38 rlinecurve
          -112 -64 27 -47 119 68 23 -32 20 -38 15 -42 rlinecurve
          14 -26 -34 8 -36 hhcurveto
          -174 -66 -115 -142 -139 68 -115 172 hvcurveto
          4 61 rmoveto
          -96 -21 89 106 108 19 87 92 97 22 -87 -108 -107 -18 -88 -95 hvcurveto
          endchar
        </CharString>
        <CharString name="exclam">
          -347 149 188 rmoveto
          31 425 rlineto
          -133 hlineto
          31 -425 rlineto
          -28 -134 rmoveto
          -35 26 -27 37 35 29 27 35 36 -29 30 -35 -37 -26 -30 -36 vhcurveto
          endchar
        </CharString>
        <CharString name="exclamdown">
          -347 50 439 rmoveto
          -36 27 -28 36 36 29 28 36 35 -29 27 -36 -36 -27 -27 -35 vhcurveto
          130 -560 rmoveto
          -30 427 rlineto
          -72 hlineto
          -30 -427 rlineto
          endchar
        </CharString>
        <CharString name="f">
          -198 30 hmoveto
          316 46 hlineto
          -116 21 rlineto
          362 vlineto
          149 -9 rlineto
          72 -150 32 vlineto
          -60 callgsubr
          endchar
        </CharString>
        <CharString name="f_f">
          178 30 hmoveto
          316 46 hlineto
          -116 21 rlineto
          362 vlineto
          149 -9 rlineto
          72 -150 32 vlineto
          -60 callgsubr
          376 -42 rmoveto
          316 46 hlineto
          -116 21 rlineto
          362 vlineto
          149 -9 rlineto
          72 -150 32 vlineto
          -60 callgsubr
          endchar
        </CharString>
        <CharString name="fi">
          81 29 hmoveto
          279 39 hlineto
          -80 25 rlineto
          365 204 -365 vlineto
          -69 -23 rlineto
          -41 269 44 vlineto
          -82 20 rlineto
          434 vlineto
          -322 -7 rlineto
          33 vlineto
          78 20 53 91 20 27 -3 -4 21 vhcurveto
          16 -75 rlineto
          61 hlineto
          17 134 rlineto
          11 -19 -72 12 -46 hhcurveto
          -156 -97 -85 -144 hvcurveto
          -81 -32 rlineto
          -42 81 -363 vlineto
          -82 -25 rlineto
          endchar
        </CharString>
        <CharString name="five">
          -67 425 613 rmoveto
          -327 hlineto
          -26 -269 26 -26 rlineto
          157 82 -32 -107 -77 -58 -45 -82 -34 -37 6 25 -67 hvcurveto
          -20 -64 rlineto
          -20 53 64 -16 71 hhcurveto
          152 78 78 116 95 -31 104 -268 5 hvcurveto
          11 151 rlineto
          256 hlineto
          endchar
        </CharString>
        <CharString name="five.dnom">
          330 434 rmoveto
          -247 -5 -16 -191 20 -21 rlineto
          108 57 -20 -69 -52 -38 -33 -51 -22 -31 4 20 49 callsubr
          82 57 -23 75 -185 7 hvcurveto
          10 109 rlineto
          176 hlineto
          endchar
        </CharString>
        <CharString name="five.numr">
          330 603 -16 callsubr
          endchar
        </CharString>
        <CharString name="five.osf">
          -67 186 -100 rmoveto
          179 85 84 120 112 -75 83 -217 hvcurveto
          11 152 rlineto
          256 75 -327 hlineto
          -26 -268 26 -26 rlineto
          118 -1 114 -11 -117 vvcurveto
          -91 -68 -48 -109 -23 -26 2 7 -46 vhcurveto
          -4 -59 rlineto
          -10 45 49 -4 38 hhcurveto
          endchar
        </CharString>
        <CharString name="fiveeighths">
          436 424 55 callsubr
          -20 649 -16 callsubr
          318 -454 -94 callsubr
        </CharString>
        <CharString name="fl">
          70 29 hmoveto
          279 41 hlineto
          -80 24 rlineto
          364 vlineto
          132 -9 rlineto
          72 -132 32 vlineto
          86 24 51 80 61 25 -20 -8 12 vhcurveto
          -566 vlineto
          -75 -26 rlineto
          -41 274 42 vlineto
          -82 22 rlineto
          666 -38 vlineto
          -18 -21 rlineto
          9 -19 -51 17 -68 hhcurveto
          -141 -101 -99 -135 hvcurveto
          -81 -32 rlineto
          -42 81 -363 vlineto
          -82 -25 rlineto
          endchar
        </CharString>
        <CharString name="florin">
          -138 389 558 rmoveto
          13 -64 rlineto
          43 hlineto
          10 102 rlineto
          12 -37 -42 9 -43 hhcurveto
          -105 -64 -72 -163 -18 hvcurveto
          -87 hlineto
          -8 -49 rlineto
          88 hlineto
          -42 -341 rlineto
          -73 -9 -29 -32 -34 hhcurveto
          -25 -35 1 0 hvcurveto
          -5 -34 rlineto
          -14 30 38 -10 25 hhcurveto
          66 61 39 94 13 hvcurveto
          49 370 rlineto
          134 hlineto
          6 49 rlineto
          -134 hlineto
          119 12 26 63 60 hhcurveto
          17 13 -2 -4 13 hvcurveto
          endchar
        </CharString>
        <CharString name="four">
          -67 287 hmoveto
          107 137 10 callgsubr
        </CharString>
        <CharString name="four.dnom">
          226 hmoveto
          89 85 58 56 -58 290 hlineto
          -72 8 -232 -316 41 callsubr
          56 41 callgsubr
        </CharString>
        <CharString name="four.numr">
          226 172 rmoveto
          89 85 58 55 -58 291 hlineto
          -72 8 -232 -316 41 callsubr
          55 72 callgsubr
        </CharString>
        <CharString name="four.osf">
          -67 287 -90 rmoveto
          107 145 10 callgsubr
        </CharString>
        <CharString name="fraction">
          -304 84 -46 rmoveto
          229 -12 callsubr
          endchar
        </CharString>
        <CharString name="g">
          -61 224 -177 -99 callgsubr
        </CharString>
        <CharString name="g_tilde.loclGUA">
          -54 334 583 rmoveto
          -47 callgsubr
          -24 callsubr
          -109 -760 rmoveto
          184 91 84 79 86 -67 24 -98 hvcurveto
          -145 hlineto
          -23 -7 18 15 10 6 14 10 16 hvcurveto
          -3 7 33 -5 30 hhcurveto
          145 52 79 93 36 -14 66 callgsubr
          -30 -36 11 -52 hhcurveto
          -127 -65 -76 -94 -58 17 -57 51 -31 hvcurveto
          -33 -34 -33 -36 -36 vvcurveto
          -23 11 -27 27 -10 vhcurveto
          -54 -35 -17 -35 -30 vvcurveto
          -48 29 -50 169 vhcurveto
          27 397 rmoveto
          -58 -20 45 68 69 18 44 57 59 22 -44 -69 -68 -19 -45 -59 hvcurveto
          -22 -336 rmoveto
          -73 -22 21 38 26 12 21 20 25 hvcurveto
          162 hlineto
          41 23 -4 -37 -53 -53 -37 -110 hvcurveto
          endchar
        </CharString>
        <CharString name="gbreve">
          -45 249 575 rmoveto
          99 24 62 66 hvcurveto
          -48 2 rlineto
          -29 -13 -32 -62 -55 -12 32 29 vhcurveto
          -50 -2 rlineto
          -66 18 -62 99 vhcurveto
          -23 -752 -64 callsubr
        </CharString>
        <CharString name="gcaron">
          -61 144 -65 callgsubr
          -33 -820 -99 callgsubr
        </CharString>
        <CharString name="gcircumflex">
          -61 372 -72 callsubr
          -33 -820 -99 callgsubr
        </CharString>
        <CharString name="gcommaaccent">
          -45 218 556 rmoveto
          84 18 10 183 -40 5 -75 -185 rlineto
          29 -754 -64 callsubr
        </CharString>
        <CharString name="gdotaccent">
          -61 333 -21 callgsubr
          -109 -820 -99 callgsubr
        </CharString>
        <CharString name="germandbls">
          51 434 -10 rmoveto
          111 63 52 86 hvcurveto
          135 -195 59 63 73 102 13 89 vvcurveto
          75 -72 71 -117 -129 -86 -74 -131 vhcurveto
          -81 -32 rlineto
          -42 81 -363 vlineto
          -82 -22 rlineto
          -42 225 45 vlineto
          -27 19 rlineto
          456 vlineto
          70 17 50 77 72 11 -60 -26 vhcurveto
          -114 -99 8 -89 -109 196 -50 -97 vvcurveto
          -33 -16 -25 -48 -26 -21 5 6 -15 vhcurveto
          -19 84 rlineto
          -45 hlineto
          -12 -125 rlineto
          -15 43 34 -10 58 hhcurveto
          endchar
        </CharString>
        <CharString name="grave">
          -319 231 -20 callgsubr
          -3 -21 rlineto
          endchar
        </CharString>
        <CharString name="grave.case">
          -319 231 640 -32 callsubr
          -3 -22 rlineto
          endchar
        </CharString>
        <CharString name="gravecomb">
          -574 -24 640 -32 callsubr
          -3 -22 rlineto
          endchar
        </CharString>
        <CharString name="greater">
          -64 88 105 rmoveto
          372 198 -372 199 -38 -63 268 -136 -268 -135 rlineto
          endchar
        </CharString>
        <CharString name="greaterequal">
          -64 88 111 rmoveto
          373 192 -373 193 -36 -61 268 -132 -268 -131 rlineto
          1 -162 rmoveto
          403 70 -403 hlineto
          endchar
        </CharString>
        <CharString name="guillemotleft">
          -171 21 242 rmoveto
          138 -178 46 callgsubr
          rlineto
          167 -357 rmoveto
          46 callgsubr
          -139 -179 rlineto
          endchar
        </CharString>
        <CharString name="guillemotright">
          -171 217 242 rmoveto
          -140 179 77 callsubr
          rlineto
          167 357 rmoveto
          -45 -30 77 -149 -77 -147 45 -31 138 178 rlineto
          endchar
        </CharString>
        <CharString name="guilsinglleft">
          -331 20 242 rmoveto
          139 -178 46 callgsubr
          rlineto
          endchar
        </CharString>
        <CharString name="guilsinglright">
          -331 85 421 rmoveto
          77 callsubr
          138 178 rlineto
          endchar
        </CharString>
        <CharString name="h">
          47 605 hmoveto
          -62 callgsubr
          endchar
        </CharString>
        <CharString name="hbar">
          47 523 64 rmoveto
          332 vlineto
          77 -59 28 -67 -62 -80 -23 -17 -36 vhcurveto
          109 133 55 -133 105 -16 callgsubr
          -18 1 callgsubr
          82 -14 rlineto
          -34 -82 -55 82 -506 vlineto
          -83 -20 rlineto
          -44 268 41 vlineto
          -68 23 rlineto
          350 vlineto
          8 25 36 6 48 hhcurveto
          63 14 -12 -49 hvcurveto
          -303 vlineto
          -68 -23 rlineto
          -41 268 41 vlineto
          endchar
        </CharString>
        <CharString name="hcircumflex">
          47 284 738 -93 callsubr
          445 -817 rmoveto
          -62 callgsubr
          endchar
        </CharString>
        <CharString name="hookabovecomb">
          -574 -38 625 rmoveto
          34 -36 19 -60 -34 callsubr
          vhcurveto
          6 -53 rlineto
          37 hlineto
          7 29 rlineto
          1 10 9 1 7 hhcurveto
          24 13 -9 -15 -17 -16 -14 -47 hvcurveto
          4 -42 rlineto
          48 hlineto
          6 24 rlineto
          51 7 21 19 26 vvcurveto
          endchar
        </CharString>
        <CharString name="hungarumlaut">
          -319 -15 549 59 callgsubr
          188 -19 59 callgsubr
          endchar
        </CharString>
        <CharString name="hungarumlaut.case">
          -319 -11 -26 callsubr
          endchar
        </CharString>
        <CharString name="hyphen">
          -292 274 206 rmoveto
          65 -265 -65 vlineto
          endchar
        </CharString>
        <CharString name="i">
          -251 -28 callgsubr
          -140 -571 rmoveto
          280 44 hlineto
          -89 callgsubr
          endchar
        </CharString>
        <CharString name="i.loclTRK">
          -250 238 -21 callgsubr
          69 -599 rmoveto
          -89 callgsubr
          -44 280 vlineto
          endchar
        </CharString>
        <CharString name="iacute">
          -250 59 -49 callgsubr
          271 -543 rmoveto
          -89 callgsubr
          -44 280 vlineto
          endchar
        </CharString>
        <CharString name="iacute_j.loclNLD">
          69 83 -50 callgsubr
          344 -29 rmoveto
          224 107 rlineto
          21 vlineto
          -92 36 -155 -135 rlineto
          -74 -543 rmoveto
          -89 callgsubr
          -44 280 vlineto
          47 463 -86 callsubr
        </CharString>
        <CharString name="ibreve">
          -250 157 -61 callgsubr
          150 -531 rmoveto
          -89 callgsubr
          -44 280 vlineto
          endchar
        </CharString>
        <CharString name="icircumflex">
          -250 259 -72 callsubr
          163 -599 rmoveto
          -89 callgsubr
          -44 280 vlineto
          endchar
        </CharString>
        <CharString name="idieresis">
          -250 111 644 rmoveto
          37 -32 30 -36 -37 -34 -30 -37 -38 34 38 callgsubr
          218 hmoveto
          37 -32 11 callsubr
          35 32 29 38 vhcurveto
          -22 -600 rmoveto
          -89 callgsubr
          -44 280 vlineto
          endchar
        </CharString>
        <CharString name="igrave">
          -250 225 -20 callgsubr
          -3 -21 rlineto
          309 -621 rmoveto
          -89 callgsubr
          -44 280 vlineto
          endchar
        </CharString>
        <CharString name="ij">
          68 -28 callgsubr
          399 72 -40 callsubr
          -539 -643 rmoveto
          280 44 hlineto
          -89 callgsubr
          326 419 -86 callsubr
        </CharString>
        <CharString name="imacron">
          -250 21 677 52 callgsubr
          54 -633 rmoveto
          -89 callgsubr
          -44 280 vlineto
          endchar
        </CharString>
        <CharString name="infinity">
          137 355 350 rmoveto
          39 -30 -53 56 -79 hhcurveto
          -125 -26 -85 -58 -59 26 -86 125 79 53 57 40 30 hvcurveto
          -40 30 54 -57 81 hhcurveto
          120 28 83 62 60 -28 83 -120 -81 -54 -56 -39 -30 hvcurveto
          -240 -48 rmoveto
          30 10 47 66 60 45 -51 -26 22 vhcurveto
          -27 -23 -44 -52 -60 hhcurveto
          -66 -10 48 31 hvcurveto
          482 hmoveto
          -31 -11 -48 -67 -62 -44 52 27 -21 vhcurveto
          26 22 43 51 62 hhcurveto
          67 11 -47 -30 hvcurveto
          endchar
        </CharString>
        <CharString name="integral">
          -153 119 -134 rmoveto
          79 63 44 89 hvcurveto
          594 vlineto
          44 23 15 21 12 12 -3 -7 7 vhcurveto
          12 -64 rlineto
          44 hlineto
          15 98 rlineto
          15 -19 -56 10 -25 hhcurveto
          -79 -62 -44 -89 hvcurveto
          -594 vlineto
          -44 -23 -15 -22 -12 -11 3 6 -8 vhcurveto
          -12 64 rlineto
          -44 hlineto
          -14 -98 rlineto
          -15 19 56 -9 24 hhcurveto
          endchar
        </CharString>
        <CharString name="iogonek">
          -250 -28 callgsubr
          44 -805 rmoveto
          62 32 42 16 10 hvcurveto
          -21 20 rlineto
          45 callsubr
          45 31 62 86 21 hvcurveto
          44 vlineto
          -89 callgsubr
          -44 191 vlineto
          -62 -36 -45 -56 -58 vvcurveto
          -43 26 -41 74 vhcurveto
          endchar
        </CharString>
        <CharString name="itilde">
          -250 313 665 rmoveto
          -5 callgsubr
          -56 -23 hvcurveto
          41 -16 rlineto
          0 19 32 23 vhcurveto
          -24 callsubr
          34 25 45 56 23 hvcurveto
          -6 -621 rmoveto
          -89 callgsubr
          -44 280 vlineto
          endchar
        </CharString>
        <CharString name="j">
          -255 243 4 callgsubr
          -213 -180 -86 callsubr
        </CharString>
        <CharString name="jcircumflex">
          -255 274 -72 callsubr
          -129 -180 -86 callsubr
        </CharString>
        <CharString name="k">
          -1 280 hmoveto
          45 vlineto
          -61 19 rlineto
          666 -38 vlineto
          -162 -39 1 callgsubr
          83 -11 rlineto
          -577 vlineto
          -83 -20 rlineto
          -44 vlineto
          567 hmoveto
          45 vlineto
          -25 callgsubr
          -45 vlineto
          endchar
        </CharString>
        <CharString name="kcommaaccent">
          6 19 hmoveto
          261 45 hlineto
          -61 19 rlineto
          666 -38 vlineto
          -162 -39 1 callgsubr
          83 -11 rlineto
          -577 vlineto
          -83 -20 rlineto
          323 -44 rmoveto
          244 45 hlineto
          -25 callgsubr
          -95 -271 rmoveto
          40 -5 74 2 callgsubr
        </CharString>
        <CharString name="kgreenlandic">
          6 287 hmoveto
          45 vlineto
          -61 19 rlineto
          437 -16 callgsubr
          -37 rlineto
          -40 vlineto
          82 -10 rlineto
          -350 vlineto
          -83 -20 rlineto
          -44 vlineto
          567 hmoveto
          45 vlineto
          -25 callgsubr
          -45 vlineto
          endchar
        </CharString>
        <CharString name="l">
          -261 16 callgsubr
          endchar
        </CharString>
        <CharString name="lacute">
          -261 34 717 rmoveto
          223 107 rlineto
          21 vlineto
          -91 32 -156 -131 rlineto
          8 -746 rmoveto
          -59 callgsubr
          endchar
        </CharString>
        <CharString name="lcaron">
          -226 300 42 callgsubr
          -64 22 rlineto
          -38 hlineto
          -246 -746 rmoveto
          -59 callgsubr
          endchar
        </CharString>
        <CharString name="lcommaaccent">
          -261 18 -14 callgsubr
          86 -270 rmoveto
          40 -5 75 2 callgsubr
        </CharString>
        <CharString name="ldot">
          -261 16 callgsubr
          365 380 4 callsubr
        </CharString>
        <CharString name="less">
          -64 410 105 rmoveto
          38 63 -269 135 269 136 -38 63 -372 -199 rlineto
          endchar
        </CharString>
        <CharString name="lessequal">
          -64 421 110 rmoveto
          37 62 -269 131 269 132 -37 61 -373 -193 rlineto
          6 -293 rmoveto
          403 70 -403 hlineto
          endchar
        </CharString>
        <CharString name="logicalnot">
          -38 404 123 rmoveto
          66 216 -405 -70 339 hlineto
          endchar
        </CharString>
        <CharString name="longs">
          -198 30 hmoveto
          316 46 hlineto
          -116 21 -1 457 rlineto
          -60 callgsubr
          endchar
        </CharString>
        <CharString name="lozenge">
          -105 210 -1 rmoveto
          52 hlineto
          183 307 -183 307 rlineto
          -52 hlineto
          -184 -307 rlineto
          210 -218 rmoveto
          -125 218 125 218 123 -218 rlineto
          endchar
        </CharString>
        <CharString name="lslash">
          -259 19 hmoveto
          281 44 hlineto
          -82 20 rlineto
          301 vlineto
          108 64 -29 50 -79 -47 rlineto
          298 -16 callgsubr
          -39 -84 callsubr
          -278 vlineto
          -102 -60 29 -49 73 43 rlineto
          -233 35 callgsubr
          endchar
        </CharString>
        <CharString name="m">
          338 26 hmoveto
          264 39 hlineto
          -65 25 rlineto
          350 vlineto
          8 23 36 6 38 hhcurveto
          65 15 -12 -49 hvcurveto
          -303 vlineto
          -65 -25 rlineto
          -39 247 39 vlineto
          -65 25 rlineto
          328 vlineto
          8 0 8 -2 6 vhcurveto
          8 24 37 6 41 hhcurveto
          62 15 -13 -48 hvcurveto
          -303 vlineto
          -65 -25 rlineto
          -39 265 39 vlineto
          -83 25 67 callsubr
          77 -56 28 -70 -63 -81 -27 -17 -41 vhcurveto
          33 -24 -42 11 -41 hhcurveto
          -58 -77 -23 -17 -35 hvcurveto
          -71 callsubr
          endchar
        </CharString>
        <CharString name="macron">
          -319 11 677 -7 callgsubr
          endchar
        </CharString>
        <CharString name="macron.case">
          -319 11 755 -7 callgsubr
          endchar
        </CharString>
        <CharString name="minus">
          -64 53 269 rmoveto
          51 callsubr
          endchar
        </CharString>
        <CharString name="multiply">
          -64 122 123 rmoveto
          133 133 133 -132 49 51 -132 130 132 132 -51 50 -131 -131 -131 132 -51 -50 132 -133 -132 -131 rlineto
          endchar
        </CharString>
        <CharString name="n">
          54 226 461 3 callsubr
          267 39 vlineto
          -68 -43 callgsubr
        </CharString>
        <CharString name="nacute">
          54 230 -49 callgsubr
          18 -126 -63 callgsubr
        </CharString>
        <CharString name="nacute.loclPLK">
          54 298 -31 callgsubr
          -45 -107 3 callsubr
          267 39 vlineto
          -68 -43 callgsubr
        </CharString>
        <CharString name="napostrophe">
          26 113 42 callgsubr
          -64 22 rlineto
          -39 hlineto
          150 -285 3 callsubr
          267 39 vlineto
          -68 -43 callgsubr
        </CharString>
        <CharString name="ncaron">
          54 200 -65 callgsubr
          -88 -182 -63 callgsubr
        </CharString>
        <CharString name="ncommaaccent">
          54 26 hmoveto
          266 39 hlineto
          -67 -87 callgsubr
          -71 callsubr
          234 -265 rmoveto
          40 23 callgsubr
        </CharString>
        <CharString name="nine">
          -67 61 77 rmoveto
          -15 -60 rlineto
          -21 55 45 -8 57 hhcurveto
          149 116 79 272 144 -41 145 -176 -191 -29 -130 -76 -111 67 -76 116 42 42 10 25 54 hvcurveto
          -136 -1 -47 -80 -118 hhcurveto
          -32 -42 6 17 -51 hvcurveto
          293 267 rmoveto
          -23 -35 -41 -18 -40 hhcurveto
          -51 -42 37 97 75 38 52 61 95 15 -92 -128 hvcurveto
          endchar
        </CharString>
        <CharString name="nine.dnom">
          58 65 rmoveto
          -10 -50 76 callsubr
          198 97 -32 104 -129 -142 -23 -90 -54 -72 49 -59 88 28 30 4 12 31 hvcurveto
          -93 -7 -44 -42 -57 hhcurveto
          -21 -31 5 14 -45 hvcurveto
          207 181 rmoveto
          -15 -19 -30 -13 -23 hhcurveto
          -32 -26 25 62 49 26 37 40 49 15 -50 -95 hvcurveto
          endchar
        </CharString>
        <CharString name="nine.numr">
          58 236 rmoveto
          -10 -49 76 callsubr
          197 97 -32 104 -129 -142 -23 -89 -54 -73 49 -58 88 28 30 4 12 31 hvcurveto
          -94 -7 -44 -41 -57 hhcurveto
          -21 -31 4 14 -45 hvcurveto
          207 182 rmoveto
          -15 -19 -30 -14 -23 hhcurveto
          -32 -26 26 62 49 26 36 40 49 15 -49 -95 hvcurveto
          endchar
        </CharString>
        <CharString name="nine.osf">
          -67 160 -100 rmoveto
          144 164 78 286 132 -37 141 -187 -180 -33 -130 -77 -110 67 -76 116 41 44 10 26 55 hvcurveto
          -148 -7 -86 -73 -119 hhcurveto
          -16 -16 1 5 -30 hvcurveto
          -7 -53 rlineto
          -9 30 28 -3 29 hhcurveto
          80 312 rmoveto
          -53 -42 39 89 82 36 51 66 92 15 -96 -124 hvcurveto
          -23 -35 -42 -18 -37 hhcurveto
          endchar
        </CharString>
        <CharString name="notequal">
          -64 159 70 rmoveto
          66 112 rlineto
          232 70 -192 hlineto
          60 103 rlineto
          132 70 -92 hlineto
          46 77 -61 36 -66 -113 rlineto
          -231 -70 191 hlineto
          -60 -103 rlineto
          -131 -70 91 hlineto
          -45 -77 rlineto
          endchar
        </CharString>
        <CharString name="ntilde">
          54 479 683 rmoveto
          -40 16 47 callgsubr
          -24 vhcurveto
          -38 -83 75 callsubr
          -26 -6 callsubr
          -254 -222 -63 callgsubr
        </CharString>
        <CharString name="numbersign">
          -17 404 231 rmoveto
          27 95 rlineto
          107 hlineto
          19 69 rlineto
          -107 hlineto
          47 171 rlineto
          -73 hlineto
          -47 -171 rlineto
          -122 hlineto
          49 171 rlineto
          -74 hlineto
          -48 -171 rlineto
          -119 hlineto
          -20 -69 rlineto
          121 hlineto
          -27 -95 rlineto
          -118 hlineto
          -19 -69 rlineto
          119 hlineto
          -47 -170 rlineto
          73 hlineto
          47 170 rlineto
          122 hlineto
          -48 -170 rlineto
          73 hlineto
          48 170 rlineto
          107 hlineto
          21 69 rlineto
          -305 hmoveto
          26 95 rlineto
          123 hlineto
          -27 -95 rlineto
          endchar
        </CharString>
        <CharString name="o">
          -29 271 501 -100 callgsubr
        </CharString>
        <CharString name="oacute">
          -29 194 -50 callgsubr
          100 -86 -100 callgsubr
        </CharString>
        <CharString name="oacute.loclPLK">
          -29 257 -31 callgsubr
          41 -67 -100 callgsubr
        </CharString>
        <CharString name="obreve">
          -29 268 -61 callgsubr
          3 -74 -100 callgsubr
        </CharString>
        <CharString name="ocircumflex">
          -29 388 557 rmoveto
          -75 callgsubr
          30 -25 114 86 -26 callgsubr
          endchar
        </CharString>
        <CharString name="odieresis">
          -29 232 -57 callgsubr
          -179 -143 -100 callgsubr
        </CharString>
        <CharString name="oe">
          264 271 -10 rmoveto
          82 66 41 48 30 hvcurveto
          -49 23 71 -40 82 hhcurveto
          80 56 22 29 44 hvcurveto
          -7 39 rlineto
          -13 -47 -55 -10 -39 hhcurveto
          -105 -36 69 103 hvcurveto
          21 291 vlineto
          2 20 2 29 10 vvcurveto
          132 -67 60 -129 -62 -62 -21 -59 -41 vhcurveto
          49 -36 -60 31 -83 hhcurveto
          -173 -67 67 callgsubr
          69 -115 171 hvcurveto
          4 61 rmoveto
          -96 -22 86 109 113 21 82 91 94 23 -78 -109 2 hvcurveto
          -131 -23 -72 -90 vhcurveto
          243 247 rmoveto
          85 3 20 56 79 hhcurveto
          55 15 -47 -62 hvcurveto
          -22 vlineto
          endchar
        </CharString>
        <CharString name="ogonek">
          -319 158 1 callsubr
        </CharString>
        <CharString name="ograve">
          -29 358 -20 callgsubr
          -2 -21 rlineto
          139 -164 -100 callgsubr
        </CharString>
        <CharString name="ohorn">
          -29 562 537 -96 callsubr
          endchar
        </CharString>
        <CharString name="ohungarumlaut">
          -29 152 549 8 callgsubr
          188 -19 8 callgsubr
          -15 -67 -100 callgsubr
        </CharString>
        <CharString name="omacron">
          -29 156 677 52 callgsubr
          -117 -176 -100 callgsubr
        </CharString>
        <CharString name="one">
          -67 478 43 rmoveto
          -140 27 rlineto
          547 vlineto
          -269 -40 rlineto
          -44 157 -462 72 callsubr
        </CharString>
        <CharString name="one.dnom">
          -182 56 365 rmoveto
          114 -365 94 433 hlineto
          -208 -32 rlineto
          endchar
        </CharString>
        <CharString name="one.numr">
          -182 49 537 28 callgsubr
          endchar
        </CharString>
        <CharString name="one.osf">
          -67 478 43 rmoveto
          -140 27 rlineto
          473 vlineto
          -269 -41 rlineto
          -44 157 -387 72 callsubr
        </CharString>
        <CharString name="oneeighth">
          361 360 -46 rmoveto
          230 -12 callsubr
          -237 583 28 callgsubr
          524 -477 -94 callsubr
        </CharString>
        <CharString name="onehalf">
          336 322 -46 rmoveto
          230 -12 callsubr
          -209 582 rmoveto
          115 -364 94 432 hlineto
          -209 -31 rlineto
          614 -187 rmoveto
          42 -15 callsubr
          45 38 10 33 hhcurveto
          endchar
        </CharString>
        <CharString name="onequarter">
          336 347 -46 rmoveto
          230 -12 callsubr
          -225 582 rmoveto
          115 -364 94 433 hlineto
          -209 -32 rlineto
          653 -573 rmoveto
          91 85 57 56 -57 290 hlineto
          -74 8 -232 -316 13 -38 rlineto
          202 hlineto
          -126 56 41 callgsubr
        </CharString>
        <CharString name="ordfeminine">
          -166 181 600 rmoveto
          35 14 -20 -39 hvcurveto
          -52 vlineto
          -101 -17 rlineto
          -82 -15 -15 -55 -39 vvcurveto
          -46 33 -47 48 53 31 20 27 36 vhcurveto
          -27 5 34 -15 35 hhcurveto
          25 44 callsubr
          222 vlineto
          74 -50 18 -73 -55 -57 -12 -15 -45 vhcurveto
          13 -102 rlineto
          40 hlineto
          18 66 rlineto
          5 16 21 4 21 hhcurveto
          2 -162 rmoveto
          47 9 rlineto
          -93 vlineto
          -11 -16 -23 -9 -19 hhcurveto
          -20 -22 10 34 28 12 25 41 7 hvcurveto
          endchar
        </CharString>
        <CharString name="ordmasculine">
          -145 20 callsubr
          77 -191 rmoveto
          -80 -13 68 callsubr
          16 -62 -81 vhcurveto
          endchar
        </CharString>
        <CharString name="oslash">
          -29 127 -93 -52 callgsubr
        </CharString>
        <CharString name="oslashacute">
          -29 194 -50 callgsubr
          -44 -680 -52 callgsubr
        </CharString>
        <CharString name="otilde">
          -29 436 683 rmoveto
          -39 16 47 callgsubr
          -24 vhcurveto
          -38 -83 75 callsubr
          -26 -45 -55 -23 -11 callgsubr
          18 33 24 vhcurveto
          -24 callsubr
          33 25 44 56 23 hvcurveto
          -165 -182 -100 callgsubr
        </CharString>
        <CharString name="p">
          2 17 -168 rmoveto
          304 45 hlineto
          -105 23 rlineto
          529 vlineto
          8 25 27 4 26 hhcurveto
          112 12 -105 -88 -107 -14 -84 -116 -11 -18 2 2 -9 hvcurveto
          -13 -47 rlineto
          -10 31 27 70 callsubr
          -58 98 -195 -93 -113 -18 -19 -77 hvcurveto
          -40 vlineto
          90 -8 rlineto
          -519 vlineto
          -82 -22 rlineto
          endchar
        </CharString>
        <CharString name="paragraph">
          -35 251 228 rmoveto
          397 vlineto
          1 -9 -5 1 -11 hhcurveto
          -129 -71 -90 -110 -110 71 -91 129 11 6 0 2 8 hvcurveto
          240 -188 rmoveto
          -86 24 rlineto
          497 vlineto
          86 25 rlineto
          39 -197 -560 vlineto
          -103 -24 rlineto
          -41 300 vlineto
          endchar
        </CharString>
        <CharString name="parenleft">
          -259 165 265 rmoveto
          149 0 203 135 59 vhcurveto
          -11 38 rlineto
          -189 -56 -37 -104 -289 vvcurveto
          -287 37 -106 189 -54 vhcurveto
          11 36 rlineto
          -135 60 0 203 148 vvcurveto
          endchar
        </CharString>
        <CharString name="parenright">
          -259 151 265 rmoveto
          -148 0 -203 -137 -60 vhcurveto
          11 -36 rlineto
          189 54 36 106 287 vvcurveto
          289 -36 104 -189 56 vhcurveto
          -11 -38 rlineto
          137 -59 0 -203 -149 vvcurveto
          endchar
        </CharString>
        <CharString name="partialdiff">
          -23 57 667 rmoveto
          23 -34 rlineto
          20 48 25 7 45 hhcurveto
          139 24 -93 -139 11 hvcurveto
          2 -49 25 -72 -128 -89 -91 -140 -132 59 -102 157 108 144 58 284 270 -102 127 -171 -66 -60 -17 -45 -46 vhcurveto
          202 -616 rmoveto
          -77 -26 55 116 99 28 75 93 43 32 -17 -18 27 hvcurveto
          2 -34 1 -14 -35 vvcurveto
          -150 -35 -77 -88 vhcurveto
          endchar
        </CharString>
        <CharString name="percent">
          336 377 403 rmoveto
          169 -74 56 -94 -93 -77 -57 -168 -167 77 -58 93 94 74 56 169 vhcurveto
          4 -403 rmoveto
          224 613 rlineto
          -75 hlineto
          -224 -613 rlineto
          -96 258 rmoveto
          -48 -60 25 119 123 60 24 48 47 60 -24 -118 -121 -60 -28 -47 hvcurveto
          658 27 callsubr
          -165 -145 rmoveto
          -49 -59 27 118 122 59 25 49 47 59 -25 -118 -120 -59 -29 -47 hvcurveto
          endchar
        </CharString>
        <CharString name="period">
          -366 179 64 rmoveto
          42 -33 34 -42 -40 -36 -34 -42 -41 36 -31 40 42 33 31 41 vhcurveto
          endchar
        </CharString>
        <CharString name="periodcentered">
          -344 196 253 4 callsubr
        </CharString>
        <CharString name="perthousand">
          730 378 403 rmoveto
          169 -74 56 -94 -94 -76 -57 -168 -167 76 -58 94 94 74 56 169 vhcurveto
          4 -403 rmoveto
          223 613 rlineto
          -74 hlineto
          -224 -613 rlineto
          -97 258 rmoveto
          -48 -59 25 119 123 59 24 48 47 61 -24 -118 -121 -61 -28 -47 hvcurveto
          659 27 callsubr
          385 hmoveto
          170 -74 56 -93 -94 -75 -58 -168 -167 75 -58 94 93 74 56 169 vhcurveto
          -551 -145 rmoveto
          33 callgsubr
          385 hmoveto
          33 callgsubr
          endchar
        </CharString>
        <CharString name="pi">
          65 180 -5 rmoveto
          59 12 35 53 hvcurveto
          331 146 -254 vlineto
          -148 44 -18 77 21 41 7 19 39 vhcurveto
          -6 42 rlineto
          -45 hlineto
          -53 -21 32 48 hvcurveto
          272 30 vlineto
          62 27 42 94 hvcurveto
          16 -57 vlineto
          -40 -18 -15 -32 vhcurveto
          -371 hlineto
          -79 -39 -60 -76 hvcurveto
          44 -11 rlineto
          39 21 17 11 51 hhcurveto
          8 -340 hlineto
          -80 -24 rlineto
          -38 vlineto
          -12 44 24 -5 34 hhcurveto
          endchar
        </CharString>
        <CharString name="plus">
          25 callgsubr
          endchar
        </CharString>
        <CharString name="plusminus">
          25 callgsubr
          -167 -259 rmoveto
          51 callsubr
          endchar
        </CharString>
        <CharString name="product">
          112 37 hmoveto
          0 callsubr
          -87 22 rlineto
          487 206 -55 callgsubr
          -41 289 41 vlineto
          -86 22 rlineto
          487 vlineto
          86 22 rlineto
          41 -613 -41 vlineto
          87 -4 callsubr
          endchar
        </CharString>
        <CharString name="q">
          -24 476 -103 rmoveto
          598 -39 vlineto
          -47 -32 rlineto
          26 -47 -48 12 -50 hhcurveto
          -148 -66 -114 -143 -142 58 -112 112 78 36 23 35 47 hvcurveto
          -149 vlineto
          -95 -24 rlineto
          -43 286 43 vlineto
          -194 534 rmoveto
          -307 vlineto
          -24 -24 -38 -15 -40 hhcurveto
          -58 -41 45 151 104 36 78 73 30 30 -9 -23 32 hvcurveto
          endchar
        </CharString>
        <CharString name="question">
          -191 186 628 rmoveto
          -57 -62 -19 -19 -35 hvcurveto
          16 -124 rlineto
          50 hlineto
          20 95 rlineto
          4 15 16 2 12 hhcurveto
          50 38 -24 -56 -92 -71 -54 -83 -40 hvcurveto
          19 -120 rlineto
          53 hlineto
          9 87 rlineto
          157 71 31 75 76 vvcurveto
          77 -65 61 -113 vhcurveto
          -46 -508 rmoveto
          -36 -27 -30 -36 -35 27 -27 36 36 28 27 35 36 -28 30 -36 hvcurveto
          endchar
        </CharString>
        <CharString name="questiondown">
          -191 241 375 rmoveto
          37 27 28 36 35 -27 27 -37 -35 -28 -27 -35 -36 28 -28 35 hvcurveto
          -44 -512 rmoveto
          51 68 21 20 34 hvcurveto
          -17 123 rlineto
          -49 hlineto
          -20 -95 rlineto
          -3 -17 -14 -2 -11 hhcurveto
          -52 -37 23 55 92 71 55 83 41 hvcurveto
          -19 120 rlineto
          -52 hlineto
          -10 -87 rlineto
          -157 -71 -32 -76 -76 vvcurveto
          -76 66 -64 114 vhcurveto
          endchar
        </CharString>
        <CharString name="quotedbl">
          -246 37 700 rmoveto
          35 -232 rlineto
          34 hlineto
          35 232 rlineto
          48 hmoveto
          35 -232 rlineto
          32 hlineto
          35 232 rlineto
          endchar
        </CharString>
        <CharString name="quotedblbase">
          -220 66 78 callgsubr
          -13 -209 rlineto
          210 -7 rmoveto
          87 213 -21 24 -89 -21 -14 -209 rlineto
          endchar
        </CharString>
        <CharString name="quotedblleft">
          -231 106 675 rmoveto
          -90 78 callsubr
          123 8 rmoveto
          -89 78 callsubr
          endchar
        </CharString>
        <CharString name="quotedblright">
          -231 70 55 callgsubr
          206 -8 rmoveto
          90 221 -24 24 -93 -21 -14 -216 rlineto
          endchar
        </CharString>
        <CharString name="quoteleft">
          -391 110 675 rmoveto
          -90 -222 23 -23 94 21 14 216 rlineto
          endchar
        </CharString>
        <CharString name="quoteright">
          -391 73 55 callgsubr
          endchar
        </CharString>
        <CharString name="quotesinglbase">
          -380 75 78 callgsubr
          -14 -209 rlineto
          endchar
        </CharString>
        <CharString name="quotesingle">
          -388 41 700 rmoveto
          34 -232 rlineto
          35 hlineto
          35 232 rlineto
          endchar
        </CharString>
        <CharString name="r">
          -157 305 424 -87 callsubr
          endchar
        </CharString>
        <CharString name="racute">
          -157 152 -49 callgsubr
          176 -163 -87 callsubr
          endchar
        </CharString>
        <CharString name="radical">
          -71 513 694 rmoveto
          97 18 -1 44 rlineto
          -153 hlineto
          -185 -627 -103 363 rlineto
          -161 -44 hlineto
          59 -19 146 -443 82 9 rlineto
          endchar
        </CharString>
        <CharString name="rcaron">
          -157 108 726 rmoveto
          -31 -22 105 -141 rlineto
          77 hlineto
          106 141 -30 22 -114 -83 rlineto
          84 -219 -87 callsubr
          endchar
        </CharString>
        <CharString name="rcommaaccent">
          -157 26 hmoveto
          314 43 hlineto
          -115 21 rlineto
          343 vlineto
          11 23 29 6 28 hhcurveto
          21 -88 rlineto
          59 hlineto
          18 167 rlineto
          1 -7 -12 0 -9 hhcurveto
          -47 -59 -20 -29 -45 hvcurveto
          46 -42 vlineto
          -156 53 callgsubr
          -12 rlineto
          -348 vlineto
          -82 -22 rlineto
          98 -268 rmoveto
          40 23 callgsubr
        </CharString>
        <CharString name="registered">
          -79 248 210 rmoveto
          24 callgsubr
          -133 109 -110 134 hvcurveto
          32 vmoveto
          -114 -94 96 115 40 callgsubr
          hvcurveto
          -127 64 rmoveto
          132 21 hlineto
          -35 8 rlineto
          106 6 vlineto
          24 2 -1 -134 53 hvcurveto
          89 21 hlineto
          -28 8 -31 59 -19 39 -4 12 -19 8 rlinecurve
          48 15 16 37 32 vvcurveto
          35 -27 40 -78 vhcurveto
          -129 -22 hlineto
          34 -8 rlineto
          -247 vlineto
          -34 -8 rlineto
          97 140 rmoveto
          116 vlineto
          2 7 5 0 4 hhcurveto
          37 16 -23 -31 -37 -16 -27 -33 hvcurveto
          endchar
        </CharString>
        <CharString name="ring">
          -319 238 639 rmoveto
          58 -36 47 -75 -73 -37 -47 -58 -58 37 69 callgsubr
          37 6 -26 -32 -33 -6 -24 -37 -37 -5 24 33 32 5 26 37 hvcurveto
          endchar
        </CharString>
        <CharString name="ring.case">
          -319 127 629 -54 callgsubr
          endchar
        </CharString>
        <CharString name="s">
          -134 231 440 -85 callgsubr
          endchar
        </CharString>
        <CharString name="sacute">
          -129 141 -49 callgsubr
          117 -147 31 callsubr
          20 -74 rlineto
          47 hlineto
          15 119 rlineto
          20 -47 -55 10 -47 hhcurveto
          -128 -60 -59 -93 -71 33 -40 65 -23 hvcurveto
          94 -32 rlineto
          49 -17 16 -13 -31 vvcurveto
          -48 -37 -23 -64 -35 -24 6 6 -18 vhcurveto
          -21 83 rlineto
          -49 hlineto
          -12 -131 rlineto
          -16 46 67 -9 47 hhcurveto
          129 71 61 94 75 -30 38 -74 24 hvcurveto
          -100 33 rlineto
          -41 14 -14 18 33 vvcurveto
          38 33 22 55 vhcurveto
          endchar
        </CharString>
        <CharString name="sacute.loclPLK">
          -134 204 -31 callgsubr
          54 -128 -85 callgsubr
          endchar
        </CharString>
        <CharString name="scaron">
          -128 188 557 rmoveto
          76 callgsubr
          -113 83 -32 -22 rlineto
          128 -708 rmoveto
          129 71 61 90 81 -33 36 -73 24 hvcurveto
          -100 33 rlineto
          -41 14 -14 18 33 vvcurveto
          38 33 22 55 28 23 -6 -8 18 vhcurveto
          -20 callsubr
          -55 10 -47 -27 callsubr
          92 -32 rlineto
          50 -17 17 -14 -35 vvcurveto
          -42 -36 -24 -64 -35 -24 6 6 -18 vhcurveto
          -21 83 rlineto
          -49 hlineto
          -13 -131 rlineto
          -16 47 67 -9 47 hhcurveto
          endchar
        </CharString>
        <CharString name="scedilla">
          -129 185 60 callgsubr
          37 rlineto
          114 7 61 59 88 vvcurveto
          75 -29 38 -75 24 vhcurveto
          -99 33 rlineto
          -42 14 -14 18 33 vvcurveto
          38 33 22 55 28 23 -6 -8 18 vhcurveto
          -15 callgsubr
          42 -14 56 -9 46 -1 rlinecurve
          -22 -62 11 callgsubr
          -11 -3 callgsubr
          19 hhcurveto
          endchar
        </CharString>
        <CharString name="scircumflex">
          -134 335 -72 callsubr
          11 -203 -85 callgsubr
          endchar
        </CharString>
        <CharString name="scommaaccent">
          -129 234 440 31 callsubr
          -15 callgsubr
          rlineto
          -16 47 66 -9 47 hhcurveto
          130 70 61 94 75 -29 38 -75 24 hvcurveto
          -99 33 rlineto
          -42 14 -14 18 33 vvcurveto
          38 33 22 55 vhcurveto
          -27 -671 58 callgsubr
        </CharString>
        <CharString name="section">
          -199 261 589 rmoveto
          20 -86 rlineto
          47 hlineto
          14 128 rlineto
          0 -56 22 -82 -88 -66 -41 -72 -76 61 -23 218 -230 vhcurveto
          6 11 6 15 32 94 -208 117 63 vvcurveto
          46 38 7 40 19 20 -3 -4 11 vhcurveto
          -173 -447 rmoveto
          -45 hlineto
          -13 -130 rlineto
          0 61 -20 83 93 63 43 71 67 -62 25 -219 232 vhcurveto
          -9 -16 -3 -14 -22 -98 208 -109 -64 vvcurveto
          -46 -38 -14 -43 -23 -18 6 4 -14 vhcurveto
          endchar
        </CharString>
        <CharString name="semicolon">
          -379 172 395 rmoveto
          41 -34 33 -41 -40 -36 -33 -41 -41 36 -32 40 41 34 32 41 vhcurveto
          -99 -512 rmoveto
          91 222 -25 25 -93 -21 -14 -218 rlineto
          endchar
        </CharString>
        <CharString name="seven">
          -67 45 457 rmoveto
          59 hlineto
          20 78 rlineto
          261 hlineto
          -257 -534 114 -13 233 570 -17 55 rlineto
          -420 hlineto
          endchar
        </CharString>
        <CharString name="seven.dnom">
          43 324 18 callgsubr
        </CharString>
        <CharString name="seven.numr">
          43 497 22 callgsubr
          endchar
        </CharString>
        <CharString name="seven.osf">
          -67 45 370 rmoveto
          59 hlineto
          20 79 rlineto
          268 hlineto
          -119 -177 -93 -181 -51 -182 113 -12 rcurveline
          42 197 76 186 121 191 -16 55 rcurveline
          -427 hlineto
          endchar
        </CharString>
        <CharString name="seveneighths">
          389 371 -46 rmoveto
          229 -12 callsubr
          -253 543 22 callgsubr
          565 -507 -94 callsubr
        </CharString>
        <CharString name="six">
          -40 callgsubr
        </CharString>
        <CharString name="six.dnom">
          138 249 rmoveto
          91 17 61 52 54 hhcurveto
          8 23 -2 -4 29 hvcurveto
          6 43 rlineto
          7 29 callgsubr
          -82 129 45 callgsubr
          -31 -5 -11 -27 hvcurveto
          -6 -89 rmoveto
          28 18 34 25 34 hhcurveto
          40 11 -37 -48 -49 -23 -37 -51 -47 -13 52 66 -3 hvcurveto
          endchar
        </CharString>
        <CharString name="six.numr">
          196 162 rmoveto
          45 callgsubr
          -33 -9 -17 -26 hvcurveto
          109 13 66 43 54 hhcurveto
          8 23 -1 -5 29 hvcurveto
          6 44 rlineto
          6 29 callgsubr
          -81 129 hvcurveto
          -1 50 rmoveto
          -47 -13 51 66 -3 hvcurveto
          28 18 34 26 34 hhcurveto
          40 11 -38 -47 -50 -23 -36 -51 hvcurveto
          endchar
        </CharString>
        <CharString name="six.osf">
          -40 callgsubr
        </CharString>
        <CharString name="slash">
          -210 360 697 rmoveto
          -85 hlineto
          -270 -836 rlineto
          82 hlineto
          endchar
        </CharString>
        <CharString name="space">
          -393 endchar
        </CharString>
        <CharString name="sterling">
          -48 238 169 rmoveto
          94 181 vlineto
          9 54 rlineto
          -189 42 hlineto
          116 7 86 82 18 20 -3 -6 18 vhcurveto
          21 -91 rlineto
          49 hlineto
          10 133 rlineto
          15 -44 -53 12 -58 hhcurveto
          -139 -41 -100 -204 hvcurveto
          -91 hlineto
          -9 -54 rlineto
          100 -95 hlineto
          -83 -94 -40 0 vhcurveto
          13 -45 rlineto
          417 hlineto
          31 106 -26 16 -50 -52 -266 -11 41 22 42 37 1 51 rlinecurve
          endchar
        </CharString>
        <CharString name="summation">
          -52 424 458 rmoveto
          51 158 -470 -45 hlineto
          228 -318 -232 -314 rlineto
          -30 484 182 -51 vlineto
          -25 -91 rlineto
          -281 hlineto
          206 271 rlineto
          10 vlineto
          -193 272 rlineto
          259 hlineto
          endchar
        </CharString>
        <CharString name="t">
          -224 322 12 rmoveto
          -56 callsubr
          -39 14 -40 72 73 callsubr
          vhcurveto
          endchar
        </CharString>
        <CharString name="tbar">
          -224 336 420 rmoveto
          72 -131 111 -53 vlineto
          -53 -100 -82 -33 rlineto
          -43 72 -121 -59 -52 59 -184 vlineto
          -39 14 -40 72 73 callsubr
          vhcurveto
          42 vlineto
          -117 22 rlineto
          178 115 52 -115 122 vlineto
          endchar
        </CharString>
        <CharString name="tcaron">
          -224 254 746 rmoveto
          37 -223 rlineto
          34 hlineto
          32 201 -63 22 rlineto
          32 -734 rmoveto
          -56 callsubr
          -39 14 -40 72 73 callsubr
          vhcurveto
          endchar
        </CharString>
        <CharString name="thorn">
          -20 -3 -168 rmoveto
          303 45 hlineto
          -106 23 rlineto
          529 vlineto
          7 20 28 5 29 hhcurveto
          115 10 -105 -88 -107 -14 -84 -116 -10 -19 2 2 -9 hvcurveto
          -12 -47 rlineto
          -10 31 26 70 callsubr
          -59 98 -190 -26 -27 -1 -3 -27 hvcurveto
          233 -37 vlineto
          -160 -39 -84 callsubr
          -744 vlineto
          -82 -22 rlineto
          endchar
        </CharString>
        <CharString name="three">
          -67 244 628 rmoveto
          -72 -82 -23 -31 -49 hvcurveto
          25 -54 rlineto
          27 57 54 9 31 hhcurveto
          64 61 callgsubr
          82 93 -11 -110 -83 -62 -35 -74 -33 -41 7 23 -68 hvcurveto
          -17 -62 rlineto
          -20 53 67 -15 65 hhcurveto
          151 79 62 123 83 -56 61 -90 17 70 callgsubr
          vhcurveto
          endchar
        </CharString>
        <CharString name="three.dnom">
          202 440 -67 callgsubr
        </CharString>
        <CharString name="three.numr">
          202 611 -33 callgsubr
          endchar
        </CharString>
        <CharString name="three.osf">
          -67 178 -100 rmoveto
          166 95 69 118 90 -53 51 -86 16 70 callgsubr
          -72 -82 -23 -31 -49 vhcurveto
          25 -54 rlineto
          27 57 53 9 33 hhcurveto
          63 61 callgsubr
          94 -1 74 -10 -102 vvcurveto
          -92 -69 -35 -104 -34 -15 3 5 -48 vhcurveto
          -4 -59 rlineto
          -10 47 44 -3 42 hhcurveto
          endchar
        </CharString>
        <CharString name="threeeighths">
          424 421 -46 rmoveto
          229 -12 callsubr
          -144 657 -33 callgsubr
          435 -515 -94 callsubr
        </CharString>
        <CharString name="threequarters">
          373 397 73 callgsubr
          -75 hlineto
          -230 -681 rlineto
          -124 657 rmoveto
          -53 -53 -18 -23 -37 hvcurveto
          19 -46 rlineto
          23 46 35 12 18 hhcurveto
          38 17 -21 -31 -44 -28 -40 -78 -9 hvcurveto
          3 -42 rlineto
          58 64 -8 -69 -54 -36 -27 -53 -18 -30 6 18 -57 hvcurveto
          -11 -48 rlineto
          -15 40 51 -12 47 hhcurveto
          108 59 44 88 52 -35 42 -61 15 hvcurveto
          44 22 32 40 49 vvcurveto
          65 -58 31 -71 vhcurveto
          541 -611 rmoveto
          90 85 58 56 -58 290 hlineto
          -74 8 -232 -316 13 -38 rlineto
          203 hlineto
          -127 56 rmoveto
          127 172 rlineto
          -172 vlineto
          endchar
        </CharString>
        <CharString name="tilde">
          -319 292 683 rmoveto
          -36 callgsubr
          -24 callsubr
          33 26 44 56 23 hvcurveto
          endchar
        </CharString>
        <CharString name="tilde.case">
          -319 292 764 -91 callgsubr
          endchar
        </CharString>
        <CharString name="tildecomb">
          -574 37 764 -91 callgsubr
          endchar
        </CharString>
        <CharString name="trademark">
          285 81 279 rmoveto
          182 26 hlineto
          -53 13 rlineto
          284 73 vlineto
          14 -49 rlineto
          36 hlineto
          3 93 rlineto
          -327 hlineto
          3 -93 rlineto
          36 hlineto
          14 50 rlineto
          72 -285 hlineto
          -53 -13 rlineto
          460 -33 rmoveto
          56 7 94 274 10 -235 -48 -13 rlineto
          -26 176 26 vlineto
          -51 13 -12 289 50 12 rlineto
          27 -141 vlineto
          -92 -266 -94 266 rlineto
          -143 -27 hlineto
          47 -12 -12 -289 -46 -13 rlineto
          -26 146 26 vlineto
          -50 13 7 230 rlineto
          endchar
        </CharString>
        <CharString name="two">
          -67 36 hmoveto
          418 hlineto
          14 160 rlineto
          -52 hlineto
          -39 -81 -248 -8 174 156 rlineto
          85 81 53 68 89 vvcurveto
          122 -89 41 -114 -79 -69 -26 -27 -53 vhcurveto
          26 -58 rlineto
          19 48 42 17 51 hhcurveto
          77 36 -42 -56 -63 -33 -60 -55 -53 hvcurveto
          -214 -216 rlineto
          endchar
        </CharString>
        <CharString name="two.dnom">
          184 386 rmoveto
          41 -15 callsubr
          46 37 10 34 hhcurveto
          endchar
        </CharString>
        <CharString name="two.numr">
          190 558 -24 callgsubr
          endchar
        </CharString>
        <CharString name="two.osf">
          -69 414 160 rmoveto
          -39 -81 -229 -8 134 94 rlineto
          105 73 54 45 92 vvcurveto
          120 -91 42 -108 -84 -66 -25 -28 -55 vhcurveto
          26 -58 rlineto
          22 54 40 14 45 hhcurveto
          81 34 -42 -58 -55 -33 -36 -52 -41 hvcurveto
          -216 -170 20 -60 rlineto
          418 hlineto
          14 160 rlineto
          endchar
        </CharString>
        <CharString name="u">
          38 589 12 rmoveto
          38 vlineto
          -83 24 rlineto
          427 -38 vlineto
          -161 -104 callsubr
          endchar
        </CharString>
        <CharString name="uacute">
          40 212 558 rmoveto
          224 107 rlineto
          21 vlineto
          -91 36 -156 -135 rlineto
          399 -575 -98 callgsubr
        </CharString>
        <CharString name="ubreve">
          38 301 -61 callgsubr
          288 -563 rmoveto
          38 vlineto
          -83 24 rlineto
          427 -38 vlineto
          -161 -104 callsubr
          endchar
        </CharString>
        <CharString name="ucircumflex">
          40 407 -72 callsubr
          296 -631 -98 callgsubr
        </CharString>
        <CharString name="udieresis">
          40 254 644 rmoveto
          37 -31 30 -37 -37 -34 -30 -37 -38 34 -29 37 37 31 -30 callgsubr
          115 -632 -98 callgsubr
        </CharString>
        <CharString name="ugrave">
          40 377 -20 callgsubr
          -2 -21 rlineto
          437 -653 -98 callgsubr
        </CharString>
        <CharString name="uhorn">
          38 659 565 -98 callsubr
          endchar
        </CharString>
        <CharString name="uhungarumlaut">
          40 169 549 8 callgsubr
          188 -19 8 callgsubr
          285 -556 -98 callgsubr
        </CharString>
        <CharString name="umacron">
          40 186 677 -7 callgsubr
          169 -665 -98 callgsubr
        </CharString>
        <CharString name="underscore">
          -133 441 -72 rmoveto
          54 -441 -54 vlineto
          endchar
        </CharString>
        <CharString name="uni00A0">
          -386 endchar
        </CharString>
        <CharString name="uni00AD">
          -292 274 206 rmoveto
          56 -265 -56 vlineto
          endchar
        </CharString>
        <CharString name="uni00B2">
          184 665 rmoveto
          38 22 -26 -40 -47 -29 -46 -39 -39 hvcurveto
          -146 -148 14 -41 rlineto
          304 hlineto
          8 105 -51 6 -25 -53 rlineto
          -145 hlineto
          101 98 rlineto
          52 50 54 63 53 vvcurveto
          88 -67 31 -82 -54 -56 -18 -21 -36 vhcurveto
          20 -47 rlineto
          21 46 37 11 34 hhcurveto
          endchar
        </CharString>
        <CharString name="uni00B3">
          202 719 rmoveto
          -54 -53 -19 -23 -37 hvcurveto
          19 -46 rlineto
          21 46 35 13 19 hhcurveto
          37 18 -20 -32 -42 -28 -41 -79 -8 hvcurveto
          3 -45 rlineto
          58 65 -6 -70 -53 -37 -26 -52 -19 -30 4 20 -57 hvcurveto
          -11 -48 rlineto
          -16 40 51 -13 48 hhcurveto
          107 59 46 86 52 -35 43 -60 16 hvcurveto
          43 21 32 40 49 vvcurveto
          65 -58 32 -70 vhcurveto
          endchar
        </CharString>
        <CharString name="uni00B5">
          -41 callsubr
        </CharString>
        <CharString name="uni00B9">
          57 643 rmoveto
          114 -362 94 432 hlineto
          -208 -31 rlineto
          endchar
        </CharString>
        <CharString name="uni0162">
          -44 236 -220 rmoveto
          72 64 31 callgsubr
          15 46 rlineto
          131 -35 callgsubr
          -41 129 vlineto
          -25 -71 5 -15 rlineto
          46 -1 17 -20 -22 vvcurveto
          -26 -24 -27 -41 -11 -9 2 5 -11 12 callsubr
          endchar
        </CharString>
        <CharString name="uni0163">
          -224 158 -220 rmoveto
          72 64 31 callgsubr
          12 38 36 3 52 8 34 9 rlinecurve
          -56 callsubr
          -36 12 -37 57 -5 vhcurveto
          14 callsubr
          endchar
        </CharString>
        <CharString name="uni018F">
          77 317 -9 rmoveto
          203 97 125 192 175 -80 145 -225 -85 -76 -21 -32 -65 hvcurveto
          8 -132 rlineto
          48 hlineto
          25 86 rlineto
          25 50 49 10 40 hhcurveto
          134 45 -111 -120 5 hvcurveto
          -456 -26 hlineto
          -212 98 -104 185 vhcurveto
          7 63 rmoveto
          -102 -54 71 152 -7 hvcurveto
          329 hlineto
          -102 -5 -28 -121 -133 hhcurveto
          endchar
        </CharString>
        <CharString name="uni019D">
          136 455 613 rmoveto
          30 callgsubr
          -319 -13 callgsubr
          84 -21 rlineto
          -570 vlineto
          -35 -19 -45 -53 vhcurveto
          -45 hlineto
          -6 -42 rlineto
          -19 34 34 -8 21 hhcurveto
          48 51 42 132 hvcurveto
          461 vlineto
          329 -477 94 10 rlineto
          551 -19 callgsubr
          vlineto
          endchar
        </CharString>
        <CharString name="uni01C4">
          574 858 644 rmoveto
          76 -65 callsubr
          -444 -164 rmoveto
          -270 -21 callsubr
          -41 287 vlineto
          209 83 144 175 174 -88 120 -222 hvcurveto
          809 -456 -82 callsubr
          -804 556 10 callsubr
        </CharString>
        <CharString name="uni01C5">
          541 766 -65 callgsubr
          -573 -30 -75 callsubr
          637 -130 -83 callsubr
          endchar
        </CharString>
        <CharString name="uni01C6">
          462 -72 callgsubr
          325 679 rmoveto
          -31 -22 106 -141 rlineto
          77 hlineto
          105 141 -29 22 -115 -83 rlineto
          60 -217 -83 callsubr
          -431 -363 16 callsubr
        </CharString>
        <CharString name="uni01C7">
          244 479 hmoveto
          157 -50 vlineto
          -64 callgsubr
          -41 vlineto
          523 -150 -76 callsubr
        </CharString>
        <CharString name="uni01C8">
          232 730 4 callgsubr
          -251 -643 rmoveto
          157 -50 vlineto
          -64 callgsubr
          -41 vlineto
          481 463 -86 callsubr
        </CharString>
        <CharString name="uni01C9">
          58 16 callgsubr
          540 599 -40 callsubr
          -213 -180 -86 callsubr
        </CharString>
        <CharString name="uni01CA">
          467 455 613 -78 callsubr
          91 -763 -76 callsubr
        </CharString>
        <CharString name="uni01CB">
          455 953 4 callgsubr
          -498 -30 -78 callsubr
          49 -150 -86 callsubr
        </CharString>
        <CharString name="uni01CC">
          373 871 4 callgsubr
          -645 -182 3 callsubr
          267 39 vlineto
          -68 -87 callgsubr
          432 2 -86 callsubr
        </CharString>
        <CharString name="uni01CD">
          20 260 644 rmoveto
          76 -65 callsubr
          -14 -715 -101 callgsubr
        </CharString>
        <CharString name="uni01CE">
          -60 142 -65 callgsubr
          -23 -210 -107 callgsubr
          endchar
        </CharString>
        <CharString name="uni01CF">
          -211 145 644 rmoveto
          76 -65 callsubr
          -777 vmoveto
          -92 callgsubr
          endchar
        </CharString>
        <CharString name="uni01D0">
          -250 49 -65 callgsubr
          145 -599 rmoveto
          -89 callgsubr
          -44 280 vlineto
          endchar
        </CharString>
        <CharString name="uni01D1">
          87 294 644 rmoveto
          76 -65 callsubr
          146 -150 rmoveto
          -105 callgsubr
          endchar
        </CharString>
        <CharString name="uni01D2">
          -29 160 726 rmoveto
          -31 -22 106 -141 rlineto
          77 hlineto
          105 141 -29 22 -115 -83 -26 callgsubr
          endchar
        </CharString>
        <CharString name="uni01D3">
          84 292 644 rmoveto
          76 -65 callsubr
          382 -541 -103 callsubr
          endchar
        </CharString>
        <CharString name="uni01D4">
          38 193 -65 callgsubr
          283 -631 rmoveto
          38 vlineto
          -83 24 rlineto
          427 -38 vlineto
          -161 -104 callsubr
          endchar
        </CharString>
        <CharString name="uni01D5">
          84 214 930 -7 callgsubr
          -158 -210 -90 callgsubr
          59 -484 -103 callsubr
          endchar
        </CharString>
        <CharString name="uni01D6">
          38 191 809 -7 callgsubr
          -158 -210 -90 callgsubr
          105 -587 rmoveto
          38 vlineto
          -83 24 rlineto
          427 -38 vlineto
          -161 -104 callsubr
          endchar
        </CharString>
        <CharString name="uni01D7">
          84 290 815 -69 callgsubr
          22 -124 -90 callgsubr
          59 -484 -103 callsubr
          endchar
        </CharString>
        <CharString name="uni01D8">
          38 267 694 -69 callgsubr
          22 -124 -90 callgsubr
          105 -587 rmoveto
          38 vlineto
          -83 24 rlineto
          427 -38 vlineto
          -161 -104 callsubr
          endchar
        </CharString>
        <CharString name="uni01D9">
          84 294 819 rmoveto
          76 -65 callsubr
          103 -232 -90 callgsubr
          59 -484 -103 callsubr
          endchar
        </CharString>
        <CharString name="uni01DA">
          38 271 698 rmoveto
          76 -65 callsubr
          103 -232 -90 callgsubr
          105 -587 rmoveto
          38 vlineto
          -83 24 rlineto
          427 -38 vlineto
          -161 -104 callsubr
          endchar
        </CharString>
        <CharString name="uni01DB">
          84 371 815 -32 callsubr
          -3 -22 rlineto
          145 -201 -90 callgsubr
          59 -484 -103 callsubr
          endchar
        </CharString>
        <CharString name="uni01DC">
          38 348 694 -32 callsubr
          -3 -22 rlineto
          145 -201 -90 callgsubr
          105 -587 rmoveto
          38 vlineto
          -83 24 rlineto
          427 -38 vlineto
          -161 -104 callsubr
          endchar
        </CharString>
        <CharString name="uni01EA">
          87 504 -139 rmoveto
          -34 -14 20 31 43 23 55 38 34 hvcurveto
          77 58 33 98 110 vvcurveto
          -52 callsubr
          -213 -85 -144 -173 -175 87 -144 211 37 33 4 9 30 vhcurveto
          -38 -41 -16 -41 -33 vvcurveto
          -41 26 -43 70 64 32 40 18 11 vhcurveto
          -20 20 rlineto
          -15 -19 -18 -7 -20 hhcurveto
          -344 449 rmoveto
          105 23 150 143 149 27 -150 -105 -53 callgsubr
          -149 -27 146 110 vhcurveto
          endchar
        </CharString>
        <CharString name="uni01EB">
          -29 419 -143 rmoveto
          -33 -14 20 30 43 29 64 35 28 hvcurveto
          55 47 24 73 82 vvcurveto
          143 -67 114 -177 -173 -67 67 callgsubr
          69 -115 171 28 25 3 5 22 vhcurveto
          -37 -40 -16 -40 -31 vvcurveto
          -43 24 -43 75 72 33 58 0 vhcurveto
          19 callsubr
          -262 389 rmoveto
          112 22 83 90 96 23 -83 -112 -42 callgsubr
          -95 -23 85 110 vhcurveto
          endchar
        </CharString>
        <CharString name="uni01F1">
          574 306 613 rmoveto
          -270 -21 callsubr
          -41 287 vlineto
          209 83 144 175 174 -88 120 -222 hvcurveto
          809 -456 -82 callsubr
          -804 556 10 callsubr
        </CharString>
        <CharString name="uni01F2">
          541 306 613 -75 callsubr
          637 -130 -83 callsubr
          endchar
        </CharString>
        <CharString name="uni01F3">
          462 -72 callgsubr
          498 379 -83 callsubr
          -431 -363 16 callsubr
        </CharString>
        <CharString name="uni01F4">
          38 266 640 -69 callgsubr
          206 -116 -97 callsubr
        </CharString>
        <CharString name="uni01F5">
          -61 178 -50 callgsubr
          69 -764 -99 callgsubr
        </CharString>
        <CharString name="uni0200">
          20 217 -66 callsubr
          -96 -727 -101 callgsubr
        </CharString>
        <CharString name="uni0201">
          -60 191 -66 callgsubr
          31 -274 -107 callgsubr
          endchar
        </CharString>
        <CharString name="uni0202">
          20 298 -70 callgsubr
          -160 -732 -101 callgsubr
        </CharString>
        <CharString name="uni0203">
          -60 258 -70 callsubr
          -26 -282 -107 callgsubr
          endchar
        </CharString>
        <CharString name="uni0204">
          -29 193 -66 callsubr
          170 -395 -102 callsubr
          endchar
        </CharString>
        <CharString name="uni0205">
          -96 175 -66 callgsubr
          79 -717 -103 callgsubr
        </CharString>
        <CharString name="uni0206">
          -29 274 -70 callgsubr
          106 -400 -102 callsubr
          endchar
        </CharString>
        <CharString name="uni0207">
          -96 242 -70 callsubr
          22 -725 -103 callgsubr
        </CharString>
        <CharString name="uni0208">
          -211 102 -66 callsubr
          -82 -789 rmoveto
          -92 callgsubr
          endchar
        </CharString>
        <CharString name="uni0209">
          -250 98 -66 callgsubr
          199 -663 rmoveto
          -89 callgsubr
          -44 280 vlineto
          endchar
        </CharString>
        <CharString name="uni020A">
          -211 183 -70 callgsubr
          -146 -794 rmoveto
          -92 callgsubr
          endchar
        </CharString>
        <CharString name="uni020B">
          -250 165 -70 callsubr
          142 -671 rmoveto
          -89 callgsubr
          -44 280 vlineto
          endchar
        </CharString>
        <CharString name="uni020C">
          87 251 -66 callsubr
          64 -162 rmoveto
          -105 callgsubr
          endchar
        </CharString>
        <CharString name="uni020D">
          -29 209 -66 callgsubr
          52 -206 -100 callgsubr
        </CharString>
        <CharString name="uni020E">
          87 332 -70 callgsubr
          -167 vmoveto
          -105 callgsubr
          endchar
        </CharString>
        <CharString name="uni020F">
          -29 276 -70 callsubr
          -5 -214 -100 callgsubr
        </CharString>
        <CharString name="uni0210">
          10 212 -66 callsubr
          197 -789 rmoveto
          -90 callsubr
          endchar
        </CharString>
        <CharString name="uni0211">
          -157 145 -66 callgsubr
          150 -283 -87 callsubr
          endchar
        </CharString>
        <CharString name="uni0212">
          10 293 -70 callgsubr
          133 -794 rmoveto
          -90 callsubr
          endchar
        </CharString>
        <CharString name="uni0213">
          -157 212 -70 callsubr
          93 -291 -87 callsubr
          endchar
        </CharString>
        <CharString name="uni0214">
          84 249 -66 callsubr
          300 -553 -103 callsubr
          endchar
        </CharString>
        <CharString name="uni0215">
          38 242 -66 callgsubr
          337 -695 rmoveto
          38 vlineto
          -83 24 rlineto
          427 -38 vlineto
          -161 -104 callsubr
          endchar
        </CharString>
        <CharString name="uni0216">
          84 330 -70 callgsubr
          236 -558 -103 callsubr
          endchar
        </CharString>
        <CharString name="uni0217">
          38 309 -70 callsubr
          280 -703 rmoveto
          38 vlineto
          -83 24 rlineto
          427 -38 vlineto
          -161 -104 callsubr
          endchar
        </CharString>
        <CharString name="uni021A">
          -44 115 hmoveto
          301 -35 callgsubr
          94 -267 rmoveto
          41 -5 74 2 callgsubr
        </CharString>
        <CharString name="uni021B">
          -224 179 -9 rmoveto
          73 callsubr
          hvcurveto
          -56 callsubr
          -39 14 -40 72 vhcurveto
          -44 -217 rmoveto
          40 -5 75 2 callgsubr
        </CharString>
        <CharString name="uni0232">
          -2 170 755 -7 callgsubr
          -43 -184 rmoveto
          71 -20 -111 20 callgsubr
          65 -61 callsubr
        </CharString>
        <CharString name="uni0232.loclGUA">
          103 222 755 -7 callgsubr
          -258 -837 -49 callsubr
        </CharString>
        <CharString name="uni0233">
          -78 131 677 -7 callgsubr
          -144 -185 -58 callsubr
          endchar
        </CharString>
        <CharString name="uni0233.loclGUA">
          12 177 677 -7 callgsubr
          -14 -582 -93 callgsubr
        </CharString>
        <CharString name="uni0237">
          -255 30 463 -86 callsubr
        </CharString>
        <CharString name="uni0259">
          -96 214 502 rmoveto
          -79 -56 -20 -31 -46 hvcurveto
          8 -39 rlineto
          14 50 52 9 40 hhcurveto
          88 51 -46 -120 hvcurveto
          -27 -291 vlineto
          -2 -18 -1 -29 -14 vvcurveto
          -131 60 -59 136 128 96 71 186 145 -59 109 -175 vhcurveto
          106 -308 rmoveto
          -93 -4 -21 -48 -76 hhcurveto
          -57 -14 43 66 hvcurveto
          22 vlineto
          endchar
        </CharString>
        <CharString name="uni0272">
          54 530 64 rmoveto
          332 vlineto
          78 -60 27 -67 -64 -83 -26 -14 -30 vhcurveto
          40 -16 callgsubr
          -37 rlineto
          -40 vlineto
          82 -10 rlineto
          -433 vlineto
          -35 -19 -45 -53 vhcurveto
          -45 hlineto
          -6 -42 rlineto
          -19 39 41 -8 20 hhcurveto
          73 67 54 170 hvcurveto
          358 vlineto
          8 29 35 6 43 hhcurveto
          64 16 -10 -51 hvcurveto
          -303 vlineto
          -68 -25 rlineto
          -39 268 39 vlineto
          endchar
        </CharString>
        <CharString name="uni02B0">
          -100 400 333 rmoveto
          59 callsubr
          201 40 callsubr
          202 35 vlineto
          -45 19 rlineto
          252 vlineto
          7 16 28 3 31 hhcurveto
          42 68 callgsubr
          203 35 vlineto
          endchar
        </CharString>
        <CharString name="uni02BC">
          -319 113 42 callgsubr
          -64 22 rlineto
          -39 hlineto
          endchar
        </CharString>
        <CharString name="uni02C9">
          -319 11 666 rmoveto
          -69 233 69 vlineto
          endchar
        </CharString>
        <CharString name="uni02E1">
          -328 230 314 rmoveto
          -57 19 rlineto
          493 40 callsubr
          214 vlineto
          endchar
        </CharString>
        <CharString name="uni02E2">
          -224 180 603 rmoveto
          21 15 -4 -6 10 hvcurveto
          16 -56 rlineto
          41 hlineto
          10 97 rlineto
          13 -32 -42 7 -38 hhcurveto
          -100 -40 -46 -65 -61 25 -27 45 -17 hvcurveto
          72 -28 rlineto
          31 -11 11 -12 -21 vvcurveto
          -36 -25 -8 -39 -25 -18 4 5 -13 vhcurveto
          -17 61 rlineto
          -38 hlineto
          -10 -101 rlineto
          -13 34 49 -8 37 hhcurveto
          98 53 53 63 61 -29 24 -50 19 hvcurveto
          -73 28 rlineto
          -26 9 -10 12 20 vvcurveto
          28 19 16 38 vhcurveto
          endchar
        </CharString>
        <CharString name="uni0302">
          -574 -5 644 -93 callsubr
          endchar
        </CharString>
        <CharString name="uni0304">
          -574 -244 755 -7 callgsubr
          endchar
        </CharString>
        <CharString name="uni0306">
          -574 -130 -62 callsubr
          endchar
        </CharString>
        <CharString name="uni0307">
          -574 -52 -34 callgsubr
          endchar
        </CharString>
        <CharString name="uni0308">
          -574 -167 720 -90 callgsubr
          endchar
        </CharString>
        <CharString name="uni030A">
          -574 -128 629 -54 callgsubr
          endchar
        </CharString>
        <CharString name="uni030B">
          -574 -266 -26 callsubr
          endchar
        </CharString>
        <CharString name="uni030C">
          -574 -165 644 rmoveto
          76 -65 callsubr
          endchar
        </CharString>
        <CharString name="uni030F">
          -574 -146 -66 callgsubr
          endchar
        </CharString>
        <CharString name="uni030F.case">
          -574 -150 -66 callsubr
          endchar
        </CharString>
        <CharString name="uni0311">
          -574 -124 -70 callsubr
          endchar
        </CharString>
        <CharString name="uni0311.case">
          -574 -126 -70 callgsubr
          endchar
        </CharString>
        <CharString name="uni031B">
          -574 -168 530 rmoveto
          -6 -13 rlineto
          3 -13 2 -16 -12 vvcurveto
          -44 -25 -9 -35 vhcurveto
          -40 -49 14 hlineto
          86 92 41 72 15 -4 24 -9 18 hvcurveto
          endchar
        </CharString>
        <CharString name="uni0326">
          -574 -145 -231 58 callgsubr
        </CharString>
        <CharString name="uni0327">
          -574 -135 -46 rmoveto
          16 52 rlineto
          -40 hlineto
          -28 -77 -17 callgsubr
          71 65 31 callgsubr
          endchar
        </CharString>
        <CharString name="uni0328">
          -574 -97 1 callsubr
        </CharString>
        <CharString name="uni0394">
          9 callsubr
        </CharString>
        <CharString name="uni03A9">
          -44 callgsubr
        </CharString>
        <CharString name="uni03BC">
          -41 callsubr
        </CharString>
        <CharString name="uni1E0C">
          75 306 613 -75 callsubr
          99 -675 -100 callsubr
          endchar
        </CharString>
        <CharString name="uni1E0D">
          -11 -72 callgsubr
          -105 16 -35 callsubr
          101 -182 -100 callsubr
          endchar
        </CharString>
        <CharString name="uni1E24">
          158 36 hmoveto
          -60 callsubr
          406 -160 -100 callsubr
          endchar
        </CharString>
        <CharString name="uni1E25">
          47 605 hmoveto
          -62 callgsubr
          50 -119 -100 callsubr
          endchar
        </CharString>
        <CharString name="uni1E44">
          136 431 -34 callgsubr
          24 -105 -78 callsubr
          endchar
        </CharString>
        <CharString name="uni1E45">
          54 390 -21 callgsubr
          -164 -182 3 callsubr
          267 39 vlineto
          -68 -43 callgsubr
        </CharString>
        <CharString name="uni1E5A">
          10 426 hmoveto
          -90 callsubr
          79 -441 -100 callsubr
          endchar
        </CharString>
        <CharString name="uni1E5B">
          -157 305 424 -87 callsubr
          -62 -543 -100 callsubr
          endchar
        </CharString>
        <CharString name="uni1E62">
          -100 42 449 -86 callgsubr
          272 -568 -100 callsubr
          endchar
        </CharString>
        <CharString name="uni1E63">
          -134 231 440 -85 callgsubr
          65 -559 -100 callsubr
          endchar
        </CharString>
        <CharString name="uni1E6C">
          -6 callgsubr
          -180 -732 -100 callsubr
          endchar
        </CharString>
        <CharString name="uni1E6D">
          -224 322 12 rmoveto
          -56 callsubr
          -39 14 -40 72 73 callsubr
          vhcurveto
          -71 -131 -100 callsubr
          endchar
        </CharString>
        <CharString name="uni1E92">
          -68 473 157 -82 callsubr
          -135 -119 -100 callsubr
          endchar
        </CharString>
        <CharString name="uni1E93">
          -101 297 426 -83 callsubr
          188 -545 -100 callsubr
          endchar
        </CharString>
        <CharString name="uni1E9E">
          39 7 hmoveto
          228 42 hlineto
          -25 21 rlineto
          341 vlineto
          97 34 60 99 37 33 -7 -11 22 vhcurveto
          -151 -245 18 -33 rlineto
          130 50 -46 -72 -60 -32 -33 -47 -24 -16 6 6 -12 hvcurveto
          -17 90 rlineto
          -50 hlineto
          -14 -135 rlineto
          -21 38 51 -10 44 hhcurveto
          122 66 73 98 84 -50 66 -122 11 hvcurveto
          127 213 -5 33 rlineto
          35 -40 -80 24 -76 hhcurveto
          -166 -86 -97 -145 hvcurveto
          -322 -42 callsubr
          endchar
        </CharString>
        <CharString name="uni1EA0">
          20 138 62 -33 callsubr
        </CharString>
        <CharString name="uni1EA1">
          -60 232 433 -107 callgsubr
          102 -333 -100 callsubr
          endchar
        </CharString>
        <CharString name="uni1EA2">
          20 265 736 -106 callsubr
          298 -673 -48 callgsubr
        </CharString>
        <CharString name="uni1EA3">
          -60 223 615 -106 callsubr
          235 -541 -74 callgsubr
        </CharString>
        <CharString name="uni1EA4">
          20 431 693 rmoveto
          170 184 -10 18 rlineto
          -97 hlineto
          -93 -182 rlineto
          -8 -69 -93 callsubr
          -131 -661 -101 callgsubr
        </CharString>
        <CharString name="uni1EA5">
          -60 416 616 rmoveto
          170 183 -10 19 rlineto
          -97 hlineto
          -93 -183 rlineto
          -16 -78 -82 callgsubr
          -23 -210 -107 callgsubr
          endchar
        </CharString>
        <CharString name="uni1EA6">
          20 462 692 rmoveto
          30 20 -93 182 rlineto
          -97 hlineto
          -10 -18 rlineto
          101 -232 -93 callsubr
          -131 -661 -101 callgsubr
        </CharString>
        <CharString name="uni1EA7">
          -60 437 616 rmoveto
          30 19 -93 183 rlineto
          -97 hlineto
          -10 -19 rlineto
          93 -242 -82 callgsubr
          -13 -210 -107 callgsubr
          endchar
        </CharString>
        <CharString name="uni1EA8">
          20 383 832 -106 callsubr
          -50 -109 -12 callgsubr
          351 -581 -48 callgsubr
        </CharString>
        <CharString name="uni1EA9">
          -60 341 755 -106 callsubr
          -49 -112 rmoveto
          115 -86 -75 callgsubr
          31 -25 rlineto
          279 -483 -74 callgsubr
        </CharString>
        <CharString name="uni1EAA">
          20 463 908 -91 callgsubr
          -43 -264 -93 callsubr
          -158 -661 -101 callgsubr
        </CharString>
        <CharString name="uni1EAB">
          -60 421 787 -91 callgsubr
          -43 -264 -93 callsubr
          -22 -169 -107 callgsubr
          endchar
        </CharString>
        <CharString name="uni1EAC">
          20 420 644 -93 callsubr
          -158 -661 -33 callsubr
        </CharString>
        <CharString name="uni1EAD">
          -60 370 -72 callsubr
          -23 -210 -107 callgsubr
          102 -333 -100 callsubr
          endchar
        </CharString>
        <CharString name="uni1EAE">
          20 258 780 -69 callgsubr
          59 -153 -80 callsubr
          endchar
        </CharString>
        <CharString name="uni1EAF">
          -60 216 659 -69 callgsubr
          59 -153 -92 callsubr
          -20 -102 -107 callgsubr
          endchar
        </CharString>
        <CharString name="uni1EB0">
          20 339 780 -32 callsubr
          -3 -22 rlineto
          182 -230 -80 callsubr
          endchar
        </CharString>
        <CharString name="uni1EB1">
          -60 297 659 -32 callsubr
          -3 -22 rlineto
          182 -230 -92 callsubr
          -20 -102 -107 callgsubr
          endchar
        </CharString>
        <CharString name="uni1EB2">
          20 267 876 -106 callsubr
          64 -220 -92 callsubr
          232 -593 -48 callgsubr
        </CharString>
        <CharString name="uni1EB3">
          -60 225 755 -106 callsubr
          64 -220 -92 callsubr
          169 -461 -74 callgsubr
        </CharString>
        <CharString name="uni1EB4">
          20 463 904 -91 callgsubr
          -169 -248 -80 callsubr
          endchar
        </CharString>
        <CharString name="uni1EB5">
          -60 421 783 -91 callgsubr
          -169 -248 -92 callsubr
          -20 -102 -107 callgsubr
          endchar
        </CharString>
        <CharString name="uni1EB6">
          20 294 656 -80 callsubr
          188 -323 -100 callsubr
          endchar
        </CharString>
        <CharString name="uni1EB7">
          -60 250 -61 callgsubr
          -18 -142 -107 callgsubr
          102 -333 -100 callsubr
          endchar
        </CharString>
        <CharString name="uni1EB8">
          -29 380 394 -102 callsubr
          -78 -513 -100 callsubr
          endchar
        </CharString>
        <CharString name="uni1EB9">
          -96 264 -10 -107 callsubr
          -15 -427 -100 callsubr
          endchar
        </CharString>
        <CharString name="uni1EBA">
          -29 241 736 -106 callsubr
          257 -579 -22 callsubr
        </CharString>
        <CharString name="uni1EBB">
          -96 207 615 -106 callsubr
          277 -365 rmoveto
          2 18 1 29 14 vvcurveto
          131 -60 59 -136 -78 callgsubr
          -19 callsubr
          vhcurveto
          -8 39 rlineto
          -14 -50 -52 -9 -40 hhcurveto
          -88 -51 46 120 hvcurveto
          27 vlineto
          103 189 rmoveto
          57 14 -43 -66 hvcurveto
          -22 vlineto
          -172 -10 rlineto
          93 4 21 48 76 hhcurveto
          endchar
        </CharString>
        <CharString name="uni1EBC">
          -29 447 774 rmoveto
          -39 17 47 callgsubr
          -25 vhcurveto
          -37 -83 38 -44 hhcurveto
          -33 -29 -45 -56 -20 47 callsubr
          45 55 23 hvcurveto
          -67 -380 -102 callsubr
          endchar
        </CharString>
        <CharString name="uni1EBD">
          -96 329 583 rmoveto
          -47 callgsubr
          -24 callsubr
          -65 -593 -103 callgsubr
        </CharString>
        <CharString name="uni1EBE">
          -29 407 693 rmoveto
          170 184 -10 18 rlineto
          -97 hlineto
          -93 -182 rlineto
          -8 -69 -93 callsubr
          135 -329 -102 callsubr
          endchar
        </CharString>
        <CharString name="uni1EBF">
          -96 400 616 rmoveto
          170 183 -10 19 rlineto
          -97 hlineto
          -93 -183 rlineto
          -16 -78 -82 callgsubr
          25 -653 -103 callgsubr
        </CharString>
        <CharString name="uni1EC0">
          -29 438 692 rmoveto
          30 20 -93 182 rlineto
          -97 hlineto
          -10 -18 rlineto
          101 -232 -93 callsubr
          135 -329 -102 callsubr
          endchar
        </CharString>
        <CharString name="uni1EC1">
          -96 421 616 rmoveto
          30 19 -93 183 rlineto
          -97 hlineto
          -10 -19 rlineto
          93 -242 -82 callgsubr
          35 -653 -103 callgsubr
        </CharString>
        <CharString name="uni1EC2">
          -29 359 832 -106 callsubr
          -50 -109 -12 callgsubr
          310 -487 -22 callsubr
        </CharString>
        <CharString name="uni1EC3">
          -96 366 818 rmoveto
          -34 callsubr
          hvcurveto
          6 -53 rlineto
          37 hlineto
          7 29 rlineto
          1 10 9 1 7 hhcurveto
          24 13 -9 -15 -17 -16 -14 -47 hvcurveto
          4 -42 rlineto
          48 hlineto
          6 24 rlineto
          51 7 21 19 26 vvcurveto
          34 -36 19 -60 vhcurveto
          -127 -175 rmoveto
          115 -86 -75 callgsubr
          31 -25 rlineto
          128 -56 rmoveto
          -78 callgsubr
          -19 callsubr
          hvcurveto
          -8 39 rlineto
          -14 -50 -52 -9 -40 hhcurveto
          -88 -51 46 120 hvcurveto
          27 291 vlineto
          2 18 1 29 14 vvcurveto
          131 -60 59 -136 vhcurveto
          76 -193 rmoveto
          -172 -10 rlineto
          93 4 21 48 76 hhcurveto
          57 14 -43 -66 hvcurveto
          endchar
        </CharString>
        <CharString name="uni1EC4">
          -29 439 908 -91 callgsubr
          -43 -264 -93 callsubr
          108 -329 -102 callsubr
          endchar
        </CharString>
        <CharString name="uni1EC5">
          -96 405 787 -91 callgsubr
          -43 -264 -93 callsubr
          26 -612 -103 callgsubr
        </CharString>
        <CharString name="uni1EC6">
          -29 396 644 -93 callsubr
          108 -329 -102 callsubr
          -78 -513 -100 callsubr
          endchar
        </CharString>
        <CharString name="uni1EC7">
          -96 354 -72 callsubr
          25 -653 -107 callsubr
          -15 -427 -100 callsubr
          endchar
        </CharString>
        <CharString name="uni1EC8">
          -211 150 736 -106 callsubr
          214 -164 rmoveto
          41 -291 -41 vlineto
          87 -4 callsubr
          -41 290 41 vlineto
          -87 22 rlineto
          487 vlineto
          endchar
        </CharString>
        <CharString name="uni1EC9">
          -250 130 615 -106 callsubr
          133 -551 rmoveto
          437 -81 callgsubr
          -349 35 callgsubr
          -44 280 44 vlineto
          endchar
        </CharString>
        <CharString name="uni1ECA">
          -211 37 hmoveto
          -92 callgsubr
          221 -160 -100 callsubr
          endchar
        </CharString>
        <CharString name="uni1ECB">
          -251 -28 callgsubr
          -140 -571 rmoveto
          280 44 hlineto
          -89 callgsubr
          211 -163 -100 callsubr
          endchar
        </CharString>
        <CharString name="uni1ECC">
          87 332 627 rmoveto
          -105 callgsubr
          -95 -429 -100 callsubr
          endchar
        </CharString>
        <CharString name="uni1ECD">
          -29 271 501 -104 callgsubr
          -39 -365 -100 callsubr
          endchar
        </CharString>
        <CharString name="uni1ECE">
          87 299 736 -106 callsubr
          70 -109 -29 callgsubr
        </CharString>
        <CharString name="uni1ECF">
          -29 241 615 -106 callsubr
          67 -114 -23 callsubr
        </CharString>
        <CharString name="uni1ED0">
          87 465 693 rmoveto
          170 184 -10 18 rlineto
          -97 hlineto
          -93 -182 rlineto
          -8 -69 -93 callsubr
          29 -96 rmoveto
          -105 callgsubr
          endchar
        </CharString>
        <CharString name="uni1ED1">
          -29 434 616 rmoveto
          170 183 -10 19 rlineto
          -97 hlineto
          -93 -183 rlineto
          -16 -78 rmoveto
          29 25 -106 141 rlineto
          -76 hlineto
          -106 -141 31 -25 113 86 -26 callgsubr
          endchar
        </CharString>
        <CharString name="uni1ED2">
          87 496 692 rmoveto
          30 20 -93 182 rlineto
          -97 hlineto
          -10 -18 rlineto
          101 -232 -93 callsubr
          29 -96 rmoveto
          -105 callgsubr
          endchar
        </CharString>
        <CharString name="uni1ED3">
          -29 455 616 rmoveto
          30 19 -93 183 rlineto
          -97 hlineto
          -10 -19 rlineto
          93 -242 -82 callgsubr
          8 -56 callgsubr
          endchar
        </CharString>
        <CharString name="uni1ED4">
          87 417 832 -106 callsubr
          -50 -109 -12 callgsubr
          123 -17 -29 callgsubr
        </CharString>
        <CharString name="uni1ED5">
          -29 359 755 -106 callsubr
          -49 -112 rmoveto
          115 -86 -75 callgsubr
          31 -25 rlineto
          111 -56 -23 callsubr
        </CharString>
        <CharString name="uni1ED6">
          87 497 908 -91 callgsubr
          -43 -264 -93 callsubr
          2 -96 rmoveto
          -105 callgsubr
          endchar
        </CharString>
        <CharString name="uni1ED7">
          -29 439 787 -91 callgsubr
          -43 -264 -93 callsubr
          -1 -101 -100 callgsubr
        </CharString>
        <CharString name="uni1ED8">
          87 454 644 -93 callsubr
          2 -96 rmoveto
          -105 callgsubr
          -95 -429 -100 callsubr
          endchar
        </CharString>
        <CharString name="uni1ED9">
          -29 388 557 rmoveto
          29 25 -106 141 rlineto
          -76 hlineto
          -106 -141 31 -25 113 86 -26 callgsubr
          -39 -365 -100 callsubr
          endchar
        </CharString>
        <CharString name="uni1EDA">
          87 514 22 callsubr
          387 8 -96 callgsubr
          endchar
        </CharString>
        <CharString name="uni1EDB">
          -29 418 56 callsubr
          368 -21 -96 callsubr
          endchar
        </CharString>
        <CharString name="uni1EDC">
          87 391 18 callsubr
          306 8 -96 callgsubr
          endchar
        </CharString>
        <CharString name="uni1EDD">
          -29 356 50 callgsubr
          226 -21 -96 callsubr
          endchar
        </CharString>
        <CharString name="uni1EDE">
          87 299 736 -106 callsubr
          415 -88 -96 callgsubr
          endchar
        </CharString>
        <CharString name="uni1EDF">
          -29 241 615 -106 callsubr
          358 -78 -96 callsubr
          endchar
        </CharString>
        <CharString name="uni1EE0">
          87 249 -1 callgsubr
          428 -54 -96 callgsubr
          endchar
        </CharString>
        <CharString name="uni1EE1">
          -29 191 621 rmoveto
          36 84 -38 44 hhcurveto
          -47 callgsubr
          371 -84 -96 callsubr
          endchar
        </CharString>
        <CharString name="uni1EE2">
          87 677 648 -96 callgsubr
          -4 -97 -17 callsubr
        </CharString>
        <CharString name="uni1EE3">
          -29 562 537 -96 callsubr
          -1 -94 -17 callsubr
        </CharString>
        <CharString name="uni1EE4">
          84 566 236 -103 callsubr
          -161 -355 -100 callsubr
          endchar
        </CharString>
        <CharString name="uni1EE5">
          38 589 12 rmoveto
          38 vlineto
          -83 24 rlineto
          427 -38 vlineto
          -161 -104 callsubr
          -207 -131 -100 callsubr
          endchar
        </CharString>
        <CharString name="uni1EE6">
          84 297 736 -106 callsubr
          152 -123 rmoveto
          -41 vlineto
          -83 callgsubr
          -45 callgsubr
          vlineto
          endchar
        </CharString>
        <CharString name="uni1EE7">
          38 274 615 -106 callsubr
          269 -541 rmoveto
          427 -38 vlineto
          -161 -88 callsubr
          endchar
        </CharString>
        <CharString name="uni1EE8">
          84 512 22 callsubr
          401 37 -95 callgsubr
          endchar
        </CharString>
        <CharString name="uni1EE9">
          38 451 56 callsubr
          432 7 -98 callsubr
          endchar
        </CharString>
        <CharString name="uni1EEA">
          84 389 18 callsubr
          320 37 -95 callgsubr
          endchar
        </CharString>
        <CharString name="uni1EEB">
          38 389 50 callgsubr
          290 7 -98 callsubr
          endchar
        </CharString>
        <CharString name="uni1EEC">
          84 297 736 -106 callsubr
          429 -59 -95 callgsubr
          endchar
        </CharString>
        <CharString name="uni1EED">
          38 274 615 -106 callsubr
          422 -50 -98 callsubr
          endchar
        </CharString>
        <CharString name="uni1EEE">
          84 247 -1 callgsubr
          442 -25 -95 callgsubr
          endchar
        </CharString>
        <CharString name="uni1EEF">
          38 224 621 rmoveto
          36 84 -38 44 hhcurveto
          -47 callgsubr
          435 -56 -98 callsubr
          endchar
        </CharString>
        <CharString name="uni1EF0">
          84 689 677 -95 callgsubr
          -359 -720 -17 callsubr
        </CharString>
        <CharString name="uni1EF1">
          38 659 565 -98 callsubr
          -352 -608 -17 callsubr
        </CharString>
        <CharString name="uni1EF4">
          -25 callsubr
          3 -732 -100 callsubr
          endchar
        </CharString>
        <CharString name="uni1EF5">
          -78 220 492 -58 callsubr
          230 -574 -100 callsubr
          endchar
        </CharString>
        <CharString name="uni1EF6">
          -2 255 736 -106 callsubr
          142 -123 rmoveto
          -42 vlineto
          71 -20 -111 20 callgsubr
          65 -74 callsubr
          vlineto
          endchar
        </CharString>
        <CharString name="uni1EF7">
          -78 216 615 -106 callsubr
          118 -123 rmoveto
          -46 vlineto
          68 -17 -91 -273 -104 275 50 24 rlineto
          37 -228 -37 vlineto
          53 -24 170 -407 rlineto
          -73 -31 26 callgsubr
          39 37 -9 28 hhcurveto
          88 50 76 126 45 -23 callgsubr
          vlineto
          endchar
        </CharString>
        <CharString name="uni1EF8">
          -2 473 774 rmoveto
          32 callsubr
          -32 -24 vhcurveto
          -38 -5 callsubr
          24 vhcurveto
          -24 callsubr
          33 26 45 55 23 hvcurveto
          -116 -203 rmoveto
          71 -20 -110 20 callgsubr
          64 -61 callsubr
        </CharString>
        <CharString name="uni1EF8.loclGUA">
          103 429 676 rmoveto
          33 25 44 56 23 hvcurveto
          54 callsubr
          -29 -45 -56 -20 hvcurveto
          41 -16 rlineto
          0 18 33 23 vhcurveto
          37 84 -38 44 hhcurveto
          -116 -844 rmoveto
          -89 callsubr
          -38 callgsubr
          endchar
        </CharString>
        <CharString name="uni1EF9">
          -67 429 683 rmoveto
          -36 callgsubr
          -24 callsubr
          33 26 44 56 23 hvcurveto
          -201 -191 -58 callgsubr
        </CharString>
        <CharString name="uni1EF9.loclGUA">
          12 462 683 rmoveto
          54 callsubr
          -27 -45 -55 -22 36 callsubr
          -66 -588 -93 callgsubr
        </CharString>
        <CharString name="uni2070">
          372 494 -9 callsubr
          -146 rmoveto
          -47 -59 27 118 123 59 25 47 46 58 -25 -118 -120 -58 -30 -46 hvcurveto
          endchar
        </CharString>
        <CharString name="uni2074">
          226 277 rmoveto
          89 85 58 57 -58 289 hlineto
          -72 9 -232 -317 41 callsubr
          57 41 callgsubr
        </CharString>
        <CharString name="uni2075">
          330 709 rmoveto
          -247 hlineto
          -16 -192 20 -21 rlineto
          108 57 -19 -69 -53 -38 -33 -51 -22 -31 5 19 49 callsubr
          83 56 -23 75 -185 7 hvcurveto
          8 106 rlineto
          178 hlineto
          endchar
        </CharString>
        <CharString name="uni2076">
          136 518 rmoveto
          112 21 60 38 54 hhcurveto
          8 23 -2 -4 28 hvcurveto
          7 44 rlineto
          6 -27 -28 4 -22 hhcurveto
          -85 -138 -64 -206 -97 31 -80 129 147 25 96 55 62 -35 60 -104 -34 -35 -8 -16 -25 hvcurveto
          -4 -82 rmoveto
          28 19 34 26 33 hhcurveto
          41 11 -38 -48 -49 -24 -36 -51 -46 -14 52 65 -3 hvcurveto
          endchar
        </CharString>
        <CharString name="uni2077">
          43 603 71 callgsubr
          -373 98 -10 77 callgsubr
          endchar
        </CharString>
        <CharString name="uni2078">
          43 375 rmoveto
          -50 33 -53 114 107 56 52 73 63 26 callsubr
          -26 vhcurveto
          -61 -33 -21 -38 57 callgsubr
          -28 -17 -29 80 callsubr
          19 -23 31 29 vvcurveto
          30 -147 -32 callgsubr
          15 52 35 19 28 23 19 vhcurveto
          endchar
        </CharString>
        <CharString name="uni2079">
          58 343 rmoveto
          -10 -49 rlineto
          -14 37 40 -9 -9 callgsubr
          -14 -23 hhcurveto
          -32 -26 26 66 callsubr
        </CharString>
        <CharString name="uni207D">
          -295 157 495 rmoveto
          107 0 144 99 45 vhcurveto
          -11 33 rlineto
          -142 -41 -28 -78 -210 vvcurveto
          -212 28 -76 142 -42 vhcurveto
          11 33 rlineto
          -99 43 0 146 108 vvcurveto
          endchar
        </CharString>
        <CharString name="uni207E">
          -295 124 495 rmoveto
          -108 0 -146 -100 -43 vhcurveto
          10 -33 rlineto
          144 42 25 76 212 vvcurveto
          210 -25 78 -144 41 vhcurveto
          -10 -33 rlineto
          100 -45 0 -144 -107 vvcurveto
          endchar
        </CharString>
        <CharString name="uni207F">
          -83 190 625 rmoveto
          29 -32 vlineto
          -125 58 callsubr
          -35 202 35 vlineto
          -45 19 rlineto
          252 vlineto
          7 16 27 3 31 hhcurveto
          43 68 callgsubr
          202 35 vlineto
          -58 19 rlineto
          59 callsubr
          endchar
        </CharString>
        <CharString name="uni2080">
          -177 368 106 rmoveto
          170 -75 56 -93 -94 -77 -58 -168 -167 77 -58 94 93 75 56 169 vhcurveto
          -168 -145 rmoveto
          -47 -59 27 117 123 59 25 47 46 58 -25 -118 -120 -58 -29 -46 hvcurveto
          endchar
        </CharString>
        <CharString name="uni2081">
          -182 56 253 rmoveto
          114 -365 94 433 hlineto
          -208 -31 rlineto
          endchar
        </CharString>
        <CharString name="uni2082">
          184 275 rmoveto
          41 19 -24 -40 -47 -30 -46 -38 -38 hvcurveto
          -146 -149 14 -42 rlineto
          304 hlineto
          8 106 -51 6 -25 -55 74 callgsubr
          99 rlineto
          50 50 54 63 54 vvcurveto
          87 -62 31 -87 -54 -58 -18 -21 -35 vhcurveto
          21 -47 rlineto
          21 46 37 10 34 hhcurveto
          endchar
        </CharString>
        <CharString name="uni2083">
          202 329 rmoveto
          -54 -53 -18 -23 -37 hvcurveto
          19 -46 rlineto
          23 46 35 12 19 hhcurveto
          37 18 -21 -31 -44 -28 -40 -79 -9 hvcurveto
          3 -42 rlineto
          58 65 -8 -69 -54 -37 -27 -52 -19 -30 5 19 -57 hvcurveto
          -11 -47 rlineto
          -17 40 51 -11 48 hhcurveto
          107 59 44 88 52 -35 42 -60 15 hvcurveto
          43 22 32 40 49 vvcurveto
          65 -58 31 -70 vhcurveto
          endchar
        </CharString>
        <CharString name="uni2084">
          226 -112 rmoveto
          89 85 58 56 -58 290 hlineto
          -72 9 -232 -317 41 callsubr
          56 72 callgsubr
        </CharString>
        <CharString name="uni2085">
          330 325 rmoveto
          -247 -5 -16 -191 20 -21 rlineto
          108 57 -20 -69 -52 -38 -34 -51 -22 -31 5 20 49 callsubr
          82 56 -23 76 -185 6 hvcurveto
          10 110 rlineto
          176 hlineto
          endchar
        </CharString>
        <CharString name="uni2086">
          138 136 rmoveto
          91 17 61 53 54 hhcurveto
          8 23 -2 -5 29 hvcurveto
          6 44 rlineto
          6 29 callgsubr
          -81 129 45 callgsubr
          -31 -6 -11 -27 hvcurveto
          -6 -89 rmoveto
          28 18 34 26 34 hhcurveto
          40 11 -37 -49 -49 -23 -36 -51 -47 -13 52 65 -3 hvcurveto
          endchar
        </CharString>
        <CharString name="uni2087">
          43 215 18 callgsubr
        </CharString>
        <CharString name="uni2088">
          43 -16 rmoveto
          -50 33 -53 114 107 56 52 74 62 26 callsubr
          -25 vhcurveto
          -61 -33 -21 -39 57 callgsubr
          -27 -17 -30 80 callsubr
          19 -23 31 29 vvcurveto
          30 -147 -32 callgsubr
          16 51 35 19 28 23 19 vhcurveto
          endchar
        </CharString>
        <CharString name="uni2089">
          58 -47 rmoveto
          -10 -49 rlineto
          -13 37 40 -10 -9 callgsubr
          -13 -23 hhcurveto
          -32 -26 25 66 callsubr
        </CharString>
        <CharString name="uni208D">
          -270 157 110 rmoveto
          106 0 145 99 44 vhcurveto
          -10 34 rlineto
          -142 -41 -28 -78 -210 vvcurveto
          -213 28 -76 142 -41 vhcurveto
          10 32 rlineto
          -99 43 0 146 109 vvcurveto
          endchar
        </CharString>
        <CharString name="uni208E">
          -270 146 110 rmoveto
          -109 0 -146 -100 -43 vhcurveto
          11 -32 rlineto
          143 41 26 76 213 vvcurveto
          210 -26 78 -143 41 vhcurveto
          -11 -34 rlineto
          100 -44 0 -145 -106 vvcurveto
          endchar
        </CharString>
        <CharString name="uni20B2">
          -5 279 303 rmoveto
          46 callsubr
          -159 vlineto
          -11 -28 -31 -1 -19 hhcurveto
          -104 -25 125 115 112 24 122 127 24 40 -5 -8 23 hvcurveto
          25 -97 rlineto
          49 hlineto
          12 144 -37 14 -63 11 -53 3 rlinecurve
          93 -59 -93 vlineto
          -175 -13 -61 -129 -157 vvcurveto
          -149 55 -136 172 -15 vhcurveto
          -93 61 93 vlineto
          57 4 63 14 40 23 rrcurveto
          195 vlineto
          64 19 rlineto
          42 vlineto
          endchar
        </CharString>
        <CharString name="uni20BA">
          -79 38 hmoveto
          162 hlineto
          238 41 146 160 4 hvcurveto
          -68 hlineto
          -131 -51 -108 -124 vhcurveto
          208 vlineto
          115 42 rlineto
          55 vlineto
          -115 -42 rlineto
          55 vlineto
          115 43 rlineto
          54 vlineto
          -115 -42 rlineto
          110 0 callgsubr
          -289 46 callsubr
          -152 vlineto
          -90 -33 rlineto
          -55 vlineto
          90 33 rlineto
          -54 vlineto
          -90 -33 rlineto
          -56 vlineto
          90 33 rlineto
          -170 -42 callsubr
          endchar
        </CharString>
        <CharString name="uni20BD">
          -41 37 hmoveto
          309 42 hlineto
          -106 21 rlineto
          91 173 46 -173 51 59 vlineto
          109 111 52 135 117 -97 58 -119 hvcurveto
          -267 -42 hlineto
          2 callsubr
          -253 -86 -45 86 -51 -86 -46 86 -91 -42 callsubr
          203 255 rmoveto
          255 vlineto
          5 19 18 1 19 hhcurveto
          67 35 -46 -80 -92 -50 -43 -80 hvcurveto
          endchar
        </CharString>
        <CharString name="uni2113">
          -127 269 62 rmoveto
          -65 -14 30 90 1 hvcurveto
          11 vlineto
          99 62 108 106 120 vvcurveto
          89 -37 58 -99 -154 -25 -128 -140 vhcurveto
          -158 vlineto
          -69 -50 30 -46 39 23 rlineto
          -19 vlineto
          -79 35 -41 108 76 72 35 16 20 vhcurveto
          -8 39 rlineto
          -1 -1 -66 -17 -50 hhcurveto
          -78 348 rmoveto
          105 9 48 51 37 13 -27 -54 -78 -36 -71 -74 -57 vhcurveto
          endchar
        </CharString>
        <CharString name="uni2126">
          -44 callgsubr
        </CharString>
        <CharString name="uni2153">
          359 363 55 callsubr
          -240 583 28 callgsubr
          681 -133 -67 callgsubr
        </CharString>
        <CharString name="uni2154">
          439 443 -46 rmoveto
          229 -12 callsubr
          -178 604 -24 callgsubr
          620 -118 -67 callgsubr
        </CharString>
        <CharString name="uni2196">
          -17 461 372 rmoveto
          -358 56 -12 -13 67 -349 50 -1 -17 210 202 -223 72 73 -223 206 219 -10 rlineto
          endchar
        </CharString>
        <CharString name="uni2197">
          -17 400 67 rmoveto
          65 351 -11 11 -357 -57 -1 -51 219 12 -224 -205 72 -73 204 223 -17 -213 rlineto
          endchar
        </CharString>
        <CharString name="uni2198">
          -17 315 160 rmoveto
          -219 11 1 -50 357 -59 11 11 -65 351 -50 2 17 -212 -204 223 -72 -72 rlineto
          endchar
        </CharString>
        <CharString name="uni2199">
          -17 191 211 rmoveto
          17 210 -50 -1 -67 -349 12 -12 358 58 rlineto
          49 vlineto
          -219 -10 223 207 -72 71 rlineto
          endchar
        </CharString>
        <CharString name="uni2206">
          9 callsubr
        </CharString>
        <CharString name="uni2215">
          -379 -61 -69 rmoveto
          75 hlineto
          235 724 rlineto
          -75 hlineto
          endchar
        </CharString>
        <CharString name="uni2219">
          -176 271 286 rmoveto
          43 -33 32 -42 -40 -35 -32 -43 -41 35 -31 40 42 33 31 41 vhcurveto
          endchar
        </CharString>
        <CharString name="uniA78B">
          -438 61 269 rmoveto
          81 320 -24 24 -88 -1 -13 -335 rlineto
          endchar
        </CharString>
        <CharString name="uniA78C">
          -400 88 347 rmoveto
          86 341 -24 24 -94 -21 -13 -336 rlineto
          endchar
        </CharString>
        <CharString name="uniF6E9">
          181 600 rmoveto
          36 17 -20 -39 hvcurveto
          -52 vlineto
          -105 -17 rlineto
          -82 -15 -14 -55 -39 vvcurveto
          -46 33 -47 48 53 32 20 27 37 vhcurveto
          -27 6 19 -15 47 hhcurveto
          25 44 callsubr
          222 vlineto
          74 -51 18 -72 -55 -56 -12 -15 -45 vhcurveto
          10 -95 rlineto
          42 hlineto
          19 59 rlineto
          5 16 20 4 20 hhcurveto
          3 -162 rmoveto
          50 9 rlineto
          -93 vlineto
          -11 -17 -25 -9 -19 hhcurveto
          -25 -18 11 33 33 12 20 42 7 hvcurveto
          endchar
        </CharString>
</ttFont>
